<svg width="217" height="208" viewBox="0 0 217 208" fill="none" xmlns="http://www.w3.org/2000/svg">
<path d="M66.8163 41.647C66.6231 41.4926 66.4159 41.3592 66.1841 41.2433C64.9268 40.6149 63.6343 40.1375 62.363 39.6741C61.8818 39.4985 61.4042 39.3195 60.9336 39.1405C60.2241 38.8631 59.5112 38.5963 58.7982 38.3295L58.4821 38.2102C52.8628 36.1108 47.5561 34.1273 44.0335 29.1914C42.5619 27.1342 40.6233 25.5228 38.7549 23.9711C38.6003 23.8412 38.4458 23.7113 38.2878 23.585L38.0806 23.4129C34.0592 20.0463 29.1178 18.5788 24.1657 19.281C19.1013 20.0006 14.641 22.8793 11.6101 27.3834C9.00416 31.2521 8.97255 35.4719 8.94094 39.2037C8.92689 40.8642 8.91285 42.5844 8.67051 44.1712C8.55462 44.9259 8.44925 45.6877 8.34389 46.4636C7.9681 49.1668 7.58177 51.9612 6.70727 54.4221C5.65014 57.3886 4.29448 60.3516 2.97394 63.2408C2.06432 65.2278 1.1266 67.285 0.273164 69.3668C-0.369544 70.929 0.136193 73.6919 1.63936 74.6924C2.16617 75.0434 2.77024 75.2611 3.44456 75.3383C3.62719 75.3594 3.81333 75.3699 4.00298 75.3699C4.55086 75.3699 5.13035 75.2822 5.73091 75.1102C8.12614 74.4291 10.5811 72.4912 11.438 70.6096C12.0491 69.2685 12.597 67.9274 13.1976 66.439C15.7263 60.2006 17.9072 54.8118 24.5205 52.1929C26.3783 51.4557 28.3065 50.6272 29.8518 49.9566C40.546 45.3437 49.7828 41.3592 60.333 49.2264L60.5648 49.395L60.8177 49.4897C61.8362 49.8829 62.8652 49.8584 63.8767 49.416L63.8942 49.409C64.4597 49.1948 64.6669 49.1071 65.0076 48.9631C65.1726 48.8929 65.3693 48.8122 65.6643 48.6928L65.7416 48.6612C67.1078 48.103 68.0841 46.8462 68.2913 45.3823C68.4986 43.9395 67.9472 42.5458 66.8163 41.6505V41.647ZM18.5991 40.9028L20.1163 41.3521C21.0505 38.2628 22.0164 35.0717 23.2526 32.1052C23.8075 30.7747 24.4537 29.9602 25.0789 29.8093C25.7111 29.6548 26.6909 30.0936 27.8253 31.045C30.0449 32.9091 32.1733 35.0225 34.4491 37.2834L34.6598 37.4905C34.9127 37.7432 35.169 37.996 35.4254 38.2523L19.5052 43.3532C19.7089 42.6897 19.9091 42.0297 20.1023 41.3837L18.5956 40.9028H18.5991Z" fill="black"/>
<path d="M128.896 51.4301C128.787 50.6367 128.471 49.5975 127.589 49.1728C126.585 48.6883 125.643 48.0634 124.646 47.4034C122.451 45.95 119.964 44.3035 116.547 44.1947C110.952 44.0157 105.312 43.4926 99.8578 42.9871C98.3616 42.8466 96.8796 42.7097 95.4045 42.5798L97.9051 37.5772C100.992 31.4021 103.904 25.5674 106.882 19.6626C109.983 13.5155 110.029 7.96876 107.029 2.70635C106.071 1.02477 105.101 -0.239045 102.148 0.0382926C97.02 0.519246 96.3527 4.574 96.0296 6.52239C95.833 7.72301 95.7557 8.92364 95.6819 10.0821C95.6117 11.2055 95.5415 12.2657 95.3729 13.3014C93.9329 22.1025 92.0048 30.4296 84.3309 35.5586C80.1024 38.3882 78.4798 41.7443 78.9083 46.7891C78.9364 47.1191 78.961 47.428 78.9856 47.7159C79.1752 50.1066 79.2911 51.5494 80.408 52.5745C81.4756 53.5575 82.9718 53.6979 85.6901 53.9577C85.9395 53.9823 86.1958 53.9893 86.4487 53.9998C86.5435 53.9998 86.6419 54.0069 86.7332 54.0104C89.5323 54.1473 92.3314 54.2807 95.1341 54.4176C102.165 54.7581 109.435 55.1092 116.582 55.4743C117.453 55.5199 118.317 55.6077 119.23 55.699C120.551 55.8324 121.91 55.9693 123.287 55.9693C123.582 55.9693 123.877 55.9623 124.175 55.9482C125.752 55.8745 127.076 54.8003 128.295 53.712C128.839 53.2275 129.043 52.4622 128.903 51.4301H128.896Z" fill="black"/>
<path d="M182.782 52.2486C184.219 49.2751 184.514 46.3226 183.664 43.458C181.876 37.4408 175.34 33.1614 170.17 30.6302L170.1 30.5986C167.888 29.6473 165.819 30.2932 164.158 30.8093C162.282 31.3955 161.158 31.6834 159.901 30.8163L159.768 30.725L159.62 30.6618C157.134 29.6122 148.61 26.3859 143.289 28.9802C141.357 29.9211 140.086 31.4868 139.507 33.6318L139.443 33.8705L139.454 34.1163C139.77 40.7513 142.264 46.9089 144.673 52.8664C147.135 58.9468 149.678 65.2343 149.807 71.915V72.0098C150.25 77.5004 155.283 78.4412 159.329 79.196C161.499 79.5997 163.743 80.021 165.117 81.018L165.218 81.0917L165.327 81.1479C167.821 82.4222 170.374 82.8962 172.955 82.8962C176.836 82.8962 180.773 81.8219 184.633 80.7687C187.397 80.0139 190.007 79.3013 192.539 78.9889L192.813 78.9537L193.059 78.8309C197.087 76.7982 199.205 74.1688 199.356 71.0198C199.686 64.1811 190.407 57.1704 182.782 52.2486ZM175.259 48.3026C174.827 49.2329 173.437 49.8403 171.336 50.0053L171.277 50.0123C169.124 50.2651 166.96 49.8613 164.671 49.4401C162.907 49.1136 161.043 48.766 159.139 48.766C157.362 48.766 155.553 49.0679 153.766 49.9631C152.909 47.9094 152.132 46.1155 151.43 44.4936C149.864 40.8672 148.378 37.4373 148.466 36.4262C149.386 36.1173 152.821 36.6755 156.449 37.2653C158.732 37.6374 161.573 38.0973 164.892 38.5537L165.088 38.5818L165.285 38.5572C167.821 38.2658 171.607 40.5126 173.9 43.6792C175.214 45.4941 175.734 47.267 175.256 48.3026H175.259ZM156.596 58.185C156.804 57.9603 157.941 57.3073 163.849 58.4097L164.347 58.5009L164.807 58.2868C169.868 55.9382 181.795 61.0672 187.646 66.7544C189.789 68.8397 190.46 70.4405 190.175 71.104C189.827 71.9115 187.636 72.7786 182.607 72.5679H182.501L182.396 72.575C171.214 73.6036 162.841 72.3959 158.689 69.1767C158.391 66.7158 157.78 64.4935 157.281 62.6821C156.786 60.8846 156.171 58.6484 156.6 58.1815L156.596 58.185Z" fill="black"/>
<path d="M75.8944 136.629L75.7294 136.433L75.5116 136.299C63.9605 129.331 55.3875 130.475 49.129 131.311C45.6661 131.774 42.9267 132.139 40.8335 130.977C38.519 129.692 36.6893 126.368 35.0807 120.509C35.0526 120.41 35.0632 120.337 35.0737 120.316C35.0878 120.291 35.4565 119.729 38.0625 119.947C40.117 120.115 42.7511 120.705 45.3008 121.277C49.0904 122.124 52.6656 122.924 55.11 122.615C56.5395 122.436 57.558 121.323 57.7652 119.719C58.0496 117.511 56.8555 114.446 54.6851 113.568C51.1555 112.143 46.8145 111.967 42.9864 111.813C37.62 111.595 34.3502 111.318 34.2308 109.345C34.1536 108.078 33.3001 106.326 31.9093 103.577C31.077 101.927 29.6335 99.0729 29.335 97.6581C39.225 100.105 49.8314 99.4275 58.0496 98.5463L58.8609 98.4585L59.2578 97.7459C60.2061 96.0467 59.9391 94.6811 59.5493 93.8351C58.1901 90.8967 53.5577 89.7628 48.5214 88.7728C47.8647 88.6429 47.2957 88.5305 46.8778 88.4322L46.653 88.3971C45.2587 88.2743 43.9171 88.1514 42.6317 88.032C31.077 86.9648 24.102 86.3188 20.748 90.4859C17.9454 93.9685 18.3493 100.028 22.1915 112.104L22.2793 112.382L22.4619 112.61C22.8939 113.154 22.8236 113.824 22.5602 115.222C22.3144 116.528 22.0123 118.143 22.7428 119.775C26.2971 130.402 29.8794 136.247 34.7155 139.318C39.4884 142.348 45.1393 142.59 52.9642 142.924C56.3287 143.068 60.1393 143.229 64.4627 143.644C66.8474 144.019 68.916 144.205 70.6615 144.205C74.2016 144.205 76.4213 143.433 77.2817 141.899C78.1 140.438 77.6329 138.669 75.898 136.633L75.8944 136.629Z" fill="black"/>
<path d="M180.165 199.315L180 199.119L179.782 198.985C168.231 192.017 159.658 193.161 153.4 193.997C149.937 194.46 147.197 194.825 145.101 193.663C142.786 192.382 140.956 189.054 139.348 183.195C139.32 183.096 139.33 183.023 139.341 183.002C139.355 182.977 139.724 182.415 142.33 182.633C144.384 182.801 147.018 183.391 149.568 183.963C153.358 184.809 156.933 185.61 159.377 185.301C160.807 185.122 161.825 184.009 162.032 182.405C162.317 180.197 161.123 177.132 158.952 176.258C155.423 174.832 151.082 174.657 147.254 174.502C141.887 174.285 138.617 174.007 138.498 172.034C138.421 170.767 137.567 169.015 136.177 166.266C135.344 164.616 133.901 161.762 133.602 160.348C143.492 162.798 154.099 162.117 162.317 161.236L163.128 161.148L163.525 160.435C164.473 158.736 164.206 157.371 163.816 156.525C162.457 153.586 157.825 152.452 152.789 151.462C152.132 151.332 151.563 151.22 151.141 151.122L150.917 151.087C149.522 150.964 148.181 150.841 146.895 150.721C135.341 149.654 128.366 149.008 125.012 153.175C122.209 156.658 122.613 162.717 126.455 174.794L126.543 175.071L126.726 175.299C127.158 175.843 127.087 176.514 126.824 177.911C126.578 179.217 126.273 180.832 127.007 182.464C130.561 193.091 134.143 198.936 138.979 202.008C143.752 205.038 149.403 205.28 157.228 205.613C160.592 205.757 164.403 205.919 168.726 206.333C171.111 206.709 173.18 206.895 174.925 206.895C178.465 206.895 180.685 206.122 181.545 204.588C182.364 203.128 181.897 201.358 180.162 199.322L180.165 199.315Z" fill="black"/>
<path d="M133.69 124.547L133.665 124.477C132.513 121.022 128.207 117.827 124.042 114.735C122.363 113.488 120.776 112.312 119.522 111.206L118.728 110.508C118.493 110.301 118.261 110.097 118.043 109.908C122.893 108.124 126.293 101.563 127.923 97.7081C127.94 97.666 127.958 97.6274 127.968 97.5993C131.649 91.375 129.686 83.5148 125.952 79.2564C121.889 74.6224 116.105 73.2322 108.754 75.1279C108.206 75.2719 107.704 75.4649 107.254 75.6405C107.191 75.665 107.128 75.6896 107.061 75.7142C106.324 75.8406 105.502 76.4023 103.468 77.9469C101.962 79.0914 100.065 80.5904 98.3933 81.9104L98.3266 81.9631C97.5047 82.616 96.7356 83.2234 96.0929 83.7289C88.8791 89.374 85.8201 97.4554 86.7438 108.444L86.7964 109.054C86.8632 109.837 86.5576 110.831 86.2345 111.898C86.0484 112.498 85.8728 113.085 85.7323 113.685C85.4654 114.861 85.1704 116.065 84.8859 117.227L84.8508 117.375C84.0781 120.541 83.2773 123.813 82.7962 127.148C82.7189 127.703 82.7646 128.264 82.9332 128.854C83.4494 130.662 84.9491 131.916 86.8456 132.126C87.0317 132.147 87.2144 132.158 87.3935 132.158C89.0652 132.158 90.5579 131.291 91.3727 129.809C91.6887 129.233 91.8503 128.647 91.8538 128.061C91.8784 124.143 93.3078 120.91 96.0964 118.452C96.4476 118.235 97.8524 117.462 98.1334 117.318C106.415 113.58 110.492 117.241 116.656 122.777C118.349 124.297 120.098 125.867 122.1 127.432C122.251 127.548 122.426 127.654 122.816 127.882C123.051 128.019 123.498 128.279 123.729 128.437C124.123 129.125 124.667 129.967 125.636 130.424C126.103 130.641 126.606 130.834 127.164 131.013C128.263 131.368 129.472 131.343 130.557 130.95C131.052 130.771 131.516 130.518 131.944 130.195C133.296 129.17 134.037 127.622 133.978 125.944C133.956 125.351 133.798 124.884 133.683 124.543L133.69 124.547ZM112.898 100.611C112.438 101.658 111.873 102.5 111.307 102.978C109.235 104.726 105.758 104.947 101.733 105.207C100.676 105.274 99.5804 105.344 98.4776 105.446C98.1193 105.477 97.7752 105.372 97.5012 105.14C97.2273 104.912 97.0587 104.589 97.0306 104.234C96.3528 96.0862 101.333 88.6438 109.428 85.7159C109.987 85.5123 110.573 85.3333 111.174 85.1788C111.627 85.0629 112.157 85.0033 112.744 85.0033C113.657 85.0033 114.717 85.1437 115.848 85.4175C117.011 85.6984 117.271 86.081 117.323 86.1863C117.52 86.5971 117.808 86.9481 118.092 87.2887C118.3 87.5414 118.69 88.0118 118.707 88.1839C118.17 89.3213 117.72 91.2276 117.288 93.0741C116.979 94.3871 116.66 95.7422 116.386 96.4478C116.235 96.8375 115.539 97.508 114.981 98.0452C114.166 98.8315 113.32 99.646 112.895 100.611H112.898Z" fill="black"/>
<path d="M216.119 124.662C214.433 122.868 210.847 122.745 205.751 124.307C202.351 125.35 198.983 125.926 195.738 126.017C192.402 126.108 189.104 126.839 185.915 127.544C178.592 129.163 172.27 130.56 166.598 124.701L166.426 124.522L166.205 124.406C163.311 122.868 161.66 120.576 161.562 117.953C161.453 115.05 163.234 112.073 166.212 110.191L166.409 110.068L166.56 109.893C171.607 104.079 179.618 103.318 187.362 102.58C189.669 102.359 192.057 102.135 194.326 101.776L194.544 101.741L194.744 101.647C197.898 100.176 198.084 98.5467 197.687 97.4373C196.662 94.5902 189.975 93.9302 187.19 94.4919C174.978 93.544 161.812 99.3014 151.858 109.939C150.453 110.535 149.498 111.385 149.014 112.466C148.504 113.604 148.536 114.945 149.112 116.451L149.179 116.654C151.574 123.981 154.053 131.557 162.869 134.123C167.213 137.472 171.821 138.515 176.506 138.515C180.425 138.515 184.398 137.785 188.307 137.065C192.647 136.268 197.139 135.443 201.463 135.643H201.575L201.688 135.636C210.426 134.794 215.609 131.22 216.73 128.253C217.232 126.919 217.011 125.61 216.119 124.662Z" fill="black"/>
<path d="M107.479 189.556C103.725 182.31 102.766 174.545 101.976 165.877C101.839 164.368 101.424 159.807 96.9781 159.807C96.9325 159.807 96.8868 159.807 96.8411 159.807C95.3169 159.839 93.8032 160.576 92.6829 161.836C91.4607 163.209 90.8566 164.999 91.0252 166.748C91.1656 168.184 91.3834 169.616 91.5906 170.999C91.6819 171.613 91.7767 172.228 91.8645 172.842L92.0823 174.387L92.142 174.38C92.2614 175.535 92.3949 176.728 92.7355 177.911C92.9954 178.803 92.8585 179.063 92.8549 179.066C92.8549 179.066 92.6477 179.326 91.4571 179.446L91.0357 179.488C89.2094 179.67 87.3199 179.856 85.4866 180.383C79.2492 182.166 71.8001 183.911 63.8418 183.321C63.3782 183.286 62.6793 183.234 62.5283 183.125C62.5283 183.125 62.4615 183.023 62.4299 182.707C62.3035 181.394 62.1419 180.074 61.9874 178.793C61.6783 176.237 61.3552 173.593 61.3131 171.027C61.2815 169.149 61.58 168.113 61.9312 166.913C62.2543 165.807 62.6161 164.554 62.7565 162.605C62.8724 161.036 61.6467 159.298 60.565 158.284C59.3428 157.139 58.0082 156.602 56.8036 156.771C54.8263 157.048 53.1932 157.989 52.0869 159.488C50.6188 161.478 50.0815 164.508 50.6118 167.804C52.3784 178.694 52.7717 188.65 51.8129 198.245C51.5882 200.502 52.8455 202.735 53.9518 204.708C54.2749 205.284 54.5805 205.828 54.8439 206.358C55.3636 207.401 56.8457 208.008 58.082 208.008C58.4191 208.008 58.7387 207.962 59.0127 207.867C60.4035 207.394 61.2148 205.61 61.3271 204.553C61.6713 201.362 61.8715 198.126 62.0682 194.991L62.0998 194.467C62.1209 194.137 62.149 193.664 62.2122 193.442C62.2684 193.432 62.3562 193.421 62.4861 193.425C63.1675 193.428 63.8488 193.439 64.5301 193.449C66.8305 193.485 69.2082 193.52 71.5648 193.348L72.5763 193.277C75.8425 193.049 79.2176 192.81 82.4452 191.933C84.6086 191.343 86.6386 190.399 88.5983 189.482C89.947 188.854 91.2183 188.261 92.5353 187.773C93.3045 187.488 93.747 187.359 94.0034 187.302C94.0842 187.611 94.1685 188.138 94.2528 188.875C94.3265 189.511 94.3862 190.167 94.4459 190.802C94.5829 192.291 94.7234 193.829 95.057 195.349C95.0676 195.391 96.1633 199.526 98.4497 199.291C101.101 199.021 102.956 198.329 104.122 197.181C104.385 196.925 104.754 196.648 105.144 196.353C106.615 195.247 109.355 193.186 107.476 189.563L107.479 189.556Z" fill="black"/>
</svg>
