<svg width="85" height="20" viewBox="0 0 85 20" fill="none" xmlns="http://www.w3.org/2000/svg">
<g clip-path="url(#clip0_1_37)">
<path d="M84.9777 18.7515C84.9431 18.5924 84.7929 18.4802 84.6324 18.5047C83.881 18.6149 83.1397 19.0881 82.3111 19.1942C81.2184 19.335 80.1441 19.2534 79.1307 19.0371C76.7524 18.5312 75.5826 15.8731 76.7037 13.7067C77.3008 12.552 77.6318 11.2893 77.6318 9.9694C77.6318 8.21093 77.049 6.55855 76.0254 5.1224C75.146 3.88821 75.6781 2.14606 77.0916 1.60955C78.1436 1.20971 79.2809 1.25459 80.4751 1.14239C80.7899 1.11179 81.0052 0.809874 80.9402 0.499796L80.9199 0.401877C80.8854 0.244798 80.7391 0.134639 80.5787 0.152999C79.9897 0.216238 79.415 0.310078 78.8544 0.434517C75.3674 1.20971 71.7544 1.09751 68.2612 0.350877C67.1949 0.122399 66.0719 0 64.9142 0C62.9361 0 61.0616 0.356997 59.3901 0.991432C57.3044 1.78295 55.0115 1.77887 52.9176 1.00571C51.2766 0.399837 49.4447 0.0591595 47.5154 0.0591595C45.586 0.0591595 43.9145 0.369237 42.3304 0.926153C40.0517 1.72787 37.5801 1.72787 35.2994 0.926153C33.7153 0.369237 31.9606 0.0591595 30.1145 0.0591595C27.5921 0.0591595 25.2402 0.638515 23.2621 1.63403C22.1025 2.21746 20.7275 2.21746 19.5679 1.63403C17.5918 0.638515 15.238 0.0591595 12.7176 0.0591595C5.70485 0.0591595 0 4.53284 0 10.0306C0 15.5284 5.70485 20.002 12.7176 20.002C14.5211 20.002 16.2372 19.7062 17.7908 19.1738C20.1386 18.3701 22.6955 18.3701 25.0412 19.1738C26.5969 19.7062 28.313 20.002 30.1145 20.002C33.0897 20.002 35.8274 19.1962 37.9964 17.8499C38.4981 17.5377 39.1297 17.5377 39.6313 17.8499C41.8004 19.1962 44.538 20.002 47.5133 20.002C49.9789 20.002 52.2819 19.4492 54.2336 18.4925C55.5131 17.8641 57.0058 17.8641 58.2914 18.4802C60.2208 19.4064 62.4873 19.9408 64.9122 19.9408C67.3371 19.9408 69.758 19.3696 71.73 18.3843C72.8896 17.805 74.2422 17.807 75.3978 18.3945C77.3902 19.4104 79.7643 20 82.3111 20C82.9407 20 83.5601 19.9633 84.1653 19.8919C84.7177 19.8286 85.0934 19.2982 84.9777 18.7515ZM18.0853 18.3925C16.4667 19.0147 14.6449 19.3656 12.7176 19.3656C6.05213 19.3676 0.631615 15.1775 0.631615 10.0306C0.631615 4.88372 6.05213 0.693594 12.7176 0.693594C12.8252 0.693594 12.9309 0.693594 13.0385 0.695634C16.5337 0.756834 18.8794 4.22685 17.7908 7.56426C17.5349 8.35373 17.3968 9.17789 17.3968 10.0286C17.3968 11.8258 18.0061 13.5149 19.0723 14.9735C19.9456 16.1689 19.4623 17.8621 18.0833 18.3925H18.0853ZM21.7186 16.2526C21.544 16.4035 21.2881 16.4035 21.1134 16.2526C19.1962 14.6002 18.0305 12.4174 18.0305 10.0306C18.0305 8.30885 18.6377 6.69523 19.6938 5.30804C20.561 4.16973 22.2731 4.16973 23.1403 5.30804C24.1964 6.69523 24.8036 8.30885 24.8036 10.0306C24.8036 12.4194 23.6358 14.6002 21.7207 16.2526H21.7186ZM35.1674 18.5108C33.63 19.0596 31.9179 19.3656 30.1165 19.3656C28.3151 19.3656 26.5278 19.0453 24.964 18.4741C23.4977 17.9376 22.9433 16.1261 23.847 14.849C24.8584 13.419 25.4352 11.7748 25.4352 10.0286C25.4352 7.8621 24.5497 5.85271 23.0448 4.21665C22.4985 3.62097 22.6549 2.66014 23.3698 2.28682C25.2971 1.28111 27.6205 0.691554 30.1165 0.691554C32.4175 0.691554 34.5703 1.19135 36.4022 2.0563C37.3425 2.50102 37.5984 3.72093 36.9241 4.51448C35.5817 6.09547 34.7977 7.99062 34.7977 10.0286C34.7977 11.7605 35.3644 13.3905 36.3595 14.8123C37.2836 16.1342 36.6824 17.9702 35.1674 18.5108ZM39.2028 16.1771C38.9814 16.3729 38.6484 16.3729 38.425 16.1771C36.5586 14.5328 35.4273 12.3827 35.4273 10.0286C35.4273 8.85965 35.7076 7.7397 36.2174 6.70747C37.2755 4.56956 40.3523 4.56956 41.4104 6.70747C41.9202 7.7397 42.2004 8.85965 42.2004 10.0286C42.2004 12.3807 41.0672 14.5328 39.2028 16.1771ZM55.1983 17.2297C53.1085 18.5639 50.4297 19.3656 47.5154 19.3656C45.2143 19.3656 43.0616 18.8658 41.2297 18.0008C40.2893 17.5561 40.0335 16.3362 40.7077 15.5426C42.0502 13.9616 42.8341 12.0665 42.8341 10.0306C42.8341 8.66789 42.4848 7.37046 41.8511 6.18523C40.7402 4.10853 41.9019 1.55855 44.1928 1.05263C45.2489 0.818033 46.3638 0.693594 47.5154 0.693594C49.7981 0.693594 51.9326 1.18523 53.7564 2.03794C54.7007 2.48062 54.9587 3.70053 54.2864 4.5002C52.9663 6.07099 52.1966 7.95186 52.1966 9.97144C52.1966 12.4439 53.3502 14.7083 55.2572 16.4525C55.4969 16.6707 55.4725 17.0583 55.2003 17.2317L55.1983 17.2297ZM53.4416 12.9111C53.0435 11.9869 52.8262 10.9976 52.8262 9.9694C52.8262 7.6683 53.9087 5.55896 55.702 3.92901C55.9701 3.68625 56.3803 3.68421 56.6504 3.92493C58.4864 5.56304 59.5993 7.69686 59.5993 10.0286C59.5993 11.0282 59.3942 11.9931 59.0164 12.8968C57.9766 15.3794 54.5058 15.3815 53.4416 12.909V12.9111ZM68.9354 18.774C67.6763 19.1187 66.3217 19.3064 64.9122 19.3064C63.5799 19.3064 62.2984 19.1391 61.0981 18.8291C59.0286 18.2966 58.0944 15.918 59.1484 14.0514C59.843 12.8213 60.2309 11.4586 60.2309 10.0286C60.2309 7.9743 59.4348 6.06487 58.0721 4.47776C57.3937 3.68625 57.6456 2.4643 58.5859 2.01754C60.4279 1.14035 62.5949 0.632395 64.9122 0.632395C65.8992 0.632395 66.8578 0.724194 67.7758 0.897593C70.2677 1.36679 71.6163 4.11057 70.4728 6.38311C69.9042 7.51326 69.5914 8.74337 69.5914 10.0286C69.5914 11.532 70.0179 12.958 70.7815 14.2391C71.8254 15.9874 70.8892 18.2395 68.9334 18.774H68.9354ZM74.3296 15.814C73.9071 16.2179 73.243 16.2158 72.8267 15.8078C71.1979 14.2166 70.2251 12.2093 70.2251 10.0286C70.2251 8.29865 70.8364 6.67891 71.9026 5.28764C72.78 4.14321 74.5103 4.14525 75.3755 5.29988C76.4072 6.67483 76.9982 8.26805 76.9982 9.9694C76.9982 12.1807 75.9969 14.2126 74.3296 15.814Z" fill="white"/>
</g>
<g clip-path="url(#clip1_1_37)">
<path d="M10 11.3311L11.5682 9.92883C12.1418 9.40966 12.3591 9.0118 12.3591 8.59452C12.3591 8.08991 11.9737 7.79151 11.5503 7.79151C11.0843 7.79151 10.7416 8.0608 10.4413 8.47807L10.0179 8.07536C10.3921 7.51495 10.8961 7.17773 11.575 7.17773C12.3725 7.17773 13.0065 7.73814 13.0065 8.57997C13.0065 9.20102 12.7332 9.6935 11.9984 10.3388L10.997 11.2559H13.0446V11.889H10V11.3286V11.3311Z" fill="white"/>
<path d="M45.9797 11.1533L47.5479 9.75109C48.1215 9.23193 48.3388 8.83406 48.3388 8.41679C48.3388 7.91218 47.9534 7.61378 47.53 7.61378C47.064 7.61378 46.7212 7.88307 46.421 8.30034L45.9976 7.8952C46.3718 7.33479 46.8758 6.99757 47.5546 6.99757C48.3522 6.99757 48.9862 7.55798 48.9862 8.39981C48.9862 9.02086 48.7129 9.51334 47.9781 10.1587L46.9766 11.0757H49.0243V11.7089H45.9797V11.1485V11.1533Z" fill="white"/>
<path d="M28.3633 9.53119C28.3633 8.12896 29.116 7.13672 30.1936 7.13672C31.2712 7.13672 32.0173 8.12896 32.0173 9.53119C32.0173 10.9334 31.2578 11.9305 30.1936 11.9305C29.1295 11.9305 28.3633 10.9407 28.3633 9.53119ZM31.3698 9.53119C31.3698 8.49286 30.8837 7.76505 30.1936 7.76505C29.5036 7.76505 29.004 8.49286 29.004 9.53119C29.004 10.5695 29.4969 11.3046 30.1936 11.3046C30.8904 11.3046 31.3698 10.5695 31.3698 9.53119Z" fill="white"/>
<path d="M67.244 10.2363C67.244 11.1266 66.5966 11.7938 65.6937 11.7938C64.5041 11.7938 64 10.7894 64 9.46725C64 8.06502 64.7662 7 65.8124 7C66.3344 7 66.7265 7.21591 67.0581 7.53372L66.7332 8.06016C66.4666 7.79816 66.1978 7.61621 65.8057 7.61621C65.1515 7.61621 64.6609 8.37797 64.6407 9.40175C64.9029 9.01844 65.3308 8.78797 65.8057 8.78797C66.5898 8.78797 67.244 9.32169 67.244 10.2363ZM66.5966 10.2703C66.5966 9.705 66.1799 9.3605 65.6556 9.3605C65.1829 9.3605 64.802 9.65648 64.69 10.1077C64.802 10.7676 65.1067 11.214 65.6668 11.214C66.2269 11.214 66.5943 10.736 66.5943 10.2703H66.5966Z" fill="white"/>
</g>
<defs>
<clipPath id="clip0_1_37">
<rect width="85" height="20" fill="white"/>
</clipPath>
<clipPath id="clip1_1_37">
<rect width="61" height="5" fill="white" transform="translate(7 7)"/>
</clipPath>
</defs>
</svg>
