<svg width="1313" height="911" viewBox="0 0 1313 911" fill="none" xmlns="http://www.w3.org/2000/svg">
<path d="M1303.01 667.52C1304.78 675.7 1306.23 683.94 1307.05 692.19C1304.96 677.32 1301.51 664.69 1299.87 658.59C1299.01 655.55 1298.59 654.13 1298.73 654.91C1298.85 655.69 1299.62 658.65 1300.87 664.39C1301.14 664.78 1301.73 666.55 1302.45 669.36C1303.2 672.17 1304.1 676.04 1304.97 680.61C1306.67 689.73 1308.43 701.83 1307.4 713.61C1306.88 719.47 1305.54 725.18 1303.31 730.04C1301.14 734.95 1297.89 738.81 1294.6 741.63C1294.19 741.98 1293.78 742.33 1293.38 742.66C1292.99 743 1292.54 743.27 1292.14 743.57C1291.31 744.14 1290.56 744.74 1289.75 745.18C1288.96 745.65 1288.22 746.09 1287.52 746.5C1286.79 746.87 1286.12 747.21 1285.5 747.53C1284.29 748.2 1283.2 748.6 1282.44 748.99C1281.67 749.35 1281.19 749.64 1281.01 749.78L1277.14 750.92L1273.08 752.05C1270.37 752.78 1267.7 753.66 1265.01 754.48C1269.61 753 1270.31 752.64 1274.9 751.31C1266.98 753.47 1261.67 755.36 1257.49 756.99C1255.4 757.8 1253.59 758.55 1251.9 759.31C1250.21 760.06 1248.62 760.77 1246.98 761.58C1243.69 763.14 1240.18 764.91 1235.15 767.48C1233.9 768.14 1232.55 768.85 1231.09 769.62C1229.64 770.41 1228.08 771.27 1226.38 772.2C1222.99 774.08 1219.12 776.33 1214.65 779.2C1213.1 780.21 1211.62 781.21 1210.24 782.19C1209.65 782.61 1209.05 782.97 1208.46 783.26C1207.85 783.56 1207.33 783.75 1206.64 783.95C1204.07 784.78 1201.81 785.23 1200.32 785.54C1198.83 785.86 1198.04 785.93 1198.24 785.86C1198.44 785.79 1199.61 785.5 1201.96 784.9C1191.69 787.43 1180.94 788.72 1170.24 789.74C1165.56 790.13 1163.77 790.13 1164.34 790.05C1164.91 789.97 1167.81 789.71 1172.47 789.32C1156.12 790.78 1139.66 791.27 1123.2 791.36L1123.57 791.32C1120.05 791.47 1114.29 791.52 1108.44 791.6C1102.58 791.62 1096.65 791.57 1092.7 791.67C1080.06 791.44 1099.04 791.55 1095.81 791.37L1082.02 791.49C1077.43 791.65 1072.84 792.01 1068.25 792.26C1066.84 792.26 1065.97 792.32 1065.56 792.32C1065.15 792.32 1065.19 792.27 1065.61 792.19C1066.46 791.97 1068.86 791.83 1072.2 791.6C1073.87 791.5 1075.78 791.38 1077.86 791.25C1078.9 791.19 1079.97 791.12 1081.08 791.07C1082.19 791.07 1083.33 791.06 1084.49 791.05C1089.13 791.05 1094.16 791.01 1098.89 791.1C1092.49 790.68 1087.8 790.56 1083.58 790.49C1082.52 790.49 1081.49 790.45 1080.47 790.49C1079.44 790.54 1078.42 790.6 1077.39 790.65C1075.32 790.78 1073.18 790.91 1070.82 791.06C1069.64 791.14 1068.4 791.22 1067.07 791.3C1065.75 791.41 1064.35 791.61 1062.86 791.77C1061.36 791.94 1059.76 792.12 1058.04 792.32C1056.32 792.54 1054.47 792.65 1052.5 793.02C1044.6 794.2 1034.41 796.03 1020.98 799.69L1024.1 798.77L1027.26 797.93C1029.37 797.38 1031.47 796.79 1033.58 796.26L1039.98 794.84L1043.18 794.14L1046.42 793.6C1045.37 793.72 1044.3 793.85 1043.22 793.98C1042.15 794.15 1041.06 794.36 1039.96 794.56C1037.76 794.98 1035.49 795.41 1033.15 795.85C1028.53 796.95 1023.58 798.13 1018.38 799.64C1007.92 802.52 996.26 806.29 982.09 808.03C982.93 807.91 984.44 807.71 986.39 807.44C988.34 807.15 990.74 806.9 993.3 806.32C998.46 805.37 1004.38 803.91 1009.24 802.68C1014.09 801.42 1017.88 800.49 1018.66 800.42C1019.45 800.35 1017.18 801.11 1010.09 803.27C1008.07 803.85 1005.9 804.41 1003.54 805.03C1002.36 805.34 1001.13 805.67 999.84 806.02C998.55 806.34 997.21 806.62 995.81 806.95C994.41 807.27 992.95 807.61 991.44 807.96C989.92 808.27 988.32 808.51 986.66 808.82C985 809.1 983.28 809.46 981.47 809.72C979.65 809.93 977.76 810.14 975.8 810.37C975.75 810.25 974.76 810.27 972.99 810.39C972.11 810.48 971.03 810.47 969.77 810.49C968.52 810.52 967.09 810.55 965.52 810.58C963.95 810.61 962.22 810.69 960.37 810.71C958.51 810.65 956.53 810.58 954.44 810.51C952.35 810.44 950.15 810.37 947.88 810.3C945.6 810.1 943.24 809.88 940.82 809.67L942.19 809.15C931.73 808.42 926.93 807.6 923.18 807.27C921.31 807.08 919.7 806.92 917.79 806.73C917.32 806.68 916.83 806.63 916.31 806.57C915.87 806.48 915.39 806.44 914.89 806.3C913.88 806.08 912.74 805.66 911.43 805.1C909 803.88 906.92 802.42 905.11 801C903.3 799.56 901.76 798.15 900.4 796.85C897.7 794.22 895.73 792 894.17 790.18C891.07 786.51 889.57 784.37 887.95 782.14C864.22 752.91 903.71 802.9 875.53 768.29C865.85 755.89 857.51 745.33 847.96 734.73C843.19 729.43 838.12 724.12 832.33 718.68C826.54 713.26 820.05 707.67 812.21 702.22C807.68 698.95 805.48 697.64 804.83 697.16C804.17 696.69 804.99 697.14 806.2 697.83C808.61 699.22 812.43 701.75 809.15 699.41C803.54 695.89 797.6 692.77 791.53 690.24C787.21 688.22 788.67 688.73 789.42 688.98C781.93 685.63 781.58 685.56 780.14 685.07C778.71 684.55 776.2 683.58 764.59 677.9C761.32 676.65 749.57 670.48 735.2 662.58C720.82 654.71 703.8 645.13 689.67 637.62C682.89 633.6 693.18 639.14 691.2 637.75C681.57 632.49 674.73 628.67 669.38 625.64C666.7 624.12 664.39 622.81 662.29 621.62C661.1 620.96 659.88 620.47 658.66 620.15C657.51 619.87 656.46 619.64 655.39 619.43C651.13 618.64 647.09 618.18 641.81 618.11C639.17 618.09 636.23 618.18 632.81 618.54C629.4 618.89 625.52 619.55 621.09 620.76C610.96 623.2 601.3 628.3 593.89 635.85C594.41 635.35 594.9 634.88 595.35 634.45C595.81 634.03 596.26 633.66 596.65 633.32C597.44 632.62 598.12 632.1 598.67 631.7C599.75 630.88 600.31 630.55 600.38 630.58C600.45 630.61 600.03 630.98 599.26 631.71C598.87 632.06 598.39 632.5 597.83 633.01C597.29 633.54 596.67 634.14 595.98 634.81C595.33 635.52 594.59 636.27 593.84 637.12C593.12 638 592.29 638.88 591.53 639.92C589.99 641.92 588.28 644.13 586.48 646.47C585.6 647.66 584.55 648.75 583.57 649.93C582.55 651.08 581.58 652.31 580.46 653.43C579.37 654.58 578.28 655.73 577.18 656.89C576.07 658.04 574.92 659.13 573.8 660.25C576.82 657.61 579.47 655.01 581.84 652.72C582.98 651.53 584.04 650.41 585.01 649.39C585.5 648.88 585.96 648.38 586.41 647.92C586.83 647.43 587.22 646.96 587.6 646.53C583.3 651.72 578.68 656.66 573.77 661.27C568.9 665.92 563.87 670.39 559.17 675.14C557.44 676.83 557.24 676.92 558.03 675.97C558.42 675.5 559.06 674.76 559.88 673.84C560.74 672.95 561.77 671.88 562.92 670.69C561.94 671.66 560.99 672.6 560.1 673.47C559.22 674.35 558.45 675.22 557.75 675.95C557.11 676.58 556.53 677.15 556.01 677.67C555.49 678.19 555.07 678.68 554.67 679.1C553.89 679.95 553.3 680.56 552.89 680.98C552.07 681.81 551.94 681.83 552.33 681.27C552.71 680.7 553.6 679.55 554.81 678.03C555.39 677.25 556.16 676.48 556.94 675.6C557.73 674.74 558.56 673.79 559.46 672.86C563.1 669.53 566.81 666.36 570.39 663.26C577.54 656.3 583.43 649.13 581.74 650.39C580.92 651.4 579.62 652.78 578.04 654.41C576.5 656.07 574.6 657.9 572.6 659.81C574.41 657.95 575.54 656.74 574.63 657.52C574.11 657.96 573.12 658.93 571.68 660.37C570.21 661.79 568.27 663.67 565.9 665.95L562.27 668.8L558.67 671.73C558.19 672.3 557.73 672.92 557.27 673.52C555.7 675.1 554.1 676.65 552.65 678.37L550.42 680.89L548.36 683.57L547.33 684.91L546.82 685.58L546.36 686.29L544.53 689.14C543.23 690.99 542.31 693.06 541.23 695.04C537.18 703.12 534.7 711.82 532.9 720.56C532.56 722.93 532.22 725.28 531.88 727.61C531.54 729.94 531.33 732.22 531.03 734.51C530.47 739.09 529.85 743.65 529.21 748.26C527.91 757.48 526.44 766.88 524.92 776.99C523.42 787.1 521.82 797.91 520.82 809.99C520.33 816.03 520.06 822.39 520.23 829.11C520.34 832.47 520.53 835.91 520.97 839.43C521.39 842.95 521.98 846.55 522.9 850.19C522.66 849.29 522.44 848.49 522.25 847.78C522.08 847.07 521.93 846.44 521.8 845.9C521.53 844.82 521.34 844.07 521.22 843.58C520.96 842.59 520.86 842.65 520.82 843.14C520.7 844.13 521 846.88 520.62 846.54C520 842.42 519.44 837.43 519.22 831.77C518.99 826.11 519.08 819.79 519.56 813.04C520.46 799.53 522.81 784.36 525.53 769.07C522.72 785.04 523.06 781.49 523.63 777.39C522.2 786.52 520.82 795.69 519.9 804.94C518.99 814.18 518.45 823.52 519.03 832.86C518.77 832.24 518.71 835.23 519.23 840.21C519.73 845.18 520.99 852.16 523.5 859.19C523.11 857.83 523.13 857.41 523.34 857.8C523.54 858.19 524.07 859.34 524.82 861.09C525.6 862.82 526.79 865.06 528.09 867.74C529.67 870.27 531.32 873.3 533.61 876.21C537.98 882.19 543.99 888.12 549.84 893.44C552.74 896.13 555.62 898.67 558.19 901.11C560.81 903.5 563.06 905.85 565.07 907.8C565.42 908.42 564.62 907.8 561.32 904.65C560.51 903.85 559.5 902.92 558.3 901.83C557.1 900.73 555.75 899.44 554.13 897.99C550.94 895.06 546.8 891.41 541.91 886.45C547.19 892.04 551.9 896.17 555.98 899.91C557.99 901.8 559.96 903.5 561.73 905.25C562.63 906.11 563.52 906.96 564.4 907.8C565.27 908.65 566.08 909.54 566.92 910.4C567.75 911.27 568.59 912.13 569.41 913.02C570.19 913.94 570.98 914.87 571.78 915.81C572.56 916.77 573.43 917.69 574.18 918.73C574.94 919.77 575.71 920.84 576.51 921.94C579.7 926.34 582.7 931.66 585.8 938.35C584.3 935.38 583.14 933.1 582.21 931.27C581.17 929.5 580.33 928.2 579.59 927.11C581.73 930.34 584.2 935.02 586.58 940.09C587.67 942.68 588.79 945.34 589.9 947.94C590.45 949.28 590.99 950.6 591.52 951.9C592.11 953.17 592.7 954.41 593.26 955.61C597.96 965.15 603.49 970.59 600.25 967.19C599.49 966.32 598.84 965.38 598.16 964.45C597.83 963.98 597.47 963.53 597.16 963.04L596.24 961.59C596.62 962.19 596.99 962.82 597.41 963.43C597.84 964.03 598.28 964.64 598.73 965.26C598.95 965.57 599.18 965.88 599.4 966.19C599.65 966.49 599.89 966.79 600.14 967.09C600.64 967.69 601.15 968.31 601.66 968.93C603.83 971.32 606.31 973.65 609.13 975.72C611.95 977.8 615.1 979.6 618.39 981.19C621.68 982.79 625.09 984.19 628.43 985.73C631.76 987.27 635.02 988.97 637.89 991.2C640.77 993.41 643.25 996.11 645.24 999.16C647.23 1002.22 648.81 1005.57 650.01 1009.03C650.35 1009.88 650.57 1010.78 650.86 1011.64C651.12 1012.52 651.42 1013.38 651.62 1014.27C652.06 1016.06 652.5 1017.83 652.93 1019.59C656.37 1033.91 661.08 1046.53 664.33 1056.14C665.98 1060.94 667.3 1064.99 668.26 1068.04C668.73 1069.57 669.11 1070.84 669.42 1071.84C669.71 1072.83 669.93 1073.54 670.08 1073.93C670.08 1074.16 669.51 1072.8 668.79 1071.09C668.07 1069.38 667.21 1067.32 666.74 1066.06C668.83 1072.28 670.66 1078.59 671.38 1085.02C671.69 1088.23 671.67 1091.46 671.02 1094.59C670.38 1097.71 669.02 1100.69 666.96 1103.18C664.93 1105.71 662.16 1107.59 659.27 1109.14L657.05 1110.24L654.74 1111.14L653.58 1111.59L652.39 1111.95L650 1112.67C643.58 1114.44 636.92 1115.18 630.31 1115.87C633.79 1115.28 628.78 1114.99 627.53 1114.47C626.9 1114.21 627.21 1113.93 629.96 1113.53C631.34 1113.33 633.32 1113.1 636.09 1112.76C637.47 1112.58 639.07 1112.43 640.84 1112.13C642.62 1111.85 644.63 1111.61 646.82 1111.11C641.76 1112.04 635.9 1112.55 628.56 1112.97C621.22 1113.38 612.39 1113.61 601.21 1113.78C608.44 1113.87 619.23 1114.61 609.36 1114.83C595.79 1114.55 591.08 1114.4 585.57 1114.36C582.81 1114.34 579.86 1114.31 575.5 1114.33C571.13 1114.37 565.36 1114.36 556.92 1114.82C562.39 1114.51 562.09 1114.87 558.3 1115.42C554.51 1116.02 547.21 1116.8 538.75 1118.55C540.05 1118.2 539.65 1117.99 539.68 1117.7C539.72 1117.41 540.2 1117.01 543.33 1116.42C539.78 1117.1 536.24 1117.94 532.77 1119.05C529.3 1120.16 525.88 1121.52 522.68 1123.36C519.48 1125.17 516.49 1127.49 514.13 1130.38C511.75 1133.25 510.11 1136.71 509.32 1140.29C509.45 1139.61 509.66 1139.04 509.79 1138.52C509.92 1138 510.08 1137.56 510.22 1137.19C510.47 1136.44 510.63 1135.95 510.72 1135.68C510.89 1135.15 510.54 1135.44 510.01 1136.4C509.48 1137.35 508.69 1138.97 508.15 1141.04C507.59 1143.1 507.22 1145.59 507.16 1148.12C507.2 1147.53 507.19 1147.71 507.23 1148.47C507.26 1149.24 507.31 1150.6 507.52 1152.38C507.61 1153.27 507.79 1154.26 507.94 1155.34C508.16 1156.4 508.34 1157.57 508.65 1158.77C508.8 1159.37 508.95 1159.99 509.1 1160.63C509.27 1161.25 509.45 1161.88 509.63 1162.52C510 1163.8 510.38 1165.14 510.77 1166.5C512.45 1171.91 514.52 1177.72 516.58 1182.77C517.62 1185.29 518.64 1187.63 519.55 1189.67C520.5 1191.69 521.31 1193.41 521.93 1194.71C519.39 1189.18 517.06 1183.56 514.96 1177.85C519.3 1189.21 523.43 1197.31 527.1 1203.87C530.79 1210.42 534.04 1215.45 537.46 1220.32C540.86 1225.21 544.43 1229.96 549.1 1235.74C553.8 1241.5 559.58 1248.34 568.18 1256.67C566.02 1254.74 563.22 1252.47 563.13 1252.82C563.07 1253.01 563.66 1253.89 565.4 1255.76C567.12 1257.65 569.96 1260.58 574.65 1264.56C575.79 1265.4 577.22 1266.55 579.08 1267.77C580 1268.4 580.99 1269.08 582.06 1269.81C583.13 1270.53 584.33 1271.23 585.57 1272.02C590.57 1275.07 596.91 1278.57 604.56 1281.36C606.48 1282.02 608.43 1282.78 610.52 1283.29C611.55 1283.58 612.6 1283.86 613.65 1284.16C614.72 1284.38 615.81 1284.6 616.91 1284.82C617.46 1284.93 618.01 1285.04 618.56 1285.16C619.11 1285.27 619.68 1285.31 620.25 1285.39C621.38 1285.53 622.52 1285.67 623.68 1285.82C624.84 1285.92 626.01 1285.93 627.19 1286C627.78 1286.03 628.37 1286.05 628.96 1286.08C629.55 1286.1 630.15 1286.04 630.75 1286.02C631.94 1285.97 633.15 1285.92 634.36 1285.87C635.56 1285.71 636.77 1285.55 637.99 1285.4C638.6 1285.31 639.21 1285.26 639.82 1285.14C640.43 1285.02 641.04 1284.89 641.65 1284.77C642.87 1284.5 644.12 1284.32 645.33 1283.97C650.24 1282.83 655.09 1281.08 659.65 1278.71C660.86 1278.2 661.99 1277.51 663.17 1276.92C664.32 1276.27 665.41 1275.54 666.54 1274.84C670.73 1271.61 674.31 1267.66 677.44 1263.36C680.58 1259.06 683.27 1254.4 686.04 1249.75C684.82 1251.97 683.33 1254.67 681.54 1257.71C679.75 1260.74 677.62 1264.09 674.96 1267.43C672.3 1270.77 669.04 1274.09 665.11 1276.9C661.19 1279.73 656.62 1282.03 651.74 1283.74C646.85 1285.43 641.74 1286.73 636.51 1287.33L634.55 1287.59L632.59 1287.68C631.28 1287.72 629.97 1287.84 628.67 1287.8C627.37 1287.74 626.07 1287.68 624.79 1287.62L623.82 1287.57L622.87 1287.45C622.23 1287.37 621.6 1287.29 620.97 1287.2C618.43 1286.96 616 1286.33 613.6 1285.84C612.41 1285.56 611.26 1285.18 610.11 1284.86C608.96 1284.52 607.82 1284.23 606.74 1283.79C604.57 1282.98 602.42 1282.26 600.47 1281.33C599.48 1280.89 598.51 1280.46 597.56 1280.04C596.63 1279.59 595.74 1279.11 594.86 1278.66C602.93 1283.07 604.26 1283.33 606.48 1284.34C607.59 1284.86 609.04 1285.29 611.84 1286.21C614.66 1287.03 618.92 1288.26 625.89 1288.87C628.35 1289.13 628.63 1289.22 627.53 1289.2C626.43 1289.14 623.93 1289.16 620.92 1288.63C620.16 1288.52 619.37 1288.4 618.56 1288.28C617.75 1288.15 616.94 1287.93 616.1 1287.75C614.44 1287.36 612.72 1287.02 611.14 1286.47C609.55 1285.95 607.97 1285.54 606.63 1284.99C605.28 1284.46 604.08 1283.99 603.12 1283.61L606.89 1285.12C608.15 1285.61 609.47 1285.98 610.75 1286.41L612.69 1287.03L614.67 1287.52C616 1287.83 617.31 1288.2 618.65 1288.45C624.02 1289.49 629.52 1289.84 635.02 1289.58L639.13 1289.16L640.16 1289.05L641.16 1288.87L643.16 1288.52L645.16 1288.17C645.82 1288.03 646.48 1287.86 647.15 1287.71L649.13 1287.23L650.12 1286.99L651.1 1286.69C656.35 1285.19 661.51 1283.02 666.19 1279.99C665.84 1280.13 666.23 1279.77 667.17 1279.05C667.63 1278.68 668.26 1278.25 668.96 1277.69C669.64 1277.11 670.43 1276.44 671.3 1275.7C672.15 1274.94 673.03 1274.05 674 1273.13C674.91 1272.16 675.88 1271.13 676.83 1270.03C678.71 1267.8 680.59 1265.31 682.3 1262.74C685.74 1257.61 688.68 1252.32 690.93 1248.57C693.14 1244.81 694.56 1242.53 694.12 1242.94C691.05 1247.65 688.26 1252.59 685.26 1257.48C683.78 1259.93 682.17 1262.35 680.51 1264.73C678.77 1267.07 677 1269.42 674.94 1271.55C672.95 1273.74 670.7 1275.69 668.36 1277.53C665.95 1279.28 663.45 1280.91 660.78 1282.22C655.48 1284.91 649.8 1286.68 644.07 1287.88C643.7 1287.86 644.05 1287.7 645.01 1287.43C645.97 1287.12 647.54 1286.62 649.64 1286C651.71 1285.27 654.31 1284.4 657.24 1283.05C657.99 1282.76 658.72 1282.35 659.48 1281.96C660.24 1281.56 661.04 1281.17 661.83 1280.72C663.39 1279.76 665.06 1278.79 666.67 1277.55C669.94 1275.16 673.2 1272.13 676.18 1268.53C679.18 1264.93 681.9 1260.8 684.56 1256.45C687.23 1252.09 689.84 1247.5 692.79 1242.98C695.72 1238.46 698.99 1234.02 702.73 1229.95C704.66 1227.9 705.41 1227.41 705.31 1227.66C705.27 1227.79 705.03 1228.12 704.67 1228.58C704.33 1229.06 703.87 1229.67 703.35 1230.34C701.25 1232.98 698.67 1236.84 699.05 1236.56C699.46 1235.98 700.14 1235.02 701.11 1233.84C701.59 1233.25 702.11 1232.58 702.71 1231.88C703.32 1231.19 703.99 1230.45 704.69 1229.67C707.54 1226.59 711.31 1223.11 715.38 1220.08C719.42 1217.01 723.83 1214.55 727.36 1212.64C729.17 1211.77 730.76 1211.01 732 1210.42C733.25 1209.84 734.2 1209.51 734.67 1209.32C729.01 1211.87 723.56 1214.82 718.51 1218.34C723.58 1215.04 728.49 1212.51 733.31 1210.26C738.13 1208.11 743.07 1206.15 747.98 1203.98C757.87 1199.71 768.2 1194.91 781.99 1189.29C786.71 1187.28 793.84 1184.48 800.03 1182.25C806.21 1180 811.44 1178.38 812.22 1177.92C810.22 1178.47 808.41 1178.97 806.81 1179.41C805.2 1179.83 803.78 1180.19 802.57 1180.48C800.13 1181.04 798.47 1181.27 797.63 1181.2C795.94 1181.06 797.48 1179.61 802.64 1177.36C803.06 1177.2 804.18 1176.81 805.85 1176.24C806.68 1175.96 807.65 1175.63 808.73 1175.26C809.82 1174.92 811.02 1174.54 812.32 1174.13C817.53 1172.54 824.37 1170.67 831.65 1169.7C838.91 1168.68 846.71 1168.97 852.96 1170.96C856.04 1172.06 858.78 1173.33 860.83 1174.83C862.99 1176.19 864.41 1177.76 865.52 1178.73C868.29 1181.99 868.48 1182.47 867.45 1181.57C866.93 1181.12 866.1 1180.33 865.11 1179.37C864.56 1178.95 863.97 1178.49 863.35 1178.01C862.72 1177.54 862.13 1176.99 861.4 1176.61C860.7 1176.2 860 1175.78 859.32 1175.37C858.65 1174.95 857.9 1174.72 857.26 1174.41C856.6 1174.14 856 1173.84 855.44 1173.66C854.87 1173.51 854.38 1173.37 853.99 1173.27C852.41 1172.88 852.45 1173.02 855.6 1174.34C855.75 1174.36 856.36 1174.62 857.25 1175.01C857.69 1175.21 858.22 1175.42 858.76 1175.71C859.28 1176.03 859.85 1176.39 860.43 1176.75C862.81 1178.18 865.11 1180.41 866.35 1181.82C867.25 1182.76 867.7 1183.57 868.06 1184.1C868.41 1184.64 868.6 1184.95 868.7 1185.15C868.91 1185.54 868.76 1185.45 868.84 1185.66C868.88 1185.77 868.98 1185.95 869.21 1186.3C869.4 1186.68 869.7 1187.25 870.17 1188.11C870.63 1188.98 871.34 1190.09 872.02 1191.76C872.39 1192.58 872.81 1193.5 873.28 1194.54C873.67 1195.62 874.1 1196.83 874.58 1198.18C874.83 1198.6 875.26 1199.6 875.7 1201.03C876.15 1202.45 876.77 1204.22 877.28 1206.19C877.82 1208.14 878.39 1210.25 878.84 1212.3C879.34 1214.34 879.73 1216.32 880.06 1217.99C880.74 1221.33 881.03 1223.46 880.91 1222.49C880.82 1222.01 880.68 1220.74 880.25 1218.5C880.04 1217.38 879.8 1216 879.47 1214.35C879.1 1212.71 878.74 1210.78 878.2 1208.57C879.63 1214.09 880.53 1218.37 881.16 1222.08C881.5 1223.93 881.77 1225.64 882 1227.3C882.25 1228.95 882.46 1230.55 882.65 1232.18C883.43 1238.71 884.05 1245.74 884.87 1259.19C884.84 1254.89 885.53 1260.91 886.59 1270.87C887.15 1275.85 887.85 1281.81 889.02 1287.87C890.14 1293.94 891.92 1300.05 894.13 1305.32C893.82 1304.72 894.02 1305.66 894.54 1307C895.06 1308.34 895.77 1310.12 896.35 1311.23C899.11 1316.44 902.45 1320.93 906.06 1324.78C909.72 1328.61 913.5 1331.91 916.92 1335.33C923.83 1342.09 929.98 1348.59 936.07 1355C948.18 1367.89 959.8 1380.68 974.48 1396.99C977.08 1400.1 991 1416.05 984.79 1409.51C989.07 1414.15 993.1 1418.32 1002.05 1428.48C1010.46 1438.52 1005.47 1432.86 999.96 1426.63C994.43 1420.41 988.37 1413.62 994.71 1421.34C995.42 1421.85 1001.32 1428.31 1008.61 1436.48C1012.24 1440.58 1016.24 1445.08 1020.12 1449.47C1022.08 1451.67 1023.9 1453.84 1025.84 1455.91C1026.37 1456.4 1026.87 1456.97 1027.41 1457.37C1027.94 1457.79 1028.47 1458.21 1028.99 1458.61C1030.06 1459.38 1031.07 1460.16 1032.1 1460.81C1031.51 1460.34 1030.53 1459.55 1029.22 1458.5C1028.59 1457.95 1027.85 1457.38 1027.08 1456.67C1026.33 1455.91 1025.51 1455.09 1024.78 1454.18C1021.71 1450.55 1017.78 1446.03 1013.55 1441.22C1005.09 1431.6 995.38 1420.86 988.88 1413.73C989.02 1413.57 990.57 1414.99 993.28 1417.74C995.98 1420.5 999.87 1424.57 1004.66 1429.77C1009.46 1434.95 1015.18 1441.25 1021.58 1448.41C1023.17 1450.21 1024.82 1452.05 1026.5 1453.95C1028.07 1455.71 1030.17 1457.22 1032.3 1458.74C1036.61 1461.7 1041.41 1464.37 1046.64 1466.48C1054.96 1469.84 1060.42 1470.63 1063.58 1471.17C1066.77 1471.62 1067.79 1471.71 1067.87 1471.79C1068.04 1471.96 1064.51 1471.87 1067.63 1472.02C1071.84 1472.34 1075.78 1472.22 1079.4 1471.73C1079.85 1471.68 1080.3 1471.62 1080.75 1471.57C1081.19 1471.49 1081.63 1471.41 1082.06 1471.33C1082.92 1471.16 1083.78 1471.04 1084.61 1470.85C1086.25 1470.42 1087.86 1470.1 1089.34 1469.58C1095.36 1467.7 1100.16 1465.19 1104.15 1462.68C1112.1 1457.57 1116.95 1452.62 1121.27 1447.82C1122.31 1446.58 1123.34 1445.35 1124.37 1444.12C1125.39 1442.88 1126.34 1441.55 1127.36 1440.24C1128.4 1438.94 1129.34 1437.49 1130.38 1436.02C1130.89 1435.29 1131.41 1434.54 1131.94 1433.77C1132.17 1433.42 1132.38 1433.05 1132.57 1432.66C1132.67 1432.47 1132.76 1432.28 1132.85 1432.07C1132.95 1431.84 1133.05 1431.61 1133.15 1431.38C1134.78 1427.71 1136.47 1423.55 1138.25 1418.62C1139.13 1416.15 1140.04 1413.49 1140.97 1410.58C1141.92 1407.67 1142.87 1404.52 1144.19 1401.1C1145.29 1398.4 1146.45 1396.37 1147.58 1395.04C1148.11 1394.35 1148.66 1393.87 1149.06 1393.45C1149.52 1393.08 1149.88 1392.8 1150.15 1392.6C1150.7 1392.2 1150.95 1392.17 1150.91 1392.26C1150.89 1392.36 1150.6 1392.61 1150.27 1393.01C1148.72 1394.49 1146.71 1398.25 1148.29 1396.22C1147.24 1397.78 1146.44 1399.43 1145.82 1401.07C1145.17 1402.71 1144.64 1404.33 1144.13 1405.91C1143.12 1409.07 1142.21 1412.07 1141.26 1414.9C1139.37 1420.57 1137.37 1425.58 1135.28 1430.23C1134.74 1431.37 1134.27 1432.57 1133.69 1433.62C1133.11 1434.67 1132.31 1435.62 1131.61 1436.61C1130.89 1437.59 1130.18 1438.56 1129.47 1439.53C1128.74 1440.48 1127.97 1441.39 1127.22 1442.32C1124.25 1446.05 1121 1449.52 1117.4 1452.99C1123.45 1447.44 1128.71 1441.01 1133.4 1434.26C1130.82 1438.16 1126.58 1444.17 1121.43 1449.61C1118.86 1452.33 1116.13 1454.95 1113.39 1457.17C1112.02 1458.28 1110.72 1459.36 1109.39 1460.25C1108.09 1461.18 1106.88 1462.04 1105.71 1462.71C1106.21 1462.4 1106.8 1462.08 1107.41 1461.67C1108.02 1461.25 1108.68 1460.79 1109.4 1460.28C1110.87 1459.31 1112.43 1458 1114.22 1456.59C1117.69 1453.63 1121.73 1449.82 1125.78 1445.01C1127.76 1442.58 1129.87 1440 1131.86 1437.14C1132.37 1436.43 1132.88 1435.72 1133.4 1435C1133.9 1434.26 1134.34 1433.46 1134.7 1432.62C1135.43 1430.96 1136.21 1429.28 1136.91 1427.53C1138.37 1424.06 1139.74 1420.41 1141.02 1416.64C1142.32 1412.87 1143.47 1408.95 1144.76 1405.02C1145.4 1403.05 1146.11 1401.09 1147.01 1399.2C1147.91 1397.32 1149.06 1395.52 1150.62 1394.11C1152.17 1392.69 1154.08 1391.7 1156.08 1390.99C1158.09 1390.28 1160.19 1389.88 1162.3 1389.51C1166.53 1388.87 1170.83 1388.61 1175.1 1388.44C1179.37 1388.29 1183.62 1388.21 1187.82 1388.18C1192.02 1388.18 1196.17 1388.17 1200.23 1388.16C1204.29 1388.18 1208.26 1388.36 1212.07 1388.95C1215.87 1389.53 1219.53 1390.51 1222.63 1392.28C1224.21 1393.11 1225.57 1394.22 1226.79 1395.4C1227.37 1396.02 1227.95 1396.62 1228.43 1397.31C1228.96 1397.95 1229.36 1398.67 1229.79 1399.36C1231 1401.32 1232.06 1403.88 1232.81 1406.47C1233.57 1409.06 1234.09 1411.68 1234.43 1413.78C1235.11 1417.99 1235.4 1420.11 1235.07 1416.28C1234.36 1410.77 1233.37 1405.16 1230.8 1400.16C1230.41 1399.27 1230 1398.67 1229.77 1398.22C1229.53 1397.77 1229.37 1397.51 1229.31 1397.41C1229.2 1397.2 1229.56 1397.55 1230.09 1398.36C1230.36 1398.76 1230.72 1399.25 1231.03 1399.86C1231.36 1400.46 1231.74 1401.14 1232.05 1401.9C1232.21 1402.28 1232.38 1402.67 1232.56 1403.07C1232.71 1403.48 1232.86 1403.9 1233.01 1404.32C1233.33 1405.16 1233.56 1406.05 1233.82 1406.91C1234.79 1410.4 1235.26 1413.79 1235.49 1414.95C1235.65 1416.12 1235.71 1415.07 1234.8 1409.78C1235.95 1415.35 1236.52 1421.15 1237.01 1427.15C1237.49 1433.15 1237.86 1439.37 1238.31 1445.87C1238.53 1449.11 1238.77 1452.44 1239.04 1455.82C1239.27 1457.45 1239.36 1459.12 1239.77 1460.77C1239.95 1461.6 1240.09 1462.44 1240.3 1463.27C1240.53 1464.1 1240.76 1464.93 1241 1465.77C1241.21 1466.61 1241.49 1467.45 1241.79 1468.28C1242.08 1469.12 1242.37 1469.96 1242.66 1470.81C1243.35 1472.47 1243.97 1474.18 1244.75 1475.86C1245.52 1477.54 1246.28 1479.25 1247.17 1480.93C1247.6 1481.78 1248.04 1482.63 1248.48 1483.48C1248.95 1484.32 1249.42 1485.17 1249.89 1486.03C1250.65 1487.85 1251.54 1489.61 1252.38 1491.4C1252.33 1491.23 1251.66 1490.04 1250.6 1488.23C1250.07 1487.33 1249.51 1486.24 1248.85 1485.06C1248.18 1483.89 1247.52 1482.58 1246.83 1481.21C1246.49 1480.53 1246.13 1479.83 1245.78 1479.12C1245.45 1478.4 1245.12 1477.68 1244.79 1476.95C1244.46 1476.22 1244.11 1475.5 1243.8 1474.77C1243.5 1474.04 1243.21 1473.31 1242.92 1472.59C1242.3 1471.17 1241.84 1469.76 1241.38 1468.46C1240.89 1467.17 1240.56 1465.95 1240.25 1464.91C1241.1 1468.03 1242.65 1472.38 1244.84 1477.23C1247.02 1482.09 1249.89 1487.43 1253.1 1492.62C1259.52 1503.01 1267.26 1512.75 1272.18 1518C1267.56 1512.27 1263.14 1506.4 1259.02 1500.34C1272.2 1518.46 1291.54 1538.45 1311.87 1557.48C1307.43 1552.94 1306.28 1551.83 1304.46 1550.12C1302.68 1548.38 1300.19 1546.07 1293.52 1538.76C1299.27 1545.14 1286.52 1532.67 1275.83 1520.12C1265.05 1507.65 1256.5 1495.14 1264.21 1506.51C1258.41 1498.21 1253.64 1490.88 1249.17 1482.58C1246.99 1478.41 1244.92 1473.97 1243.22 1468.97C1242.81 1467.72 1242.36 1466.45 1242.06 1465.11C1241.89 1464.45 1241.72 1463.78 1241.54 1463.1C1241.36 1462.42 1241.28 1461.73 1241.14 1461.03C1241.02 1460.33 1240.87 1459.62 1240.77 1458.91C1240.7 1458.19 1240.64 1457.47 1240.57 1456.73C1240.54 1456.36 1240.5 1455.99 1240.47 1455.62C1240.45 1455.22 1240.43 1454.83 1240.41 1454.42C1240.38 1453.61 1240.34 1452.8 1240.3 1451.97C1240.23 1452.39 1240.3 1454.74 1240.19 1454.07C1240.09 1453.4 1239.77 1449.72 1239.19 1438C1239.07 1436.94 1238.86 1434.45 1238.73 1432.86C1238.7 1432.14 1238.68 1431.89 1238.66 1431.27C1238.68 1431.74 1238.69 1432.09 1238.71 1432.57C1238.62 1431.55 1238.61 1431.46 1238.73 1433.05C1238.95 1438.65 1239.09 1443.17 1239.09 1445.01C1238.8 1442.11 1238.48 1437.61 1238.11 1432.27C1237.73 1426.94 1237.33 1420.76 1236.47 1414.53C1236.04 1411.42 1235.44 1408.28 1234.55 1405.27C1233.66 1402.27 1232.43 1399.38 1230.74 1396.95C1229.07 1394.51 1226.95 1392.61 1224.89 1391.34C1224.39 1391 1223.85 1390.75 1223.36 1390.47C1222.87 1390.18 1222.38 1389.96 1221.9 1389.77C1221.43 1389.57 1220.97 1389.37 1220.54 1389.2C1220.1 1389.05 1219.68 1388.92 1219.29 1388.79C1215.82 1387.64 1214.4 1387.5 1214.18 1387.39C1213.96 1387.32 1214.9 1387.46 1216.06 1387.67C1218.36 1388.15 1221.45 1389.13 1217.64 1387.81C1211.19 1386.17 1204.69 1386.18 1198.39 1386.32C1196.55 1385.77 1161.24 1385.97 1194.19 1385.32C1189.25 1385.34 1184.31 1385.38 1179.36 1385.49C1174.4 1385.63 1169.43 1385.81 1164.37 1386.41C1162.13 1386.66 1159.77 1386.98 1157.3 1387.61C1154.84 1388.26 1152.19 1389.22 1149.79 1391C1147.34 1392.75 1145.6 1395.36 1144.4 1397.83C1143.19 1400.33 1142.36 1402.81 1141.57 1405.23C1140.03 1410.06 1138.61 1414.67 1137.08 1418.92C1135.55 1423.17 1134.02 1427.07 1132.56 1430.39C1132.38 1430.78 1132.21 1431.18 1132.03 1431.58C1131.87 1431.94 1131.71 1432.24 1131.53 1432.57C1131.34 1432.91 1131.17 1433.17 1130.91 1433.54C1130.64 1433.91 1130.38 1434.29 1130.11 1434.66C1129.02 1436.15 1127.99 1437.74 1126.84 1439.18C1125.7 1440.62 1124.64 1442.07 1123.57 1443.36C1122.49 1444.63 1121.48 1445.81 1120.6 1446.84C1116.91 1450.78 1115.39 1452.4 1119.4 1448.05C1114.24 1453.52 1108.45 1458.37 1102.06 1462.21L1099.62 1463.56C1099.21 1463.78 1098.81 1464.02 1098.4 1464.23L1097.14 1464.82C1096.3 1465.21 1095.47 1465.63 1094.61 1465.99L1092.02 1467.01C1088.53 1468.26 1084.96 1469.33 1081.29 1469.89L1080.87 1469.85C1070.03 1471.51 1058.6 1469.96 1048.01 1465.76C1045.37 1464.68 1042.76 1463.49 1040.23 1462.12C1037.71 1460.74 1035.24 1459.22 1032.88 1457.55L1031.13 1456.26L1029.43 1454.91C1029.12 1454.68 1028.94 1454.46 1028.71 1454.24L1028.04 1453.58C1027.58 1453.12 1027.06 1452.47 1026.57 1451.93C1024.59 1449.65 1022.59 1447.36 1020.59 1445.07C1004.52 1426.75 987.92 1407.81 970.67 1388.14C960.22 1376.81 949.48 1365.07 931.67 1346.37C930.61 1345.07 929.52 1343.78 928.43 1342.49C924.93 1338.97 920.57 1334.56 915.74 1329.94C914.53 1328.79 913.29 1327.62 912.05 1326.44C910.9 1325.28 909.67 1324.18 908.56 1322.96C907.46 1321.74 906.32 1320.54 905.33 1319.24C904.83 1318.6 904.29 1317.98 903.83 1317.32C903.37 1316.66 902.9 1316 902.44 1315.34C898.8 1310.07 896.44 1304.42 894.86 1299.68C893.31 1294.92 892.52 1291.04 892.03 1289.02C891.27 1283.88 890.46 1275.43 889.88 1264.95C889.27 1254.48 888.69 1241.96 886.85 1229.07C885.94 1222.63 884.72 1216.1 883.15 1209.73C882.36 1206.55 881.53 1203.39 880.58 1200.32C880.35 1199.55 880.12 1198.78 879.89 1198.02C879.62 1197.25 879.34 1196.48 879.07 1195.71C878.51 1194.18 878.03 1192.64 877.31 1191.19C874.78 1185.29 871.28 1179.88 866.86 1175.86C862.48 1171.8 857.35 1169.35 852.79 1168.1L851.28 1168.26C845 1166.79 838.67 1166.91 832.55 1167.72C826.41 1168.55 820.41 1170.07 814.38 1171.95C802.32 1175.74 790.12 1180.94 776.53 1186.96L778.39 1186.64C766.68 1191.91 751.72 1198.61 734.63 1205.25C733.55 1205.69 732.47 1206.14 731.38 1206.59C730.3 1207.06 729.24 1207.59 728.15 1208.1C725.97 1209.07 723.86 1210.27 721.71 1211.42C717.49 1213.87 713.27 1216.58 709.37 1219.81C705.46 1223.02 701.78 1226.63 698.45 1230.56C695.12 1234.49 692.14 1238.72 689.38 1243.04C690.05 1241.82 691.82 1239.02 694.11 1235.87C696.42 1232.73 699.3 1229.26 701.93 1226.6C697.56 1231.02 693.69 1236.02 690.2 1241.24C686.71 1246.46 683.6 1251.9 680.26 1257.07C678.6 1259.67 676.83 1262.15 674.98 1264.55C673.07 1266.88 671.08 1269.14 668.85 1271.12C664.44 1275.15 659.2 1278.15 653.61 1280.29C652.22 1280.86 650.76 1281.24 649.34 1281.73C647.9 1282.17 646.42 1282.49 644.97 1282.87C642.02 1283.51 639.05 1284.07 636.12 1284.33C630.24 1284.9 624.33 1284.51 618.64 1283.37C612.94 1282.24 607.52 1280.23 602.41 1277.88C597.28 1275.55 592.55 1272.63 588.13 1269.57C579.18 1263.62 573.38 1258.28 568.06 1252.92C568.78 1253.62 569.43 1254.24 569.99 1254.78C569.2 1254.01 568.03 1252.86 566.83 1251.68C565.18 1249.96 563.56 1248.16 561.88 1246.32C560.27 1244.41 558.55 1242.52 556.89 1240.44C559.73 1243.97 562.58 1247.23 565.17 1249.97C559.37 1244 551.04 1234.43 543.96 1224.2C543.1 1222.65 542.2 1221.13 541.4 1219.55C540.85 1218.71 540.4 1218.03 539.83 1217.15C536.65 1211.96 535.39 1209.87 535.21 1209.84C535.04 1209.81 536.03 1211.8 537.57 1214.68C536.74 1213.35 535.92 1212.06 535.13 1210.8C534.34 1209.54 533.63 1208.28 532.91 1207.09C531.46 1204.72 530.25 1202.48 529.14 1200.55C527.18 1195.98 523.47 1188.72 520.2 1180.76C516.9 1172.84 514.04 1164.16 512.86 1157.61C512.36 1155.67 511.07 1150.89 511.5 1144.88C511.59 1143.38 511.89 1141.84 512.28 1140.27C512.72 1138.71 513.33 1137.16 514.13 1135.65C515.78 1132.67 518.27 1129.97 521.3 1127.91C522.8 1126.86 524.4 1125.94 526.06 1125.15C527.7 1124.34 529.4 1123.66 531.08 1123.06C534.45 1121.87 537.76 1121.03 540.73 1120.38C546.69 1119.11 551.3 1118.52 552.93 1118.14C553.15 1118.17 554.17 1118.11 554.3 1118.14C554.43 1118.16 553.67 1118.22 550.33 1118.6C564.14 1117.14 578.1 1117.22 590.62 1116.9L596.55 1117.49C606.72 1117.17 616.93 1116.86 627.11 1116.07C631.76 1115.93 635.73 1115.7 638.78 1115.47C641.84 1115.22 643.99 1114.96 644.97 1114.93C645.95 1114.82 645.79 1115 644.21 1115.29C642.63 1115.59 639.63 1116.15 635.02 1116.62C637.81 1116.36 640.39 1116.05 642.81 1115.66C645.23 1115.36 647.44 1114.83 649.5 1114.42C653.58 1113.37 657.03 1112.32 659.87 1110.86C665.62 1108.15 669.08 1104.62 671.21 1100.78C671.47 1100.29 671.73 1099.81 671.99 1099.33C672.19 1098.82 672.38 1098.31 672.58 1097.8C673.02 1096.79 673.25 1095.71 673.52 1094.61C673.58 1094.33 673.66 1094.06 673.72 1093.77C673.76 1093.49 673.8 1093.2 673.84 1092.91C673.92 1092.33 674 1091.74 674.08 1091.13C674.15 1090.52 674.14 1089.9 674.17 1089.26C674.17 1088.62 674.25 1087.96 674.2 1087.29C674.15 1084.58 673.79 1081.57 673.15 1078.09C672.45 1074.63 671.44 1070.7 670.04 1066.16C670.34 1066.72 670.65 1067.27 670.93 1067.84C669.11 1061.26 666.14 1052.98 663.49 1045.32C660.83 1037.67 658.61 1030.59 657.72 1026.63C657.27 1024.8 656.73 1022.65 656.18 1020.17C655.64 1017.72 655.03 1014.87 654.2 1011.76C653.73 1010.22 653.31 1008.59 652.66 1006.95C652.34 1006.13 652.08 1005.27 651.7 1004.43C651.33 1003.59 650.94 1002.74 650.56 1001.87C648.89 998.45 646.67 994.93 643.63 991.78C640.59 988.64 636.73 986.03 632.55 983.93C628.37 981.81 623.93 980.08 619.59 977.96C615.28 975.82 611.05 973.26 607.39 969.83C603.69 966.45 600.51 962.33 597.89 957.75C597.27 956.58 596.6 955.44 596 954.24C595.43 953.03 594.85 951.82 594.28 950.6C593.77 949.35 593.25 948.1 592.73 946.84C592.19 945.55 591.65 944.26 591.1 942.97C590.55 941.67 590 940.37 589.45 939.07C589.16 938.42 588.92 937.75 588.6 937.12L587.64 935.22C587 933.95 586.35 932.68 585.71 931.4L584.74 929.49L583.64 927.64C577.95 917.67 570.5 908.59 562.32 900.67C554.16 892.74 545.53 885.67 538.9 877.48C538.48 876.97 538.05 876.48 537.64 875.97L536.51 874.38C535.76 873.32 535.01 872.27 534.27 871.23C533.62 870.13 532.97 869.03 532.33 867.94L531.37 866.31C531.05 865.77 530.82 865.18 530.55 864.62C529.5 862.35 528.37 860.15 527.58 857.85C526.73 855.57 526.05 853.27 525.45 850.99C526.16 854.59 525.96 854.29 525.22 851.72C524.49 849.16 523.44 844.28 522.95 838.75C522.42 833.23 522.37 827.1 522.54 822.18C522.7 817.25 522.96 813.52 522.79 812.74C523.4 808.28 524.77 797.65 523.69 810.06C524.55 800.29 525.86 791.75 527.12 784.01C528.4 776.27 529.66 769.34 530.82 762.76C531.98 756.19 533.05 749.97 533.99 743.7C534.46 740.56 534.9 737.4 535.31 734.18C535.5 732.57 535.7 730.94 535.89 729.28C536.11 727.66 536.34 726.02 536.57 724.35C537.57 719.99 535.61 732.65 536.42 728.75C536.65 727.2 537.1 724.14 537.58 720.97C537.68 720.17 537.86 719.38 538.04 718.61C538.22 717.84 538.4 717.08 538.56 716.36C538.9 714.92 539.22 713.63 539.49 712.65C540.02 710.75 539.75 712.15 539.19 714.77C538.91 716.08 538.56 717.69 538.2 719.36C537.86 721.03 537.67 722.78 537.43 724.3C537.63 723.08 537.82 721.88 538.01 720.73C538.18 719.57 538.5 718.48 538.73 717.41C539.24 715.27 539.64 713.23 540.15 711.36C540.71 709.51 541.24 707.77 541.74 706.14C541.86 705.73 541.98 705.33 542.1 704.94C542.22 704.55 542.39 704.18 542.53 703.81C542.82 703.07 543.1 702.36 543.37 701.67C543.64 700.98 543.89 700.31 544.14 699.67C544.39 699.03 544.61 698.4 544.91 697.84C545.46 696.69 545.98 695.63 546.45 694.64C547.32 692.62 548.36 691.09 549.1 689.72C549.48 689.03 549.82 688.41 550.14 687.84C550.49 687.29 550.8 686.8 551.09 686.35C551.66 685.45 552.1 684.71 552.44 684.1C553.11 682.85 553.49 682.14 553.82 681.46C554.67 680.52 555.49 679.61 556.29 678.73C557.1 677.86 557.95 677.07 558.74 676.27C560.31 674.67 561.88 673.23 563.37 671.86C566.37 669.11 569.07 666.64 571.64 664.29C572.93 663.11 574.16 661.93 575.37 660.75C576.57 659.56 577.8 658.42 578.94 657.17C580.1 655.93 581.26 654.69 582.46 653.41C583.59 652.07 584.75 650.7 585.95 649.28C587.24 648.02 588.55 646.38 589.71 645.08C590.86 643.77 591.78 642.73 592.05 642.48C592.32 642.23 591.96 642.76 590.52 644.61C589.8 645.53 588.81 646.77 587.52 648.41C586.13 649.97 584.43 651.93 582.27 654.26C583.51 652.98 585.31 650.95 587.57 648.46C588.64 647.15 589.81 645.72 591.06 644.18C591.68 643.42 592.32 642.64 592.97 641.83C593.6 641.04 594.26 640.23 594.99 639.46C596.39 637.86 598.02 636.33 599.74 634.81C601.51 633.36 603.36 631.88 605.4 630.61C609.42 628.01 613.95 625.91 618.59 624.44C627.88 621.44 637.43 620.96 644.44 621.35C651.49 621.72 656.07 622.85 656.44 622.74C657.53 623.05 659.08 623.38 660.74 624.37C662.57 625.44 664.68 626.67 666.77 627.89C670.98 630.31 675.14 632.64 676.78 633.54C690.56 641.43 698.11 645.62 705.61 649.76C713.11 653.9 720.56 657.98 734.35 665.25L726.76 661.1C738 666.18 749.69 673.18 772.3 684.2L771.62 683.95C778.07 687.17 783.28 689.72 787.56 691.73C791.87 693.76 795.12 695.29 797.69 696.7C802.82 699.51 805.38 701.2 807.92 702.84C810.45 704.52 812.93 706.22 817.46 709.82C821.93 713.47 828.49 719.02 838.14 729.36L836.35 726.81C837.45 727.58 840.17 730.24 843.85 734.3C847.53 738.35 852.14 743.82 857.14 750.08C862.15 756.34 867.55 763.39 873.05 770.45C878.56 777.5 884.17 784.57 889.77 790.69C887.18 787.65 884.68 784.55 882.22 781.43C885.16 784.85 888.6 789.03 892.52 793.41C896.47 797.76 900.84 802.43 906.18 806.2C908.85 808.05 911.82 809.7 915.16 810.49L915.78 810.64L916.35 810.74L917.49 810.94C918.25 811.07 919 811.2 919.75 811.34C921.25 811.6 922.73 811.86 924.18 812.11C927.09 812.6 929.89 813.07 932.52 813.52C935.17 813.84 937.66 814.1 939.93 814.33C941.91 814.56 940.34 814.45 937.59 814.23C936.21 814.12 934.54 813.98 932.86 813.84C931.2 813.63 929.53 813.41 928.16 813.23C929.63 813.46 931.02 813.67 932.33 813.87C933.64 814.04 934.88 814.14 936.04 814.27C938.36 814.5 940.37 814.71 942.12 814.88C945.61 815.22 948.04 815.48 949.74 815.46C953.13 815.54 953.53 815.46 953.55 815.33C953.57 815.21 953.21 815.04 955.06 814.98C955.99 814.95 957.47 814.94 959.84 814.98C962.2 814.98 965.46 814.76 969.91 814.63C973.21 814.7 971.1 814.98 971.17 815.16C971.2 815.23 971.79 815.38 973.86 815.21C974.9 815.13 976.31 815.01 978.22 814.86C980.12 814.67 982.54 814.56 985.51 813.99C987 813.78 989.2 813.42 991.97 812.95C994.7 812.32 998.01 811.59 1001.69 810.63C1009.05 808.66 1017.87 805.76 1027.31 803.07C1036.73 800.27 1046.97 798.29 1056.87 796.96C1059.36 796.7 1061.81 796.44 1064.23 796.19C1065.44 796.08 1066.63 795.9 1067.82 795.86C1069.01 795.81 1070.19 795.76 1071.35 795.71C1073.67 795.62 1075.93 795.53 1078.11 795.44C1079.2 795.41 1080.27 795.35 1081.32 795.34C1082.37 795.36 1083.4 795.38 1084.41 795.41C1080.86 795.19 1077.33 795.34 1076.72 795.22C1076.41 795.17 1076.83 795.09 1078.35 794.96C1079.11 794.91 1080.14 794.8 1081.49 794.75C1082.84 794.73 1084.52 794.71 1086.56 794.69C1089.69 794.7 1093.09 794.72 1096.69 794.73C1100.31 794.83 1104.14 794.94 1108.09 795.04C1112.05 795.12 1116.13 795.2 1120.28 795.28C1124.42 795.31 1128.62 795.35 1132.8 795.33C1149.52 795.26 1165.97 794.45 1177.27 792.85C1180.47 792.61 1181.69 792.53 1181.83 792.57C1186.63 791.97 1192.92 791.09 1199.8 789.63C1201.52 789.23 1203.28 788.85 1205.05 788.33C1205.94 788.1 1206.84 787.82 1207.74 787.51C1208.61 787.24 1209.64 786.85 1210.54 786.35C1211 786.1 1211.44 785.84 1211.86 785.55C1212.29 785.26 1212.69 784.96 1213.04 784.71C1213.77 784.18 1214.5 783.64 1215.26 783.14C1216.75 782.1 1218.29 781.11 1219.82 780.14C1232.1 772.38 1244.58 766.77 1249.78 764.33C1254.02 763.03 1262.97 759.48 1274.42 756.09C1275.85 755.67 1277.32 755.23 1278.82 754.79C1280.35 754.28 1281.94 753.87 1283.5 753.25C1284.28 752.95 1285.07 752.64 1285.86 752.33C1286.66 752.03 1287.41 751.62 1288.2 751.26C1289.78 750.57 1291.28 749.64 1292.82 748.76C1295.8 746.84 1298.67 744.59 1301.13 741.91C1303.56 739.2 1305.59 736.15 1307.21 732.94C1310.27 726.44 1311.67 719.52 1312.09 713.19C1312.53 706.84 1312.3 701.01 1311.86 696.12C1311.68 693.66 1311.37 691.45 1311.19 689.48C1310.93 687.53 1310.71 685.83 1310.55 684.44C1310.19 681.67 1310.02 680.12 1310.22 680.14C1308.47 670.36 1306.12 660.74 1303.47 651.21C1300.83 641.68 1297.88 632.26 1294.78 622.89L1295.41 624.31C1289.56 606.33 1285.09 594.28 1281.15 585.31C1277.24 576.34 1274.03 570.41 1270.6 564.67C1269.55 562.73 1268.95 561.64 1268.63 561.1C1268.33 560.55 1268.35 560.54 1268.53 560.78C1268.71 561.02 1269.05 561.51 1269.37 561.99C1269.67 562.47 1269.96 562.93 1270.06 563.08C1263.13 550.99 1256.01 542.44 1248.73 536.69C1241.45 530.91 1234.35 527.9 1227.65 525.61C1220.94 523.29 1214.39 521.74 1207.66 518.15C1204.3 516.35 1200.98 513.95 1197.77 510.73C1194.48 507.39 1190.89 503.7 1186.73 499.66C1185.72 498.4 1184.72 497.12 1183.69 495.89C1182.54 494.81 1180.8 493.12 1178.56 490.91C1176.3 488.72 1173.51 486.02 1170.26 482.95C1163.77 476.8 1155.41 469.18 1145.67 461.14C1140.8 457.12 1135.59 452.99 1130.06 448.96C1128.67 447.96 1127.26 446.96 1125.85 445.95C1124.41 444.98 1122.99 443.96 1121.5 443.01C1120.03 442.04 1118.52 441.1 1116.99 440.17C1116.17 439.67 1115.24 439.21 1114.3 438.86C1113.83 438.68 1113.35 438.53 1112.86 438.4C1112.62 438.34 1112.37 438.27 1112.13 438.22L1111.49 438.07C1097.8 434.97 1084 431.19 1071.15 427.16C1071.67 427.27 1072.76 427.53 1076.86 428.75C1069.61 426.56 1062.06 424.07 1054.45 421.17C1046.84 418.28 1039.16 415 1031.77 411.17C1028.08 409.24 1024.46 407.18 1021.02 404.91C1017.59 402.64 1014.31 400.16 1011.51 397.36C1010.83 396.65 1010.11 395.96 1009.51 395.2L1008.57 394.09L1007.73 392.89C1007.2 392.11 1006.54 391.24 1005.93 390.42C1005.31 389.59 1004.7 388.75 1004.09 387.93C1001.65 384.61 999.25 381.33 996.79 378.22C987.11 365.63 977.47 354.48 968.74 345.98C960.05 337.44 952.21 331.66 947.16 328.99C944.29 327.15 941.28 325.49 938.14 324.08C937.38 323.69 936.55 323.42 935.74 323.11C934.93 322.81 934.13 322.49 933.3 322.22C931.61 321.79 929.97 321.22 928.21 321.02C926.5 320.66 924.7 320.65 922.98 320.57L920.53 320.53C919.71 320.5 918.9 320.42 918.08 320.37C914.81 320.08 911.54 319.6 908.31 318.88C914.57 320.31 919.25 320.74 922.55 320.8C923.36 320.82 924.19 320.9 924.89 320.94C925.59 321.01 926.23 320.99 926.76 321.12C927.83 321.33 928.6 321.48 929.12 321.59C929.64 321.69 929.89 321.78 929.95 321.83C930 321.88 929.87 321.84 929.57 321.81C928.97 321.76 927.74 321.59 926.28 321.41C924.8 321.38 923.07 321.32 921.56 321.35C920.03 321.4 918.64 321.27 917.75 321.27C915.98 321.17 916.23 321.43 921.55 321.79C916.44 321.69 910.64 320.67 905.32 319.24C899.99 317.84 895.11 316.08 891.63 314.67C888.14 313.3 886.04 312.26 886.23 312.28C886.42 312.27 888.89 313.32 894.78 315.4C896.01 315.85 897.22 316.31 898.46 316.74C899.59 316.96 899.48 316.83 898.43 316.43C897.39 315.99 895.4 315.3 892.81 314.3C887.61 312.33 880 309.07 872.38 305.24C864.75 301.43 857.09 297.14 851.48 293.74C848.62 292.07 846.25 290.67 844.63 289.72C843.01 288.75 842.1 288.31 842.3 288.29L837.95 286.12L833.48 284.19C832.01 283.51 830.45 283.04 828.93 282.47C828.16 282.2 827.41 281.9 826.63 281.66L824.29 280.98C818.05 279.16 811.56 278.16 805.1 277.94C798.63 277.69 792.24 278.15 785.94 278.54L781.22 278.81L776.52 279L771.84 279.06L769.63 278.94L767.42 278.62C764.48 278.07 761.6 277.08 758.81 275.86C756.01 274.65 753.32 273.16 750.71 271.53C745.46 268.3 740.57 264.46 735.84 260.46C726.42 252.38 717.77 243.44 709.31 234.38C705.07 229.85 700.9 225.27 696.61 220.77L694.99 219.09C694.44 218.54 693.75 217.87 693.08 217.37C691.72 216.31 690.26 215.47 688.77 214.76C685.78 213.37 682.69 212.44 679.59 211.75C673.38 210.38 667.12 209.88 660.9 209.74C654.68 209.61 648.49 209.89 642.34 210.45C630.05 211.58 617.94 213.81 606.16 217.09C600.27 218.75 594.46 220.67 588.8 222.97C583.14 225.27 577.61 227.92 572.38 231.13C575.72 229.37 579.15 227.83 582.62 226.46C577.52 228.85 572.57 231.62 567.95 234.94C563.35 238.24 559.03 242.2 555.77 246.93C553.12 250.48 551.42 252.92 551.94 251.89C552.22 251.39 553.03 250.01 554.72 247.56C555.15 246.95 555.62 246.27 556.15 245.51C556.72 244.75 557.35 243.9 558.11 243.04C559.6 241.3 561.48 239.4 563.85 237.42C561.31 239.4 558.16 242.38 555.55 246.11C552.97 249.69 550.47 253.66 548.29 257.34C543.95 264.73 540.62 270.89 540.48 271.2C534.37 281.09 531.31 284.55 530.83 285.04C530.33 285.52 532.28 282.96 534.59 279.4C536.92 275.86 539.59 271.32 541.26 268.43C542.93 265.54 543.59 264.34 541.76 267.41C538.46 272.96 535.11 278.44 531.32 283.51C532.19 282.38 533.07 281.25 533.9 280.08C531.75 283.3 529.99 285.7 528.26 287.81C526.56 289.95 524.87 291.76 522.83 293.79C520.74 295.75 518.3 297.94 514.72 300.31C511.14 302.66 506.45 305.28 499.79 307.51C498.73 307.85 497.77 308.15 496.9 308.43C496.01 308.66 495.22 308.86 494.5 309.05C493.78 309.23 493.15 309.39 492.58 309.53C492.01 309.64 491.5 309.74 491.06 309.83C489.29 310.17 488.49 310.29 488.03 310.34C487.09 310.4 487.48 310.25 484.03 310.83C484.04 310.79 483.48 310.92 481.84 311.1C481.03 311.2 479.95 311.34 478.55 311.52C477.15 311.71 475.42 311.82 473.32 312.03C466.41 312.54 459.48 312.52 452.45 312.46C445.45 312.4 438.45 312.29 431.54 311.82C437.06 312.37 442.65 312.69 448.24 312.97C438.93 313.02 429.08 312.57 424.08 311.88C421.57 311.6 420.26 311.32 420.7 311.49C421.15 311.63 423.37 312.2 428.16 312.78C427.28 312.67 426.31 312.54 425.25 312.41C424.2 312.24 423.06 312.06 421.83 311.87C419.41 311.4 416.66 310.84 413.86 309.77C411.08 308.7 408.3 307 406.36 304.28C405.4 302.91 404.64 301.32 404.01 299.59C403.42 297.84 402.92 295.98 402.54 294.01C401.75 290.09 401.21 285.87 400.62 281.51C400.04 277.15 399.41 272.64 398.68 268.06C397.94 263.48 397.08 258.84 396.1 254.18C395.87 253.02 395.69 251.9 395.49 250.75L395.19 249.04C395.09 248.47 395.06 247.89 394.99 247.31L394.64 243.85L394.56 240.38C394.44 231.14 396.68 222.06 400.46 214.26C402.38 210.37 404.52 206.71 406.96 203.46C408.1 201.78 409.43 200.29 410.62 198.76C411.91 197.31 413.14 195.87 414.42 194.55C419.53 189.24 424.57 185.12 428.71 182.01C429.76 181.24 430.74 180.53 431.65 179.86C432.58 179.22 433.44 178.64 434.22 178.1C435.77 177.02 437.07 176.23 437.99 175.66C448.77 168.48 460.31 162.55 472.84 157.14C475.97 155.78 479.18 154.47 482.45 153.18C484.08 152.52 485.75 151.91 487.42 151.26C489.1 150.58 490.83 149.93 492.52 149.18C495.92 147.68 499.29 145.88 502.55 143.72C505.8 141.54 508.88 138.87 511.5 135.65C508.85 138.85 506.11 140.68 507.01 139.74C507.24 139.52 507.64 139.05 508.29 138.36C508.62 138.02 509 137.61 509.45 137.14C509.86 136.64 510.34 136.06 510.87 135.41C511.93 134.1 513.1 132.37 514.33 130.14C515.48 127.87 516.62 125.07 517.35 121.64C517.26 122.93 517.35 123.13 517.61 122.41C517.86 121.69 518.33 120.07 518.64 117.71C518.92 115.35 519.08 112.27 518.84 108.75C518.61 105.23 518.01 101.28 517.14 97.1501C515.4 88.8901 512.62 79.9301 510.43 71.6101C509.85 69.5101 509.43 67.5201 508.84 65.4701C508.56 64.4601 508.31 63.4601 508.01 62.4901C507.68 61.5301 507.37 60.5901 507.06 59.6701C506.77 58.7401 506.4 57.8701 506.05 57.0201C505.69 56.1701 505.39 55.3301 505.02 54.5501C504.25 53.0001 503.63 51.5201 502.88 50.2701C503.54 51.3901 503.87 52.1401 504.02 52.5001C504.17 52.8701 504.14 52.8601 503.95 52.5401C503.75 52.2201 503.43 51.5701 502.86 50.7201C502.29 49.8701 501.67 48.7101 500.73 47.4901C498.98 44.9701 496.39 41.8501 492.94 39.0301C489.5 36.2301 485.21 33.7101 480.46 32.5101C479.85 32.3801 479.29 32.2201 478.63 32.1301C477.99 32.0401 477.35 31.9901 476.72 31.9901C476.1 31.9901 475.46 32.0201 474.89 32.0701C474.34 32.1101 473.8 32.1601 473.26 32.2001C471.11 32.3701 469.04 32.5401 467.11 32.6901C463.25 32.9501 459.95 33.1701 457.71 33.3201C455.47 33.4701 454.27 33.5601 454.62 33.6201C454.96 33.6801 456.85 33.7301 460.74 33.6201C457.88 33.7801 455.7 33.8501 454.06 33.8701C452.42 33.9101 451.31 33.9201 450.57 33.9201C449.09 33.9201 449.09 33.8501 449.26 33.7701C449.43 33.6901 449.77 33.5901 448.98 33.5401C448.19 33.4901 446.27 33.4801 441.92 33.4701C414.64 34.3201 384.47 33.2201 352.99 29.6801C337.26 27.8001 321.21 25.2701 305.12 21.7901C301.11 20.8501 297.07 19.9801 293.05 18.9801C289.05 17.8901 285.05 16.8001 281.03 15.7001C277.04 14.5201 273.09 13.1601 269.1 11.9001C267.12 11.2701 265.1 10.6001 263.08 9.91007L260.05 8.89007L256.99 7.95007C255.93 7.82007 266.75 11.4001 252.7 7.39007C241.26 3.84007 229.49 1.02007 217.36 0.0800714C213.95 -0.0699286 211.46 -0.0199286 209.25 0.130071C208.15 0.170071 207.12 0.290071 206.08 0.400071C205.04 0.510071 204 0.590071 202.87 0.770071C201.74 0.950071 200.52 1.05007 199.15 1.31007C198.46 1.42007 197.73 1.54007 196.95 1.67007C196.17 1.80007 195.34 1.99007 194.45 2.17007C193.56 2.33007 192.61 2.56007 191.6 2.82007C191.09 2.94007 190.57 3.07007 190.03 3.21007C189.49 3.37007 188.94 3.53007 188.36 3.71007C186.05 4.37007 183.47 5.31007 180.58 6.63007C181.39 6.24007 182.33 5.90007 183.13 5.59007C183.93 5.27007 184.6 5.06007 184.91 5.00007C185.53 4.89007 184.57 5.14007 180.43 7.18007C176.6 9.06007 172.99 11.4801 169.88 14.5101C166.77 17.5101 164.15 21.1301 162.54 25.2801L162.24 26.0601L161.97 26.7101L161.42 28.0301L160.1 31.0101L159.77 31.7601L159.53 32.5401L159.05 34.1001L158.57 35.6601C158.44 36.1901 158.36 36.7301 158.25 37.2601L157.95 38.8701C157.85 39.4101 157.73 39.9401 157.71 40.4801L157.44 43.7301C157.39 44.8101 157.46 45.9001 157.46 46.9801C157.44 48.0701 157.57 49.1401 157.68 50.2101C157.84 52.3701 158.29 54.4801 158.68 56.5901C158.91 57.6401 159.21 58.6701 159.47 59.7101L159.88 61.2701L160.37 62.8001C161.61 66.9001 163.29 70.8301 165.03 74.7101C168.64 82.4201 172.89 89.7801 177.38 96.9501C181.87 104.12 186.59 111.14 191.21 118.2C195.82 125.26 200.39 132.36 204.24 139.78C206.14 143.49 207.88 147.29 209.15 151.19L209.97 154.14C210.19 155.13 210.35 156.12 210.54 157.12C210.83 159.18 211.06 161.3 211.32 163.39L211.7 166.53L211.99 169.68L212.56 175.99C212.81 180.21 213.13 184.42 213.21 188.65C213.4 192.87 213.33 197.1 213.33 201.32L213.12 207.65C213.08 209.76 212.87 211.87 212.75 213.97C212.14 222.39 211.1 230.79 209.52 239.08C206.29 255.64 200.91 271.79 193.1 286.7C185.31 301.61 175.11 315.2 163.1 326.86C151.1 338.54 137.31 348.26 122.67 356.14C126.67 354.06 128.92 352.68 129.99 352.14C131.04 351.57 130.86 351.73 129.8 352.38C127.7 353.69 122.16 357.02 115.99 360.12C123.99 356.04 116.01 360.6 117.68 360C109.34 364.2 100.71 367.81 91.92 370.96C83.14 374.12 74.17 376.76 65.1 378.96C62.68 379.78 57.8 381.03 51.74 382.35C45.67 383.65 38.4 384.92 31.22 385.89C16.86 387.9 2.91 388.46 0 388.86C5.92 388.62 11.83 388.2 17.73 387.62C11.86 388.33 10.98 388.54 12.93 388.61C14.88 388.68 19.66 388.5 25.07 388.1C30.48 387.7 36.5 387.07 40.97 386.55C45.43 386.02 48.35 385.71 47.53 386.11C60.55 383.24 77.75 379.38 96.31 372.52C105.55 369.04 115.16 364.89 124.52 359.68C133.92 354.54 143.07 348.36 151.5 341.32C155.31 338.32 153.76 339.69 151.78 341.43C149.75 343.1 147.26 345.12 149.38 343.63C153.69 340.08 158.36 336.06 164.01 330.56C165.45 329.22 166.86 327.68 168.42 326.13C169.96 324.56 171.5 322.81 173.19 321C176.42 317.26 180.04 313.08 183.68 308L182.09 310.34C187.32 303.29 191.62 296.34 195.24 289.56C198.88 282.78 201.79 276.13 204.24 269.62C204.87 268 205.47 266.39 206 264.76C206.54 263.14 207.1 261.54 207.61 259.94C208.55 256.72 209.55 253.55 210.31 250.36C211.98 244 213.19 237.65 214.23 231.2C214.69 227.97 215.19 224.72 215.5 221.42C215.66 219.77 215.88 218.11 216.01 216.44C216.13 214.76 216.25 213.07 216.38 211.37C216.53 209.67 216.59 207.94 216.65 206.2C216.72 204.46 216.78 202.7 216.85 200.92C216.86 199.14 216.87 197.34 216.89 195.52C216.89 194.61 216.9 193.69 216.91 192.77C216.89 191.85 216.86 190.92 216.84 189.98C216.79 188.11 216.75 186.21 216.7 184.29C216.59 182.37 216.49 180.42 216.38 178.44C216.32 177.45 216.27 176.45 216.21 175.44C216.13 174.44 216.04 173.42 215.95 172.4C215.77 170.36 215.6 168.28 215.41 166.17C215.17 164.06 214.92 161.92 214.67 159.74C214.53 158.64 214.45 157.57 214.26 156.42C214.03 155.27 213.88 154.07 213.58 152.92C212.44 148.29 210.59 143.79 208.38 139.34C209.09 141.19 209.82 143.01 210.41 144.91C208.78 140.93 207.16 137.93 205.86 135.39C204.49 132.9 203.39 130.9 202.37 129.18C200.37 125.72 198.89 123.27 196.81 119.92C194.03 115.96 194.24 116.47 195.98 119.22C197.69 121.99 200.93 127 203.94 132.25C206.98 137.48 209.65 143.04 210.87 146.37C212.03 149.73 212.22 150.58 210.5 146.44C209.54 143.78 208 140.07 205.74 135.79C203.48 131.51 200.59 126.63 197.26 121.38C190.64 110.88 182.3 98.9401 175.16 86.6201C171.6 80.4601 168.34 74.2001 165.89 68.0301C163.42 61.8701 161.76 55.8001 161.2 50.3001C160.6 44.8001 161.16 39.9401 162.18 36.2001C162.49 35.2801 162.77 34.4201 163.04 33.6101C163.11 33.4101 163.17 33.2101 163.24 33.0201C163.33 32.8301 163.41 32.6501 163.5 32.4701C163.67 32.1201 163.83 31.7701 163.99 31.4501C164.68 30.0401 165.24 28.8801 165.66 28.0201C165.75 27.8001 165.84 27.5901 165.92 27.3801C165.98 27.2101 166.04 27.0501 166.11 26.8901C166.23 26.5801 166.34 26.2701 166.46 25.9801C166.73 25.4101 166.94 24.8701 167.2 24.4001C167.69 23.4401 168.16 22.6801 168.55 22.0501C169.37 20.8201 169.88 20.1301 170.13 19.8001C170.62 19.1201 170.01 19.7501 169.4 20.4001C168.83 21.0801 168.26 21.7601 168.71 21.0401C168.83 20.8601 169 20.6001 169.26 20.2201C169.54 19.8601 169.91 19.3901 170.38 18.8001C171.38 17.6601 172.85 16.0401 175.29 14.1601C177.05 12.8801 178.98 11.8501 180.92 10.8601C182.7 9.80007 184.54 8.78007 186.48 7.94007C194.2 5.12007 200.51 4.61007 204.7 4.39007C208.93 4.23007 211.18 4.47007 211.48 4.56007C210.48 4.57007 209.27 4.57007 207.95 4.62007C206.64 4.71007 205.2 4.77007 203.78 4.91007C200.93 5.20007 198.06 5.62007 195.99 6.07007C198.59 5.57007 201.5 5.25007 204.59 5.00007C207.7 4.83007 210.99 4.70007 214.38 4.84007C221.16 5.03007 228.27 5.90007 234.88 7.14007C248.11 9.64007 259.32 13.3401 262.81 14.6401C255.09 11.9301 247.24 9.57007 239.28 7.78007C247.78 9.59007 256.4 12.1001 265.04 15.1201C269.47 16.5401 273.93 17.9801 278.44 19.4301C283 20.6701 287.6 21.9201 292.22 23.1701C310.81 27.8001 330.14 31.0501 349.49 33.3201C368.84 35.5801 388.21 36.8501 406.99 37.3401C425.77 37.8301 443.97 37.5701 461.01 36.5101C459.28 36.5201 457.55 36.5701 455.82 36.5401C462.33 36.1901 467.85 35.8401 472.66 35.4301C473.26 35.3801 473.85 35.3401 474.43 35.2901C474.72 35.2701 475.01 35.2501 475.29 35.2201C475.56 35.2001 475.81 35.1801 476.06 35.1701C477.08 35.1401 478 35.2001 478.92 35.4201C480.81 35.8001 482.53 36.4601 484.09 37.1901C487.21 38.6601 489.67 40.4601 491.78 42.3301C493.91 44.1901 495.61 46.2101 497.2 48.3401C497.97 49.4301 498.76 50.5201 499.44 51.7301C499.79 52.3301 500.18 52.9101 500.51 53.5501C500.84 54.1901 501.17 54.8401 501.51 55.5101C501.87 56.1701 502.18 56.8701 502.48 57.6101C502.79 58.3401 503.11 59.0901 503.44 59.8601C503.72 60.6501 504.01 61.4701 504.31 62.3101C504.62 63.1501 504.92 64.0201 505.16 64.9601C505.42 65.8801 505.69 66.8401 505.98 67.8301C506.25 68.8601 506.53 69.9201 506.81 71.0301C507.4 73.2301 508.06 75.6001 508.79 78.1401C510.23 83.2301 512 89.0301 513.64 95.9001C513.48 95.2401 513.29 94.5801 513.11 93.9201C514.56 99.3701 516.02 105.84 516.16 112.84C516.21 116.33 515.87 119.94 514.88 123.45C513.9 126.96 512.25 130.34 509.98 133.31C510.46 132.6 510.83 132.06 511.09 131.67C511.35 131.28 511.46 131.01 511.52 130.89C511.62 130.64 511.44 130.93 511.01 131.54C510.1 132.72 508.26 135.21 505.99 137.14C505.47 137.67 504.86 138.09 504.32 138.54C503.77 138.97 503.28 139.42 502.76 139.74C501.76 140.42 500.97 140.95 500.56 141.2C499.68 141.65 500.52 141.2 503.98 138.35C503.66 138.62 503.35 138.89 503.04 139.16C502.71 139.4 502.38 139.64 502.06 139.88C501.41 140.35 500.8 140.83 500.16 141.26C498.85 142.06 497.66 142.91 496.4 143.55C495.17 144.22 494.02 144.88 492.85 145.39C491.7 145.93 490.63 146.48 489.56 146.89C488.5 147.33 487.5 147.74 486.55 148.13C485.57 148.51 484.65 148.88 483.77 149.22C482.02 149.9 480.5 150.54 479.14 151.09C473.72 153.33 471.08 154.56 469 155.53C466.93 156.54 465.39 157.27 462.31 158.86C459.23 160.45 454.54 162.76 446.47 167.5L442.64 169.49L438.85 171.57C433.54 175.12 430.77 177.21 426.46 180.54C425.4 181.4 424.25 182.34 422.94 183.41C421.65 184.5 420.23 185.75 418.61 187.19C415.43 190.13 411.49 193.93 407.03 199.57C407.95 198.42 408.67 197.43 409.32 196.68C409.96 195.92 410.47 195.34 410.84 194.89C411.59 194 411.83 193.67 411.73 193.72C411.54 193.82 410 195.41 408.54 196.96C407.15 198.57 405.8 200.11 405.83 199.94C405.84 199.85 406.2 199.34 407.07 198.19C407.91 197.01 409.36 195.29 411.57 192.79C406.28 198.26 401.97 204.06 398.74 209.99C395.5 215.92 393.35 221.97 392.21 227.83C391.05 233.69 390.87 239.32 391.22 244.55C391.36 245.85 391.5 247.14 391.64 248.4C391.69 249.03 391.8 249.66 391.92 250.27C392.03 250.88 392.15 251.5 392.26 252.1C392.69 254.56 393.2 256.78 393.66 258.99C395.48 267.83 396.65 275.76 397.64 283.22C398.15 286.95 398.6 290.55 399.24 294.12C399.89 297.67 400.69 301.23 402.41 304.66C402.95 305.46 403.43 306.16 403.9 306.73C404.41 307.27 404.83 307.74 405.19 308.12C406 308.8 406.5 309.18 406.73 309.34C407.2 309.63 406.56 309.03 405.29 307.71C404.05 306.35 402.49 303.97 401.41 300.96C400.31 297.96 399.59 294.42 399.01 290.82C397.89 283.61 396.98 276.1 396.21 271.35C395.48 266.59 395.1 264.57 395.81 268.33C394.87 261.99 396.13 267.49 397.63 276.98C398.39 281.73 399.12 287.48 400.19 293.19C400.75 296.04 401.45 298.89 402.52 301.49C403.58 304.09 405.14 306.4 406.97 308.02C408.83 309.67 410.95 310.84 413.14 311.7C415.33 312.52 417.57 313.18 419.91 313.64C424.57 314.61 429.56 315.19 435.44 315.63C441.33 316.06 448.12 316.33 456.44 316.47C458.52 316.51 460.7 316.54 463 316.51C464.15 316.51 465.33 316.49 466.53 316.48C467.74 316.43 468.97 316.38 470.23 316.32C472.76 316.26 475.4 315.97 478.17 315.75C480.93 315.41 483.83 315.09 486.83 314.52C485.63 314.73 484.71 314.89 483.93 315.03C483.15 315.16 482.51 315.23 481.87 315.33C480.59 315.49 479.31 315.75 476.9 315.94C479.17 315.79 481.43 315.45 483.68 315.19L487.05 314.62L488.74 314.33L490.42 313.96C494.91 313.05 499.37 311.68 503.82 309.96C508.27 308.22 512.71 306.01 517.01 303.17C521.31 300.33 525.46 296.85 529.38 292.75C533.49 287.89 537.68 281.92 540.91 276.74C544.16 271.56 546.61 267.26 547.2 265.53C543.46 271.84 539.75 278.24 535.4 284.28C531.08 290.32 526 295.97 519.99 300.53C522.54 298.6 524.87 296.43 527.09 294.17C529.26 291.85 531.35 289.45 533.26 286.85C537.13 281.7 540.54 276.03 544.09 269.92C547.65 263.81 551.36 257.22 556.06 250.33C557.27 248.63 558.45 246.85 559.85 245.21C561.24 243.56 562.8 241.97 564.53 240.47C567.97 237.46 571.97 234.73 576.43 232.25C575.09 233.11 571.82 235.11 568.32 237.85C564.82 240.58 561.18 244.13 558.84 247.46C562.41 242.88 566.77 239.17 571.5 235.93C576.25 232.7 581.43 229.94 587.13 227.57C586.41 228.12 582.99 229.67 578.18 232.36C575.78 233.71 573.05 235.37 570.22 237.4C567.4 239.43 564.46 241.83 561.83 244.72C560.5 246.18 559.32 247.67 558.12 249.43C556.9 251.12 555.74 252.89 554.57 254.66C552.24 258.22 550.02 261.93 547.85 265.59C543.53 272.9 539.4 280.02 535.4 285.57C537.45 282.98 540.17 278.94 542.86 274.51C545.56 270.08 548.28 265.3 550.68 261.31C553.08 257.32 555.13 254.1 556.2 252.62C557.25 251.13 557.25 251.33 555.57 254.2C556.77 252.15 558.13 249.99 559.61 247.85C561.06 245.79 562.86 243.78 564.92 241.87C569.06 238.05 574.27 234.63 580.14 231.59C591.92 225.53 606.28 220.93 621.99 217.34L620 218.23C622.48 217.67 626.31 216.84 630.7 216.1C635.09 215.36 640.04 214.69 644.71 214.32C639.09 214.99 633.5 215.92 627.96 217.06C640.74 214.67 653.38 213.74 665.65 214.56C671.76 215.01 677.85 215.86 683.39 217.74C686.15 218.67 688.75 219.93 690.71 221.58L691.4 222.22L692.21 223.05L693.84 224.72C694.92 225.85 696.01 226.98 697.1 228.11C695.97 226.92 694.9 225.79 693.9 224.72C693.39 224.19 692.9 223.68 692.43 223.19C691.97 222.72 691.45 222.15 691.09 221.85C689.57 220.4 687.7 219.45 686.07 218.71C682.72 217.27 680.05 216.67 678.23 216.23C676.38 215.83 675.32 215.6 674.78 215.49C674.24 215.36 674.22 215.32 674.43 215.3C674.85 215.27 676.19 215.38 676.08 215.26C676.03 215.19 675.62 215.08 674.55 214.86C673.48 214.64 671.74 214.35 669 214.06C676.96 214.7 683.48 216.14 688.16 218.58C689.31 219.2 690.36 219.85 691.23 220.58C691.46 220.75 691.64 220.96 691.85 221.14C692.05 221.32 692.25 221.51 692.47 221.74C692.89 222.18 693.3 222.6 693.7 223.02C695.3 224.69 696.72 226.23 698.02 227.65C703.22 233.34 706.46 237.08 709.91 240.97C713.37 244.85 716.99 248.93 723.22 255.11C726.35 258.18 730.15 261.78 735.12 265.92C737.62 267.97 740.39 270.19 743.62 272.43C746.85 274.67 750.49 276.98 754.78 279.08C752.43 277.97 749.22 276.14 746.05 274.03C742.87 271.93 739.75 269.53 737.35 267.54C734.94 265.57 733.24 264.02 732.87 263.63C732.5 263.23 733.45 263.99 736.52 266.43C741.98 270.89 748.67 275.77 755.62 279.17C759.08 280.87 762.63 282.16 765.96 282.87C767.63 283.21 769.22 283.48 770.72 283.54C771.47 283.6 772.18 283.64 772.78 283.63C773.4 283.63 773.98 283.64 774.52 283.65C780.68 283.53 785.12 283.17 788.25 282.96C791.37 282.74 793.23 282.61 794.16 282.54C796.03 282.39 794.25 282.41 791.6 282.49C786.3 282.67 777.43 283.03 787.75 282.26C795.99 282.02 801.8 281.66 808.16 281.99C808.95 282.04 809.76 282.1 810.57 282.15C810.98 282.18 811.39 282.21 811.81 282.23C812.22 282.28 812.64 282.33 813.06 282.39C813.91 282.5 814.77 282.61 815.67 282.72C816.57 282.81 817.46 283.04 818.41 283.21C822.19 283.85 826.35 285.12 831.24 286.91L831.2 287.42C832.75 288.1 834.21 288.73 835.59 289.34C836.97 289.94 838.23 290.64 839.44 291.23C841.87 292.39 843.93 293.6 845.76 294.63C846.68 295.15 847.53 295.63 848.33 296.08C849.14 296.55 849.9 296.98 850.6 297.39C852.01 298.19 853.21 298.88 854.25 299.47C858.44 301.74 859.95 302.44 861.32 303.05C862.7 303.64 863.91 304.17 867.55 305.99C869.39 306.85 871.8 308.13 875.22 309.71C876.07 310.11 876.98 310.55 877.96 311.01C878.95 311.45 880 311.92 881.12 312.43C883.36 313.46 885.92 314.51 888.82 315.69C882.16 313.34 875.65 310.59 869.26 307.61C877.06 311.46 885.04 315 893.29 317.89C891.53 317.46 889.79 316.97 888.02 316.51C894.71 319.02 900.4 320.74 905.59 321.98C910.78 323.19 915.47 323.95 920.23 324.22L922.02 324.27C922.61 324.29 923.25 324.3 923.74 324.34C924.79 324.43 925.85 324.39 926.92 324.64C927.99 324.83 929.09 324.98 930.18 325.35C931.28 325.66 932.41 325.95 933.54 326.45C938.09 328.18 942.96 330.9 948.41 334.85C947.18 333.88 946.76 333.51 947.16 333.65C947.36 333.72 947.76 333.93 948.36 334.28C948.94 334.65 949.71 335.18 950.67 335.85C951.62 336.54 952.8 337.3 954.08 338.34C955.36 339.38 956.82 340.57 958.46 341.9C960.03 343.32 961.77 344.9 963.68 346.63C965.54 348.41 967.52 350.42 969.67 352.55C972.46 355.62 973.41 356.76 973.68 357.12C973.94 357.48 973.5 357.07 973.44 357.07C973.41 357.07 973.48 357.16 973.79 357.51C974.1 357.85 974.64 358.44 975.54 359.42C976.42 360.43 977.66 361.84 979.38 363.82C980.24 364.81 981.23 365.93 982.35 367.22C983.44 368.54 984.66 370.01 986.04 371.67C984.75 370.22 983.42 368.73 982 367.14C980.55 365.59 979.01 363.93 977.35 362.08C975.71 360.21 973.84 358.26 971.8 356.03C970.77 354.93 969.74 353.71 968.57 352.52C967.42 351.31 966.2 350.03 964.91 348.68C964.61 348.44 964.12 347.99 963.51 347.45C962.89 346.93 962.16 346.31 961.44 345.69C959.99 344.45 958.53 343.21 957.91 342.73C964.43 348.68 972.15 356.75 979.04 364.69C979.91 365.68 980.77 366.66 981.62 367.62C982.44 368.61 983.26 369.59 984.06 370.55C985.66 372.47 987.2 374.33 988.66 376.09C991.48 379.67 993.98 382.84 995.91 385.28C992.97 381.48 989.46 376.95 987.66 374.62C990.32 377.81 992.9 381.09 995.52 384.32L1003.12 394.17C1003.74 394.96 1004.41 395.93 1005.06 396.79C1005.78 397.63 1006.5 398.5 1007.27 399.29C1008.82 400.87 1010.44 402.33 1012.14 403.67C1015.53 406.36 1019.13 408.68 1022.82 410.8C1026.25 412.88 1026.59 413.14 1025.34 412.54C1024.72 412.23 1023.72 411.7 1022.52 411.05C1021.34 410.36 1019.95 409.59 1018.61 408.74C1023 411.56 1026.87 413.59 1031.33 415.77C1035.8 417.93 1040.87 420.19 1047.86 423C1045.98 422.44 1045.22 422.36 1042.45 421.37C1041.07 420.87 1039.19 420.15 1036.44 418.96C1033.7 417.75 1030.07 416.14 1025.32 413.56C1032.5 417.43 1039.9 420.68 1047.39 423.64C1054.89 426.57 1062.48 429.21 1070.13 431.61C1071.63 432.2 1077.48 434.18 1082.24 435.68C1087 437.19 1090.65 438.29 1087.62 437.53C1094.03 439.38 1101.23 441.25 1109 442.96C1109.49 443.07 1109.97 443.17 1110.46 443.28C1111 443.4 1111.36 443.47 1111.72 443.57C1112.47 443.78 1113.19 444.07 1113.89 444.44C1114.2 444.6 1114.69 444.91 1115.1 445.15L1116.38 445.92C1117.24 446.44 1118.09 447 1118.96 447.54C1122.4 449.77 1125.89 452.13 1129.36 454.66C1143.3 464.71 1157.29 476.63 1169.89 488.75C1171.25 489.96 1173.98 492.38 1179.3 497.58C1182.25 500.45 1185.03 503.4 1187.85 506.27C1189.24 507.74 1190.62 509.19 1191.99 510.65L1194.05 512.84L1195.08 513.93C1195.43 514.3 1195.84 514.67 1196.22 515.04C1199.28 518.03 1202.75 520.55 1206.5 522.56C1210.24 524.58 1214.19 526.08 1218.1 527.41C1222.02 528.75 1225.93 529.95 1229.73 531.43C1233.53 532.9 1237.24 534.66 1240.78 536.87C1244.32 539.08 1247.71 541.72 1250.89 544.82C1254.06 547.92 1257.04 551.43 1259.92 555.24C1263.93 561.25 1267.37 567.68 1270.4 574.3C1273.74 581.06 1274.56 582.82 1274.42 582.25C1274.27 581.68 1273.06 578.85 1272.13 576.58C1271.19 574.31 1270.41 572.66 1271.41 574.33C1271.93 575.15 1272.76 576.88 1274.19 579.8C1274.92 581.25 1275.72 583.05 1276.66 585.2C1277.13 586.27 1277.64 587.44 1278.2 588.69C1278.72 589.96 1279.27 591.33 1279.86 592.8C1281.58 596.94 1282.76 600.33 1283.75 603C1284.75 605.67 1285.39 607.7 1285.9 609.19C1286.89 612.18 1287.12 613.11 1287.1 613.35C1287.04 613.83 1286.02 611.56 1287.95 617.58C1290.99 626.01 1295.09 637.59 1299.07 651.17C1301.03 657.96 1302.97 665.26 1304.6 672.91C1306.22 680.56 1307.54 688.57 1308.07 696.72C1307.53 691.35 1306.87 686.55 1306.03 681.87C1305.82 680.7 1305.62 679.53 1305.41 678.36C1305.18 677.19 1304.94 676.03 1304.7 674.85C1304.25 672.49 1303.67 670.11 1303.11 667.63L1303.01 667.52ZM1010.79 803.02C1014.28 801.95 1019.53 800.31 1024.59 798.83C1027.15 798.16 1029.64 797.5 1031.83 796.92C1032.92 796.63 1033.95 796.41 1034.87 796.24C1035.79 796.06 1036.6 795.91 1037.27 795.81C1029.15 798.1 1022.82 799.69 1010.79 803.03V803.02ZM538.75 703.01C539.76 700.44 540.88 697.1 542.88 693.57C543.36 692.68 543.8 691.74 544.36 690.83C544.94 689.93 545.54 689.01 546.15 688.07C547.31 686.14 548.81 684.33 550.29 682.44C546 687.93 541.82 694.79 538.75 703.02V703.01ZM1144.18 1399.37C1144.06 1399.68 1143.98 1399.9 1143.89 1400.15C1143.06 1402.15 1142.52 1403.79 1142.06 1405.12C1141.62 1406.44 1141.29 1407.47 1141.04 1408.22C1140.55 1409.72 1140.41 1410.15 1140.54 1409.76C1140.67 1409.37 1141.06 1408.15 1141.64 1406.36C1142.23 1404.56 1143 1402.15 1144.18 1399.38V1399.37ZM1175.64 1386.13C1179.07 1385.95 1178.83 1385.89 1177.38 1385.87C1176.18 1385.94 1173.66 1386.1 1170.35 1386.3C1167.02 1386.54 1162.88 1386.82 1158.39 1387.85C1160.91 1387.39 1165.43 1386.61 1175.65 1386.12L1175.64 1386.13ZM480.27 311.53C481.35 311.4 482.43 311.32 483.5 311.16L486.71 310.67C483.11 311.37 480.62 311.66 479.01 311.87C477.41 312.1 476.66 312.11 476.51 312.12C476.36 312.12 476.79 312.06 477.52 311.96C478.24 311.84 479.25 311.68 480.26 311.52L480.27 311.53Z" fill="#CFCFCF"/>
</svg>
