<svg width="86" height="13" viewBox="0 0 86 13" fill="none" xmlns="http://www.w3.org/2000/svg">
<path d="M27.4301 9.1689C27.4242 9.08412 27.4048 9.01284 27.3711 8.9499C27.0372 8.32951 26.6372 7.73417 26.2501 7.15809C26.0997 6.9346 25.9447 6.7034 25.7956 6.47412C25.7282 6.37073 25.6517 6.26925 25.5771 6.17099C25.4124 5.95392 25.2575 5.74969 25.1959 5.52299L25.1609 5.39454C24.687 3.65668 24.1968 1.85974 22.0871 1.17449C21.9179 1.1199 21.7163 1.05311 21.5004 0.981176C21.0589 0.835391 20.5584 0.669698 20.1655 0.548317C19.652 0.389688 19.4796 0.351154 19.4095 0.376843C19.3784 0.376843 19.3473 0.375559 19.3162 0.374916C19.2183 0.372348 19.1165 0.369779 19.0153 0.379412C17.5196 0.520701 16.5407 1.15137 16.1069 2.25342C15.6933 3.3041 16.0479 4.23533 17.1922 5.10105C17.8607 5.60648 18.0629 6.241 17.7945 6.98598C17.4678 7.8928 17.3336 8.87476 17.2525 9.62873C17.2447 9.70002 17.2538 9.77323 17.2804 9.85415C17.3576 10.0905 17.5404 10.2684 17.7835 10.3429C17.8613 10.3666 17.9404 10.3782 18.0195 10.3782C18.1939 10.3782 18.3651 10.3217 18.5058 10.2144C18.5959 10.1451 18.673 10.0789 18.7411 10.0115C18.8448 9.90938 18.8701 9.75332 18.8954 9.6024C18.9064 9.53496 18.9168 9.47203 18.9337 9.41551C19.545 7.3559 19.8342 7.16066 22.0281 7.327C22.0593 7.32957 22.091 7.33214 22.1222 7.33535C22.2363 7.34626 22.3549 7.35782 22.4729 7.34048C24.3446 7.06561 25.57 7.77784 26.219 9.51827C26.2436 9.58377 26.2864 9.64286 26.3506 9.69873C26.549 9.87149 26.8226 9.90489 27.0651 9.78607C27.3088 9.66662 27.4489 9.42964 27.4301 9.16761V9.1689ZM23.5427 5.75804C22.1915 6.01493 21.1574 5.9719 20.1992 5.62061C19.9444 5.52748 19.7168 5.32711 19.5716 5.17555C19.3453 4.93985 19.1243 4.69002 18.911 4.44855C18.6341 4.13514 18.3476 3.81146 18.0435 3.51218C17.8049 3.27777 17.694 3.0607 17.7128 2.86675C17.731 2.68692 17.8633 2.51417 18.1077 2.35425C18.5045 2.09351 18.8818 1.94002 19.1982 1.90983C19.3428 1.8957 19.4854 1.88928 19.6261 1.88928C21.7059 1.88928 23.249 3.39337 23.5427 5.75804Z" fill="white"/>
<path d="M85.7605 4.78003C85.7341 4.76389 85.7077 4.75086 85.6801 4.74092C85.4192 4.64657 85.1457 4.5814 84.8817 4.51808C84.7761 4.49263 84.6705 4.46718 84.5656 4.44049C84.3902 4.39518 84.2135 4.35173 84.0375 4.30828C82.7653 3.99543 81.5634 3.69996 80.6438 2.6919C80.3169 2.33374 79.8926 2.06 79.4821 1.79495C79.4306 1.76143 79.3797 1.72853 79.3287 1.69564C78.4896 1.14877 77.5184 0.978074 76.5956 1.21519C75.649 1.45852 74.8626 2.09663 74.3811 3.01282C73.9769 3.78252 74.0605 4.56588 74.1416 5.32255C74.1793 5.6776 74.2189 6.04445 74.2051 6.40013C74.1988 6.55717 74.195 6.71484 74.1919 6.87312C74.1781 7.45599 74.1636 8.05933 74.0316 8.61923C73.8782 9.27037 73.6632 9.92152 73.4552 10.5509C73.3137 10.9792 73.1673 11.4224 73.0409 11.8638C72.9831 12.0661 73.0994 12.4541 73.2848 12.5484C73.3559 12.5844 73.4369 12.6024 73.5256 12.6024C73.6306 12.6024 73.7468 12.577 73.8707 12.5267C74.2604 12.3678 74.6614 11.9823 74.7645 11.667C74.8607 11.3746 74.9456 11.0723 75.0279 10.78C75.4101 9.42245 75.7715 8.14003 77.2129 7.37964C77.5655 7.19342 77.9201 6.99292 78.2627 6.79864C80.3804 5.59939 82.3799 4.46594 84.9308 5.9321L84.9415 5.93831L84.9534 5.94141C85.1558 5.99479 85.291 5.9172 85.3412 5.88803L85.3513 5.88244C85.4651 5.82471 85.5047 5.80237 85.5707 5.76574C85.6065 5.74588 85.6505 5.72167 85.719 5.68443C85.8875 5.59318 85.995 5.41814 86 5.22757C86.005 5.04322 85.9151 4.87624 85.7593 4.78127L85.7605 4.78003ZM75.8665 5.48145C75.989 4.81479 76.116 4.12578 76.3077 3.46905C76.4246 3.06868 76.6032 2.82226 76.8376 2.73722C77.0752 2.65093 77.3776 2.72666 77.7378 2.96192C78.2589 3.30208 78.7592 3.69314 79.2898 4.10716C79.501 4.27228 79.7185 4.44173 79.9473 4.61678L75.8438 6.44544L75.7068 6.3213C75.7634 6.04197 75.8155 5.75768 75.8665 5.48269V5.48145Z" fill="white"/>
<path d="M13.3934 2.8314C13.1023 2.78438 12.8055 2.78561 12.5156 2.83821C12.0808 2.91741 11.6467 2.99661 11.2087 3.0393C10.3786 3.12035 9.53978 3.20327 8.70971 3.17047C8.17954 3.14943 8.0528 3.33506 7.98755 3.78798C7.74662 5.45487 8.20463 6.8885 9.403 8.08391C9.80518 8.48547 10.1245 8.91859 9.61444 9.39812C9.09808 9.88383 8.65386 9.53795 8.18142 9.18713C7.0414 8.3413 6.68377 7.11434 6.3757 5.84777C6.16552 4.98277 5.93651 4.12148 5.75581 3.25091C5.63535 2.67177 5.31976 2.40756 4.72935 2.29062C3.57616 2.0623 2.43739 1.7585 1.29611 1.47388C1.00562 1.40149 0.67936 1.34209 0.454744 1.16946C0.28785 1.04138 0.167385 0.855756 0.0469207 0.668277C-0.0421729 0.52906 -0.000763216 0.344674 0.140406 0.256813C0.345572 0.128114 0.550739 -0.00244033 0.754023 3.46438e-05C1.35007 0.00745956 1.94236 0.17452 2.53903 0.2531C5.30031 0.618777 8.06221 0.980742 10.8254 1.33466C11.8455 1.46522 12.8789 1.51967 13.8853 1.7121C14.0641 1.74613 14.2191 1.90267 14.3709 2.07592C14.5227 2.24916 14.4675 2.52698 14.2536 2.62722C14.081 2.70827 13.9073 2.78376 13.7266 2.83511C13.6437 2.85863 13.5151 2.84996 13.3928 2.83016L13.3934 2.8314Z" fill="white"/>
<path d="M56.3662 2.8314C56.0676 2.78438 55.7633 2.78561 55.466 2.83821C55.0201 2.91741 54.5748 2.99661 54.1257 3.0393C53.2744 3.12035 52.4141 3.20327 51.5629 3.17047C51.0191 3.14943 50.8892 3.33506 50.8223 3.78798C50.5752 5.45487 51.0449 6.8885 52.2739 8.08391C52.6863 8.48547 53.0138 8.91859 52.4907 9.39812C51.9612 9.88383 51.5056 9.53795 51.0211 9.18713C49.8519 8.3413 49.4852 7.11434 49.1692 5.84777C48.9537 4.98277 48.7188 4.12148 48.5335 3.25091C48.41 2.67177 48.0863 2.40756 47.4808 2.29062C46.2982 2.0623 45.1303 1.7585 43.9599 1.47388C43.662 1.40149 43.3274 1.34209 43.097 1.16946C42.9259 1.04138 42.8023 0.855756 42.6788 0.668277C42.5874 0.52906 42.6299 0.344674 42.7747 0.256813C42.9851 0.128114 43.1955 -0.00244033 43.404 3.46438e-05C44.0152 0.00745956 44.6226 0.17452 45.2346 0.2531C48.0664 0.618777 50.8988 0.980742 53.7326 1.33466C54.7788 1.46522 55.8386 1.51967 56.8706 1.7121C57.054 1.74613 57.213 1.90267 57.3687 2.07592C57.5276 2.25288 57.4678 2.52698 57.2484 2.62722C57.0714 2.70827 56.8932 2.78376 56.7079 2.83511C56.6229 2.85863 56.491 2.84996 56.3655 2.83016L56.3662 2.8314Z" fill="white"/>
<path d="M70.8497 2.8314C70.5586 2.78438 70.2619 2.78561 69.972 2.83821C69.5373 2.91741 69.1031 2.99661 68.6652 3.0393C67.8352 3.12035 66.9965 3.20327 66.1665 3.17047C65.6363 3.14943 65.5096 3.33506 65.4444 3.78798C65.2035 5.45487 65.6614 6.8885 66.8597 8.08391C67.2618 8.48547 67.5812 8.91859 67.0711 9.39812C66.5548 9.88383 66.1106 9.53795 65.6382 9.18713C64.4983 8.3413 64.1407 7.11434 63.8327 5.84777C63.6225 4.98277 63.3935 4.12148 63.2128 3.25091C63.0924 2.67177 62.7768 2.40756 62.1865 2.29062C61.0334 2.0623 59.8947 1.7585 58.7536 1.47388C58.4631 1.40149 58.1369 1.34209 57.9123 1.16946C57.7454 1.04138 57.625 0.855756 57.5045 0.668277C57.4154 0.52906 57.4568 0.344674 57.598 0.256813C57.8031 0.128114 58.0083 -0.00244033 58.2115 3.46438e-05C58.8075 0.00745956 59.3998 0.17452 59.9964 0.2531C62.7574 0.618777 65.519 0.980742 68.2819 1.33466C69.302 1.46522 70.3353 1.51967 71.3416 1.7121C71.5204 1.74613 71.6753 1.90267 71.8271 2.07592C71.9821 2.25288 71.9237 2.52698 71.7098 2.62722C71.5373 2.70827 71.3635 2.78376 71.1828 2.83511C71.1 2.85863 70.9714 2.84996 70.8491 2.83016L70.8497 2.8314Z" fill="white"/>
<path d="M45.5694 9.09354C45.5097 8.78077 45.2419 8.50296 45.0876 8.36568C44.1547 7.53291 43.2395 6.56804 42.8593 5.16218C42.7012 4.57808 42.4137 4.39352 42.2005 4.34172C41.8793 4.26401 41.5131 4.43367 41.1679 4.82091L40.8562 5.17125C39.9378 6.20282 38.9884 7.26935 38.023 8.28603C37.0399 9.32149 36.508 9.41538 35.1777 8.78724C34.439 8.43821 34.0308 7.86835 33.9299 7.044C33.909 6.87045 33.888 6.69626 33.8671 6.52271C33.8252 6.17108 33.7814 5.80715 33.7345 5.44905C33.6253 4.61369 32.7989 3.67213 31.8958 3.70581H31.8812L31.8679 3.71099C31.647 3.78999 31.4122 3.87094 31.1684 3.95577C30.4328 4.21026 29.5982 4.49843 28.7966 4.852C28.6678 4.90898 28.6094 5.06763 28.5764 5.18225C28.5053 5.42962 28.5485 5.69253 28.6938 5.90235C28.8315 6.10115 29.0448 6.22289 29.2784 6.23649C29.3532 6.24102 29.4193 6.23325 29.4808 6.21318C29.7975 6.11086 30.099 5.95415 30.3903 5.80197C30.6543 5.66469 30.9273 5.52222 31.2065 5.42444C31.3753 5.36487 31.7727 5.5164 31.8253 5.63361C31.9554 5.92307 32.0126 6.2598 32.0684 6.58488C32.0919 6.72216 32.116 6.86398 32.1452 7.00191C32.3997 8.19343 32.9157 9.84342 34.4561 10.4178C35.0489 10.6386 35.6385 10.7481 36.2135 10.7481C37.4264 10.7481 38.5764 10.2617 39.5577 9.31242C39.7849 9.09289 39.9829 8.8397 40.1746 8.59492C40.273 8.46929 40.3751 8.33913 40.4786 8.21674C40.8048 7.83014 41.1501 7.63005 41.5042 7.62163C41.8673 7.61256 42.2329 7.80424 42.5914 8.19084C43.235 8.88373 43.8303 9.45359 44.4123 9.93408C44.6358 10.118 45.1403 10.2112 45.3898 10.0539C45.6176 9.91012 45.6182 9.3571 45.5675 9.09289L45.5694 9.09354Z" fill="white"/>
</svg>
