<svg width="152" height="221" viewBox="0 0 152 221" fill="none" xmlns="http://www.w3.org/2000/svg">
<g clip-path="url(#clip0_1_289)">
<path d="M150.532 187.881C150.339 187.738 150.145 187.617 149.938 187.517C148.67 186.902 147.352 186.437 146.035 185.966C145.541 185.794 145.046 185.615 144.559 185.43C143.722 185.115 142.884 184.815 142.046 184.515C136.216 182.406 130.702 180.419 127.021 175.443C125.524 173.42 123.548 171.833 121.629 170.296L120.941 169.746C116.866 166.458 111.868 165.021 106.869 165.7C101.742 166.401 97.2299 169.217 94.1505 173.635C91.508 177.423 91.4722 181.591 91.4435 185.279C91.4292 186.938 91.4149 188.661 91.1643 190.248C91.0568 190.934 90.9566 191.627 90.8563 192.321L90.8277 192.535C90.441 195.23 90.0399 198.018 89.1376 200.484C88.0347 203.465 86.6383 206.424 85.2848 209.277L85.2418 209.362C84.318 211.314 83.3655 213.33 82.5062 215.36C81.876 216.84 82.3558 219.442 83.8095 220.385C84.3108 220.707 84.8837 220.907 85.5283 220.979C85.7001 221 85.8792 221.007 86.0654 221.007C86.5953 221.007 87.161 220.929 87.7483 220.764C90.1402 220.106 92.5894 218.241 93.4416 216.432C94.0646 215.103 94.6304 213.773 95.2462 212.286C97.8745 206.031 100.137 200.62 107.07 197.975C108.939 197.26 110.858 196.46 112.548 195.752C123.663 191.127 133.259 187.131 144.266 195.058L144.681 195.28C146.135 195.83 147.231 195.366 147.589 195.216C148.19 194.994 148.405 194.908 148.806 194.744C148.978 194.672 149.193 194.587 149.522 194.458C150.833 193.943 151.778 192.764 151.971 191.391C152.172 190.033 151.642 188.725 150.546 187.889L150.532 187.881ZM102.372 187.302C103.331 184.243 104.32 181.076 105.594 178.131C106.024 177.137 106.733 175.915 107.678 175.686C108.445 175.508 109.533 175.951 110.801 176.98C113.1 178.846 115.298 180.955 117.64 183.199L117.769 183.321C118.148 183.685 118.535 184.057 118.929 184.429L101.584 189.797C101.849 188.975 102.107 188.153 102.357 187.352L101.09 186.959L102.372 187.295V187.302Z" fill="white"/>
<path d="M28.5308 125.211C31.1662 122.681 33.7658 120.036 36.2866 117.477C44.1569 109.492 52.285 101.236 62.3969 95.2668L62.669 95.1095C63.3136 94.745 64.044 94.3304 64.352 93.6513C64.445 93.4511 64.5453 93.2438 64.6527 93.0365C65.2758 91.7712 65.9776 90.3344 65.5479 89.1406C65.0824 87.8253 63.0701 86.4028 61.4802 86.2813C57.3625 85.9524 53.0012 85.6737 48.8548 86.1955C42.8679 86.9461 37.726 85.9953 33.5652 83.379C29.5047 80.827 25.4729 80.3338 21.7275 80.1765C19.8512 80.0908 18.1826 80.6912 17.0225 81.8421C15.891 82.9644 15.2966 84.5656 15.361 86.3456C15.4899 90.1486 18.5264 90.4988 21.2047 90.8062L21.4196 90.8276C24.7997 91.2208 28.3732 91.7498 31.5601 93.0008C32.1258 93.2224 32.6915 93.4583 33.243 93.6942C36.4155 95.0309 39.6882 96.4177 43.6198 94.8665L43.7057 94.9809C43.5983 95.1381 43.498 95.3025 43.3978 95.4598C43.0111 96.0674 42.6458 96.6393 42.1875 97.1039C35.241 104.138 28.273 111.158 21.305 118.177L12.8617 126.691C11.0571 128.507 10.8852 130.044 11.0571 131.009C11.2289 131.981 11.9307 133.368 14.2868 134.476C15.8122 135.191 17.5309 135.591 19.0133 135.884C21.1617 136.313 23.3531 136.699 25.4729 137.078C29.3042 137.757 33.2645 138.465 37.0743 139.415C37.8477 139.608 38.6212 139.801 39.3946 140.002C44.8444 141.388 50.4374 142.811 56.231 142.811C57.5773 142.811 58.938 142.732 60.3129 142.561C61.8168 142.368 63.9724 141.045 64.3878 139.68C64.8318 138.222 63.6 136.191 62.5759 135.212C61.1222 133.818 59.3462 132.717 57.6274 131.652L56.8612 131.173C51.97 128.099 47.3151 126.784 42.2162 127.034C38.879 127.192 35.4988 126.87 31.911 126.534C30.6148 126.412 29.2756 126.284 27.9078 126.176C27.9579 126.091 28.0009 126.019 28.0438 125.941C28.273 125.547 28.3947 125.333 28.5236 125.211H28.5308Z" fill="white"/>
<path d="M88.4573 152.404C87.9846 151.21 85.4566 150.181 84.0387 150.374C81.6826 150.674 79.3552 151.625 77.8083 152.897C74.5857 155.578 71.4562 158.409 68.4341 161.154C66.4217 162.976 64.3378 164.864 62.2323 166.701C61.2727 167.537 59.8261 168.459 58.9238 168.295C55.25 167.644 51.612 166.579 48.2319 165.536C45.0379 164.549 41.7079 163.448 39.0223 162.562C36.1721 161.625 33.2288 160.653 30.307 159.738C27.2061 158.773 24.8285 159.838 23.5968 162.683C22.365 165.521 23.3819 168.159 26.3181 169.739C26.5329 169.853 26.7478 169.975 26.9841 170.103C27.8435 170.582 28.7315 171.076 29.6839 171.376C35.2411 173.12 40.7339 174.8 46.5418 176.58L47.172 176.773C49.0984 177.359 51.0534 177.959 53.0371 178.567C52.987 179.117 52.9584 179.689 52.9226 180.283C52.8295 181.834 52.7364 183.442 52.3855 185.008C52.0202 186.63 51.5118 188.26 51.0033 189.869C50.4805 191.534 49.9434 193.257 49.5639 194.994C48.9337 197.889 48.3321 200.963 48.5326 203.915C48.6544 205.688 49.5281 207.025 50.9389 207.597C51.39 207.783 51.8698 207.868 52.3568 207.868C53.4668 207.868 54.6198 207.397 55.6224 206.496C56.8828 205.359 57.957 203.901 58.6588 202.393L59.3033 200.999C61.0435 197.246 62.8482 193.371 64.1444 189.397C66.3859 182.506 69.3078 175.35 75.3878 169.682C79.3337 166.007 83.344 161.861 87.3186 157.358C88.4214 156.107 88.9729 153.698 88.4573 152.39V152.404Z" fill="white"/>
<path d="M120.605 53.3771L120.426 53.0697C119.301 51.4971 118.22 49.4455 117.067 47.2724C113.479 40.4814 109.025 32.0534 99.8153 32.7897C86.2373 32.8112 74.3351 38.0867 68.7492 46.579C65.5839 51.3899 62.8626 59.5533 67.8827 71.1623L67.983 71.3839L68.1334 71.577C71.1841 75.5658 81.7614 76.5379 87.7913 76.7595C88.8082 76.7953 89.9755 76.8167 91.2216 76.8167C96.9722 76.8167 104.499 76.3235 107.156 74.4864L107.356 74.3291C108.137 73.6214 109.125 72.8065 110.178 71.9487C116.021 67.1521 124.014 60.5827 120.612 53.3771H120.605ZM81.432 47.7442C83.3871 46.4217 86.0081 46.2645 88.7867 46.0929C90.0758 46.0143 91.4006 45.9356 92.6968 45.7355C103.761 45.1493 108.445 49.2525 109.139 53.2842C109.97 58.1094 105.53 64.5358 95.4611 67.5524C85.9437 68.2101 77.6007 65.3078 75.574 60.597C74.0773 57.13 76.1613 52.5694 81.432 47.7442Z" fill="white"/>
<path d="M128.84 112.173L128.661 111.865C127.537 110.293 126.455 108.241 125.302 106.068C121.714 99.2769 117.267 90.8418 108.051 91.5852C94.4727 91.6067 82.5705 96.8893 76.9846 105.374C73.8193 110.185 71.0979 118.349 76.1181 129.958L76.2183 130.179L76.3687 130.372C79.4195 134.361 89.9968 135.333 96.0267 135.555C97.0436 135.591 98.2109 135.612 99.4641 135.612C105.215 135.612 112.741 135.119 115.398 133.282L115.599 133.125C116.379 132.417 117.368 131.609 118.42 130.744C124.264 125.948 132.263 119.378 128.854 112.173H128.84ZM89.6674 106.54C91.6224 105.217 94.2435 105.06 97.0149 104.888C98.304 104.81 99.636 104.731 100.932 104.524C111.997 103.945 116.68 108.041 117.375 112.073C118.205 116.898 113.765 123.324 103.696 126.341C94.1719 126.998 85.836 124.096 83.8094 119.393C82.3126 115.926 84.3966 111.358 89.6674 106.54Z" fill="white"/>
<path d="M55.7368 58.667C55.6651 58.1452 55.4575 57.223 54.8702 56.9442C53.6385 56.3509 52.4569 55.5646 51.3182 54.814C48.7831 53.1341 46.162 51.3971 42.524 51.2827C35.9857 51.0754 29.4116 50.4606 23.0523 49.8745C21.0757 49.6886 19.1207 49.5099 17.1728 49.3383C16.958 49.3169 16.7718 49.2025 16.6643 49.0095C16.5569 48.8165 16.5498 48.5949 16.65 48.3947L20.2164 41.2606C23.6324 34.4125 26.9624 27.7573 30.3067 21.1164C33.7156 14.3612 33.78 8.28506 30.5073 2.55204C29.4259 0.657717 28.631 -0.20724 25.9741 0.0429543C21.3121 0.479007 20.4097 3.6529 19.9228 6.59089C19.7008 7.92764 19.6148 9.28584 19.5361 10.6011C19.4573 11.8736 19.3713 13.196 19.1637 14.4541C17.5165 24.5119 15.139 34.8557 5.85068 41.0676C1.28889 44.12 -0.386873 47.587 0.0714541 53.0269L0.15739 54.1063C0.579911 59.4247 0.895011 59.7107 6.87475 60.2754C7.14688 60.304 7.41185 60.3111 7.68399 60.3183L17.3017 60.7829C25.7593 61.1904 34.2097 61.5978 42.6673 62.0339C43.7128 62.0839 44.7799 62.1912 45.8111 62.2984C47.315 62.4485 48.8547 62.6058 50.4015 62.6058C50.7238 62.6058 51.0461 62.6058 51.3612 62.5843C52.8006 62.52 54.1541 61.412 55.4217 60.2825C55.5434 60.1753 55.9015 59.8536 55.7368 58.6741V58.667Z" fill="white"/>
</g>
<defs>
<clipPath id="clip0_1_289">
<rect width="152" height="221" fill="white"/>
</clipPath>
</defs>
</svg>
