<svg width="153" height="221" viewBox="0 0 153 221" fill="none" xmlns="http://www.w3.org/2000/svg">
<path d="M150.534 187.881C150.34 187.738 150.147 187.617 149.939 187.517C148.672 186.902 147.354 186.437 146.036 185.965C145.542 185.794 145.048 185.615 144.561 185.429C143.723 185.115 142.885 184.815 142.047 184.514C136.218 182.406 130.704 180.418 127.023 175.443C125.526 173.42 123.55 171.833 121.63 170.296L120.943 169.746C116.868 166.457 111.869 165.021 106.871 165.7C101.743 166.4 97.2316 169.217 94.1523 173.634C91.5097 177.423 91.4739 181.591 91.4453 185.279C91.4309 186.938 91.4166 188.66 91.166 190.247C91.0585 190.934 90.9583 191.627 90.858 192.32L90.8294 192.535C90.4427 195.23 90.0416 198.018 89.1393 200.484C88.0364 203.465 86.64 206.424 85.2865 209.276L85.2435 209.362C84.3197 211.314 83.3672 213.33 82.5079 215.36C81.8777 216.839 82.3575 219.441 83.8112 220.385C84.3125 220.707 84.8854 220.907 85.53 220.978C85.7018 221 85.8809 221.007 86.0671 221.007C86.597 221.007 87.1628 220.928 87.75 220.764C90.1419 220.106 92.5911 218.24 93.4433 216.432C94.0663 215.102 94.6321 213.773 95.2479 212.286C97.8762 206.031 100.139 200.62 107.071 197.975C108.94 197.26 110.86 196.459 112.55 195.752C123.664 191.127 133.26 187.131 144.267 195.058L144.683 195.28C146.137 195.83 147.232 195.366 147.59 195.215C148.192 194.994 148.407 194.908 148.808 194.744C148.98 194.672 149.195 194.586 149.524 194.458C150.834 193.943 151.78 192.764 151.973 191.391C152.174 190.033 151.644 188.725 150.548 187.888L150.534 187.881ZM102.373 187.302C103.333 184.243 104.321 181.076 105.596 178.131C106.026 177.137 106.735 175.915 107.68 175.686C108.446 175.507 109.535 175.951 110.802 176.98C113.101 178.846 115.3 180.954 117.642 183.199L117.77 183.321C118.15 183.685 118.537 184.057 118.931 184.429L101.586 189.797C101.851 188.975 102.109 188.153 102.359 187.352L101.092 186.959L102.373 187.295V187.302Z" fill="#1D1D1B"/>
<path d="M28.5335 125.211C31.1689 122.68 33.7684 120.036 36.2892 117.476C44.1596 109.492 52.2877 101.235 62.3996 95.2663L62.6717 95.1091C63.3162 94.7445 64.0467 94.3299 64.3546 93.6508C64.4477 93.4506 64.548 93.2433 64.6554 93.036C65.2785 91.7707 65.9803 90.3339 65.5506 89.1401C65.0851 87.8248 63.0728 86.4023 61.4829 86.2808C57.3651 85.9519 53.0039 85.6732 48.8574 86.195C42.8705 86.9456 37.7287 85.9948 33.5679 83.3785C29.5074 80.8265 25.4756 80.3333 21.7302 80.176C19.8539 80.0903 18.1853 80.6907 17.0252 81.8416C15.8937 82.9639 15.2993 84.5652 15.3637 86.3451C15.4926 90.1481 18.5291 90.4983 21.2074 90.8057L21.4222 90.8272C24.8024 91.2203 28.3759 91.7493 31.5627 93.0003C32.1285 93.2219 32.6942 93.4578 33.2457 93.6937C36.4181 95.0304 39.6909 96.4172 43.6225 94.866L43.7084 94.9804C43.601 95.1376 43.5007 95.3021 43.4005 95.4593C43.0138 96.0669 42.6485 96.6388 42.1902 97.1035C35.2437 104.137 28.2757 111.157 21.3077 118.177L12.8644 126.691C11.0597 128.506 10.8879 130.043 11.0597 131.008C11.2316 131.981 11.9334 133.367 14.2895 134.475C15.8149 135.19 17.5336 135.59 19.016 135.884C21.1644 136.312 23.3558 136.698 25.4756 137.077C29.3069 137.756 33.2671 138.464 37.077 139.415C37.8504 139.608 38.6238 139.801 39.3973 140.001C44.8471 141.388 50.4401 142.81 56.2336 142.81C57.58 142.81 58.9406 142.732 60.3156 142.56C61.8195 142.367 63.9751 141.045 64.3904 139.679C64.8344 138.221 63.6027 136.191 62.5786 135.212C61.1249 133.818 59.3488 132.717 57.6301 131.652L56.8638 131.173C51.9726 128.099 47.3177 126.784 42.2189 127.034C38.8817 127.191 35.5015 126.869 31.9136 126.533C30.6174 126.412 29.2783 126.283 27.9104 126.176C27.9606 126.09 28.0035 126.019 28.0465 125.94C28.2757 125.547 28.3974 125.332 28.5263 125.211H28.5335Z" fill="#1D1D1B"/>
<path d="M88.4594 152.403C87.9868 151.209 85.4588 150.18 84.0409 150.373C81.6848 150.673 79.3574 151.624 77.8105 152.896C74.5879 155.577 71.4584 158.408 68.4363 161.153C66.4239 162.976 64.34 164.863 62.2345 166.7C61.2749 167.536 59.8283 168.458 58.926 168.294C55.2522 167.644 51.6142 166.578 48.2341 165.535C45.0401 164.548 41.7101 163.447 39.0245 162.561C36.1743 161.625 33.231 160.652 30.3092 159.737C27.2083 158.772 24.8307 159.837 23.599 162.683C22.3672 165.52 23.3841 168.158 26.3203 169.738C26.5351 169.852 26.75 169.974 26.9863 170.103C27.8456 170.582 28.7337 171.075 29.6861 171.375C35.2433 173.119 40.7361 174.799 46.544 176.579L47.1742 176.772C49.1006 177.358 51.0556 177.959 53.0393 178.566C52.9892 179.117 52.9606 179.689 52.9248 180.282C52.8317 181.833 52.7386 183.442 52.3876 185.007C52.0224 186.63 51.514 188.26 51.0055 189.868C50.4827 191.534 49.9456 193.256 49.5661 194.993C48.9359 197.888 48.3343 200.962 48.5348 203.915C48.6566 205.687 49.5303 207.024 50.941 207.596C51.3922 207.782 51.872 207.868 52.359 207.868C53.469 207.868 54.622 207.396 55.6246 206.495C56.885 205.359 57.9592 203.9 58.661 202.392L59.3055 200.998C61.0457 197.245 62.8504 193.371 64.1466 189.396C66.3881 182.505 69.31 175.35 75.39 169.681C79.3359 166.007 83.3462 161.861 87.3208 157.357C88.4236 156.106 88.9751 153.697 88.4594 152.389V152.403Z" fill="#1D1D1B"/>
<path d="M120.607 53.3766L120.428 53.0693C119.303 51.4966 118.222 49.445 117.069 47.2719C113.481 40.4809 109.027 32.0529 99.8172 32.7892C86.2393 32.8107 74.3371 38.0862 68.7512 46.5785C65.5859 51.3894 62.8645 59.5529 67.8847 71.1619L67.9849 71.3835L68.1353 71.5765C71.1861 75.5653 81.7634 76.5375 87.7933 76.7591C88.8102 76.7948 89.9775 76.8162 91.2236 76.8162C96.9741 76.8162 104.501 76.323 107.158 74.4859L107.358 74.3286C108.139 73.6209 109.127 72.806 110.18 71.9482C116.023 67.1516 124.015 60.5822 120.614 53.3766H120.607ZM81.434 47.7437C83.389 46.4212 86.0101 46.264 88.7887 46.0924C90.0777 46.0138 91.4026 45.9351 92.6988 45.735C103.763 45.1488 108.447 49.252 109.141 53.2837C109.972 58.1089 105.532 64.5353 95.4631 67.5519C85.9456 68.2096 77.6026 65.3073 75.576 60.5965C74.0792 57.1295 76.1632 52.5689 81.434 47.7437Z" fill="#1D1D1B"/>
<path d="M128.843 112.172L128.664 111.865C127.54 110.292 126.458 108.241 125.305 106.068C121.717 99.2767 117.27 90.8415 108.054 91.585C94.4756 91.6064 82.5734 96.8891 76.9875 105.374C73.8222 110.185 71.1009 118.349 76.121 129.958L76.2213 130.179L76.3716 130.372C79.4224 134.361 89.9997 135.333 96.0296 135.555C97.0465 135.591 98.2138 135.612 99.4671 135.612C105.218 135.612 112.744 135.119 115.401 133.282L115.602 133.124C116.382 132.417 117.37 131.609 118.423 130.744C124.267 125.947 132.266 119.378 128.857 112.172H128.843ZM89.6703 106.539C91.6254 105.217 94.2464 105.06 97.0179 104.888C98.3069 104.81 99.6389 104.731 100.935 104.524C111.999 103.945 116.683 108.041 117.378 112.072C118.208 116.897 113.768 123.324 103.699 126.341C94.1748 126.998 85.839 124.096 83.8123 119.392C82.3156 115.925 84.3995 111.357 89.6703 106.539Z" fill="#1D1D1B"/>
<path d="M55.7382 58.6663C55.6666 58.1444 55.4589 57.2223 54.8717 56.9435C53.6399 56.3502 52.4583 55.5639 51.3197 54.8133C48.7845 53.1334 46.1635 51.3963 42.5255 51.282C35.9872 51.0747 29.413 50.4599 23.0537 49.8737C21.0772 49.6879 19.1222 49.5092 17.1743 49.3376C16.9594 49.3162 16.7732 49.2018 16.6658 49.0088C16.5584 48.8158 16.5512 48.5942 16.6515 48.394L20.2178 41.2599C23.6338 34.4117 26.9639 27.7566 30.3082 21.1157C33.717 14.3605 33.7815 8.28433 30.5087 2.55131C29.4274 0.656984 28.6325 -0.207972 25.9756 0.0422219C21.3135 0.478274 20.4112 3.65216 19.9242 6.59016C19.7022 7.92691 19.6163 9.2851 19.5375 10.6004C19.4587 11.8728 19.3728 13.1953 19.1651 14.4534C17.518 24.5112 15.1404 34.8549 5.85214 41.0669C1.29035 44.1193 -0.385409 47.5862 0.0729189 53.0262L0.158855 54.1056C0.581376 59.424 0.896476 59.7099 6.87622 60.2747C7.14835 60.3032 7.41332 60.3104 7.68545 60.3175L17.3032 60.7822C25.7607 61.1896 34.2112 61.5971 42.6687 62.0332C43.7143 62.0832 44.7813 62.1904 45.8126 62.2977C47.3165 62.4478 48.8561 62.605 50.403 62.605C50.7253 62.605 51.0475 62.605 51.3626 62.5836C52.8021 62.5193 54.1556 61.4113 55.4231 60.2818C55.5449 60.1746 55.9029 59.8529 55.7382 58.6734V58.6663Z" fill="#1D1D1B"/>
</svg>
