<svg width="133" height="60" viewBox="0 0 133 60" fill="none" xmlns="http://www.w3.org/2000/svg">
<g clip-path="url(#clip0_1_180)">
<path d="M127.595 34.0959C127.227 33.9154 126.858 33.736 126.456 33.5393C126.609 33.2639 126.689 33.118 126.822 32.8785C126.507 32.8368 126.232 32.7998 125.876 32.7524C125.931 33.0359 125.964 33.2072 125.997 33.3796C125.663 33.3796 125.361 33.4131 125.071 33.3669C124.906 33.3402 124.645 33.1933 124.634 33.081C124.608 32.7998 124.6 32.426 124.759 32.2327C125.517 31.3093 126.257 30.3464 127.147 29.5595C128.459 28.3999 128.965 27.0483 128.74 25.3286C128.632 24.5139 128.697 23.6702 128.736 22.8428C128.766 22.2295 128.646 21.7157 128.17 21.2921C127.929 21.078 127.747 20.798 127.536 20.5434C126.372 21.2041 125.252 21.8777 124.098 22.4875C119.914 24.7002 115.488 26.3261 111.018 27.8456C109.943 28.2113 108.863 28.5666 107.797 28.9566C107.404 29.1001 107.101 29.0492 106.721 28.864C105.392 28.2194 104.032 27.6373 102.615 27.0008C102.377 27.9093 102.069 28.6696 101.196 28.8721C100.797 28.9647 100.307 28.9207 99.924 28.7714C98.8618 28.3594 98.5838 27.3839 99.0912 25.898C96.6771 25.2742 94.2712 24.6516 91.7066 23.9885C92.1028 24.8263 92.3877 25.5462 91.98 26.2648C91.79 26.6004 91.4923 26.9268 91.1633 27.1223C90.4197 27.5644 89.4246 27.3167 88.8732 26.6351C88.1759 25.7718 88.3207 25.0844 89.552 23.5684C88.3381 23.3346 87.1565 23.102 85.9739 22.8822C85.1225 22.7236 84.2699 22.5651 83.4127 22.4436C83.1845 22.4112 82.9169 22.4656 82.7026 22.5593C81.8987 22.9123 81.1724 22.7896 80.5052 22.2272C80.2747 22.0327 79.948 21.8939 79.648 21.8522C77.3776 21.5351 75.1061 21.2203 72.8287 20.9588C70.439 20.6834 68.0424 20.4681 65.5936 20.2205C65.5194 21.012 65.3862 21.7862 64.6287 22.1543C64.2522 22.3371 63.7726 22.4331 63.3602 22.3869C62.3339 22.2723 61.7652 21.3465 61.8324 19.9555C56.7448 19.5365 51.6503 19.3051 46.4516 19.4174C46.9103 20.5538 46.9439 21.5976 45.7647 22.2862C45.0731 22.6901 44.3735 22.5859 43.763 22.1068C42.9047 21.4344 42.885 20.548 43.3113 19.503C42.3255 19.562 41.4289 19.5817 40.5405 19.6766C37.5322 19.9983 34.5054 20.2135 31.5284 20.7204C28.1564 21.2944 24.8157 22.0744 21.4911 22.8845C18.0821 23.7142 14.8248 25.0196 11.5941 26.3782C11.4701 26.4303 11.3555 26.5044 11.2338 26.5611C10.6014 26.855 10.0094 27.3468 9.10359 26.84C9.25302 27.1246 9.31441 27.2427 9.36886 27.3468C8.63098 28.0794 7.75525 28.2703 6.75211 27.944C6.66176 28.2483 6.59689 28.5087 6.50538 28.7587C6.45325 28.9022 6.38954 29.0758 6.27486 29.1568C5.61691 29.622 4.93116 30.0479 4.27668 30.5189C3.88168 30.8035 4.023 31.8613 4.47824 32.1031C6.46715 33.1655 8.4607 34.2186 10.4531 35.2763C12.0007 36.098 13.5471 36.9185 15.1781 37.7841C14.5908 38.8869 14.0174 39.962 13.4058 41.1112C12.7188 40.7466 12.0632 40.4006 11.4087 40.0523C7.92322 38.1926 4.44233 36.3225 0.945226 34.4824C0.505047 34.251 0.334768 33.9952 0.371835 33.5046C0.419328 32.8912 0.384577 32.2709 0.389211 31.653C0.395002 30.8903 0.613934 30.6149 1.34834 30.3892C1.48734 30.3464 1.62403 30.2527 1.7306 30.1497C2.18468 29.7076 2.21595 29.7088 2.53798 30.3325C2.79513 30.2782 3.06851 30.2203 3.41023 30.1485C3.49826 30.38 3.58977 30.6219 3.68244 30.8626C3.73225 30.866 3.78206 30.8695 3.83187 30.873C3.85967 30.2527 3.88747 29.6324 3.91527 29.011C3.96277 29.0515 4.0091 29.092 4.05659 29.1313C4.31143 28.9728 4.55701 28.7969 4.82459 28.6615C5.09912 28.5214 5.3864 28.3907 5.68294 28.3155C5.87407 28.2668 6.093 28.3247 6.41618 28.3398C6.30035 28.1072 6.2239 27.9544 6.13238 27.7715C5.88797 27.885 5.68873 27.9775 5.51613 28.0585C5.65514 27.6373 5.79182 27.2219 5.95052 26.7404C6.19841 26.7474 6.56561 26.5449 6.77528 27.0992C6.81814 27.2126 7.45176 27.1084 7.81201 27.0865C7.86993 27.083 7.91511 26.9592 7.97882 26.943C8.45722 26.8203 8.7167 26.5564 8.75608 26.0299C8.76651 25.8887 9.10012 25.773 9.28893 25.641C9.34106 25.0022 9.39434 24.3426 9.45342 23.6182C9.08853 23.7837 8.70511 23.9572 8.32285 24.1297C8.28578 24.051 8.24756 23.9711 8.21049 23.8924C9.30978 23.3717 10.3952 22.8162 11.5118 22.3359C15.0031 20.8361 18.5987 19.6199 22.2951 18.7577C25.5535 17.9974 28.8375 17.3193 32.1388 16.7892C34.8367 16.3564 37.5727 16.1053 40.3018 15.9375C43.6518 15.7315 47.0111 15.6771 50.3669 15.5949C51.465 15.5683 52.5654 15.6771 53.6659 15.6771C53.9427 15.6771 54.274 15.5637 54.4883 15.3901C58.5368 12.1105 61.8127 8.17813 64.3344 3.62319C64.8627 2.66845 65.3295 1.67785 65.7998 0.693026C65.9307 0.419915 66.0685 0.287988 66.3917 0.268315C67.7006 0.191936 69.0073 0.0646388 70.3174 -0.00363901C70.534 -0.0152115 70.8607 0.107457 70.9695 0.275259C73.2295 3.76553 75.976 6.82877 79.1383 9.51707C80.1322 10.3619 81.2257 11.0898 82.2543 11.8941C82.4628 12.0572 82.6667 12.3003 82.7432 12.5468C83.349 14.4909 83.9143 16.4467 84.5213 18.3909C84.5769 18.5702 84.812 18.7832 84.9973 18.8214C87.972 19.4486 90.9641 19.9994 93.9283 20.6707C98.3614 21.6751 102.724 22.9261 106.917 24.7118C107.173 24.8206 107.504 24.802 107.794 24.7754C108.613 24.6979 109.352 24.3623 110.09 24.0209C110.316 23.9167 110.579 23.7594 110.796 23.7964C111.663 23.9434 112.183 23.1541 113.019 23.0685C113.853 22.9828 114.627 22.3417 115.436 21.961C116.062 21.6659 116.694 21.3777 117.338 21.1266C117.59 21.0282 117.889 21.0549 118.159 20.9901C118.3 20.9565 118.436 20.8628 118.553 20.769C118.659 20.6834 118.736 20.5619 118.838 20.4427C119.308 21.1 120.025 21.0896 120.347 20.3443C120.748 19.4185 121.534 19.113 122.304 18.6779C124.044 17.6942 125.756 16.6619 127.456 15.6135C127.9 15.3404 128.175 15.3114 128.601 15.6841C129.875 16.8031 131.199 17.8678 132.52 18.9336C132.845 19.1952 133.009 19.4555 133.006 19.8965C132.985 22.903 132.998 25.9095 132.991 28.9172C132.991 29.0989 132.972 29.3304 132.864 29.4542C132.185 30.2376 131.478 30.9968 130.785 31.7571C130.001 31.2722 130.007 31.278 129.276 31.9168C129.141 32.0349 128.942 32.0788 128.643 32.2166C129.13 32.3149 129.481 32.3867 129.921 32.4758C129.089 33.1389 128.737 33.1586 128.02 32.772C127.851 32.6806 127.577 32.7223 127.376 32.7871C127.317 32.8056 127.316 33.1157 127.347 33.2824C127.4 33.5624 127.501 33.8344 127.581 34.1098L127.599 34.0925L127.595 34.0959ZM79.7025 17.9002C79.4638 16.9871 79.2322 16.0197 78.9484 15.0696C78.8615 14.7791 78.6796 14.4713 78.4514 14.2757C77.5873 13.5374 76.6641 12.8673 75.8034 12.1255C73.2087 9.88739 70.5271 7.73143 68.6424 4.78391C67.8049 7.00005 66.3129 8.81924 64.8233 10.6257C63.3243 12.4438 61.742 14.1935 60.2419 15.9213C66.7056 16.5786 73.1913 17.2382 79.7025 17.9014V17.9002ZM122.482 22.4945C122.66 22.3452 122.969 22.1253 123.221 21.8534C123.32 21.7481 123.295 21.527 123.326 21.3581C123.141 21.3662 122.916 21.3129 122.78 21.3986C122.638 21.4877 122.581 21.711 122.414 22.0015C122.08 21.8059 121.759 21.6161 121.354 21.3777C121.332 21.49 121.226 21.7018 121.276 21.8673C121.318 22.0073 121.528 22.1172 121.685 22.1959C121.897 22.3012 122.13 22.3649 122.48 22.4933L122.482 22.4945ZM65.1534 3.3466C65.6353 3.20079 65.9295 3.11168 66.3094 2.99711C66.2677 2.84899 66.1994 2.60712 66.1322 2.36525C65.9237 2.42543 65.6445 2.42312 65.5241 2.56083C65.3445 2.76451 65.2773 3.06771 65.1534 3.3466Z" fill="black"/>
<path d="M63.8676 59.6436C63.0046 58.0477 62.1845 56.5016 61.3343 54.9741C61.0169 54.4036 60.6126 53.8816 60.2755 53.3215C60.0717 52.9836 59.8342 52.8876 59.4276 52.9119C56.7703 53.0716 54.1107 53.2914 51.4511 53.2995C47.6517 53.3111 43.8406 53.3018 40.0528 53.0438C32.7076 52.5427 25.4921 51.2801 18.5234 48.8059C15.8047 47.8408 13.0281 47.0272 10.3523 45.9591C8.46534 45.2057 6.69652 44.1538 4.88831 43.2083C3.40329 42.4318 1.93795 41.6182 0.46683 40.8174C0.316243 40.7353 0.181872 40.6242 0.0011673 40.5003C0.666069 39.4704 1.3217 38.4566 1.96344 37.4625C2.048 37.4625 2.09202 37.4498 2.12098 37.4649C5.22423 39.0954 8.28463 40.8139 11.4447 42.3253C13.2749 43.2002 15.2487 43.7916 17.1867 44.4188C19.8579 45.2821 22.5279 46.1813 25.2524 46.8374C28.2409 47.5561 31.2817 48.0826 34.3177 48.5733C39.2802 49.3765 44.297 49.5408 49.3128 49.5524C51.7615 49.557 54.2103 49.3869 56.658 49.2931C56.7495 49.2897 56.8398 49.263 57.0205 49.2318C56.3973 48.549 55.8205 47.916 55.2181 47.2575C56.1297 46.2137 57.0136 45.2011 57.96 44.1179C61.0864 47.6278 64.3993 50.9202 66.4774 55.2553C67.7875 52.9327 69.8286 51.2778 71.7352 49.4482C69.7903 47.9831 67.8709 46.5377 65.9295 45.0761C66.9732 44.089 67.9891 43.1285 69.0617 42.1135C71.2313 43.3449 73.5585 44.663 75.8833 45.9857C77.0548 46.6523 78.2978 46.8494 79.6121 46.5771C81.8941 46.1049 84.1761 45.6374 86.4581 45.1664C87.7728 44.8956 89.0864 44.6132 90.4034 44.3575C90.5807 44.3227 90.7961 44.3783 90.9699 44.45C91.4541 44.6491 91.651 44.5507 91.7263 44.0832C96.5451 42.6077 101.353 41.1843 106.122 39.637C107.123 39.3118 107.986 39.2991 108.957 39.5687C113.312 40.7758 117.491 42.4329 121.537 44.435C121.845 44.5877 122.154 44.7359 122.488 44.8979C122.066 45.1664 121.689 45.4059 121.348 45.6223C121.584 45.9313 121.766 46.135 121.909 46.363C122.073 46.6291 122.233 46.6187 122.477 46.4625C122.752 46.2866 123.059 46.1628 123.395 46.0841C123.387 46.5771 123.167 46.7773 122.701 46.7599C122.524 46.753 122.343 46.8814 122.163 46.9485C122.308 47.0423 122.451 47.1383 122.598 47.2274C122.758 47.3246 122.922 47.4138 123.097 47.5144C122.876 47.8489 122.68 48.1463 122.483 48.4426C122.556 48.4969 122.628 48.5513 122.701 48.6057C122.845 48.4217 122.97 48.218 123.138 48.0618C123.256 47.953 123.434 47.9091 123.586 47.8361C123.638 47.9785 123.756 48.1336 123.731 48.262C123.645 48.7087 123.867 48.9506 124.228 49.1103C124.54 49.2492 124.895 49.314 125.173 49.5003C125.354 49.6218 125.585 49.9979 125.526 50.0928C125.224 50.5788 125.332 50.9214 125.746 51.2419C125.773 51.2628 125.75 51.3473 125.75 51.5671C124.675 50.9654 123.676 50.4064 122.677 49.8463C122.685 49.8035 122.693 49.7595 122.702 49.7167C122.914 49.6912 123.127 49.6658 123.516 49.6183C123.168 49.3695 122.947 49.0976 122.685 49.0489C122.116 48.9448 122.123 48.4275 121.931 48.0931C121.664 47.629 121.728 47.5931 121.15 47.4728C120.777 48.2759 121.797 48.5594 121.808 49.2005C121.237 49.2677 120.937 49.0027 120.907 48.4703C120.899 48.3303 120.702 48.0757 120.623 48.0873C120.109 48.1637 119.892 47.7713 119.578 47.5144C119.432 47.3941 119.226 47.3408 119.039 47.283C119.015 47.2749 118.886 47.467 118.903 47.4843C119.019 47.6197 119.155 47.7389 119.292 47.8558C119.375 47.9264 119.471 47.9831 119.562 48.0468C119.534 48.0977 119.507 48.1486 119.48 48.1995C118.761 47.8801 118.054 47.5318 117.322 47.2483C114.631 46.2079 111.929 45.1941 109.237 44.1549C108.921 44.0323 108.797 44.1758 108.627 44.3875C105.944 47.7158 103.871 51.3889 102.374 55.3907C102.165 55.9473 102.007 56.5248 101.762 57.0641C101.672 57.2643 101.425 57.4807 101.214 57.527C99.8986 57.8151 98.5745 58.0663 97.2482 58.3012C97.093 58.3289 96.8416 58.2352 96.7432 58.1114C93.9226 54.5447 90.5112 51.6551 86.648 49.2839C86.4476 49.1612 86.1441 49.1091 85.9113 49.1496C84.6811 49.366 83.4579 49.6218 82.2335 49.8671C81.9346 49.9273 81.7748 49.9042 81.6566 49.5315C81.3925 48.7029 80.7554 48.4912 79.9573 48.8233C79.7245 48.9205 79.4384 48.8927 79.041 48.9379C79.092 49.064 79.1395 49.2503 79.2391 49.4031C79.3515 49.5755 79.5113 49.7167 79.7372 49.9666C79.838 49.9805 80.1044 50.0176 80.3708 50.0546C80.3708 50.1032 80.3708 50.1507 80.3708 50.1993C79.8554 50.3127 79.3422 50.4376 78.8244 50.5349C78.2568 50.6413 77.6707 50.6737 77.1182 50.8288C76.6919 50.948 76.239 51.1297 75.9111 51.4144C73.1612 53.8087 70.819 56.5607 68.8266 59.61C68.6308 59.9097 68.4351 60.0255 68.0806 59.9919C67.352 59.9236 66.6187 59.9086 65.8901 59.8461C65.7372 59.8334 65.5449 59.7443 65.4557 59.6274C65.1059 59.1703 64.7561 58.9805 64.2742 59.4596C64.1746 59.5591 63.9997 59.5846 63.8618 59.6424L63.8676 59.6436ZM91.9128 47.7632C94.2388 49.5269 96.6285 51.044 98.3938 53.3771C99.1051 50.7455 100.643 48.6578 101.998 46.4127C101.586 46.238 101.183 46.1084 100.822 45.9047C100.238 45.576 99.6819 45.6212 99.0668 45.826C98.1564 46.1292 97.2227 46.3641 96.2949 46.6118C94.8863 46.989 93.4743 47.3536 91.9128 47.7621V47.7632Z" fill="black"/>
<path d="M33.6123 41.1578C38.1786 42.7305 42.6904 42.9157 47.1964 41.2296C49.7309 40.2806 52.0697 39.0192 53.8385 36.7903C53.1991 36.4443 52.6222 36.0231 51.977 35.8252C51.5832 35.7048 51.0804 35.9097 50.6333 36.0011C46.3358 36.8818 42.0405 37.7705 37.743 38.6547C36.653 38.8792 35.5618 39.0967 34.3224 39.3479C34.7672 38.1999 35.2189 37.1722 35.5572 36.1076C35.7819 35.4028 36.1468 35.1146 36.8905 34.9677C41.9849 33.9562 47.0667 32.8777 52.1542 31.8304C52.328 31.7945 52.5504 31.8095 52.7033 31.8905C54.6239 32.9124 56.5363 33.9516 58.4499 34.9873C58.4986 35.014 58.538 35.0579 58.5855 35.0973C58.297 36.8366 57.5348 38.3434 56.3823 39.6557C55.9757 40.1186 55.5089 40.5283 55.0907 40.9807C54.3725 41.7584 53.4481 41.829 52.4902 41.7411C51.4824 41.6496 50.4016 41.579 49.6811 42.3278C49.2166 42.8104 48.6085 42.8173 48.1613 43.198C48.0976 43.2524 47.9552 43.2119 47.8509 43.2258C47.6806 43.2478 47.5115 43.2779 47.3424 43.3045C47.3876 43.4561 47.4327 43.6065 47.4895 43.7975C46.9902 43.6528 46.6763 43.8496 46.396 44.2766C46.0798 44.758 45.5932 44.9455 45.0002 44.7453C44.648 44.6261 44.2866 44.5393 44.0295 44.9652C44.0121 44.9941 43.6877 44.8379 43.4642 44.7511C43.5128 45.0207 43.5754 45.3714 43.653 45.8007C44.0457 45.1341 44.5878 45.0855 45.2909 45.4419C44.2252 46.0102 43.1062 45.9639 41.956 46.171C42.168 45.862 42.3139 45.6491 42.5039 45.3714C42.6012 45.3841 42.7831 45.4095 43.0298 45.4431V44.795C42.3649 45.0658 41.7637 45.4917 41.0559 44.9999C41.1486 44.8332 41.2355 44.6793 41.3212 44.5254C41.2922 44.4953 41.2633 44.4652 41.2343 44.4363C40.9667 44.6747 40.6992 44.9142 40.3748 45.2047C40.5845 45.3031 40.7246 45.369 40.8972 45.4512C40.7188 45.869 40.4165 46.1282 39.9775 46.0877C38.4496 45.9477 36.9136 45.8389 35.402 45.5912C34.349 45.4188 33.3308 45.0369 32.2315 44.7314C32.7064 43.5047 33.1478 42.3625 33.6146 41.1578H33.6123Z" fill="black"/>
<path d="M25.3543 24.1216C26.8208 26.5854 28.2606 28.9959 29.6866 31.4146C29.7596 31.5384 29.7735 31.7502 29.7213 31.8844C28.3301 35.4858 26.9274 39.0825 25.5246 42.6793C25.4979 42.7475 25.4562 42.8112 25.3972 42.9246C24.2481 42.4733 23.1117 42.0266 21.9232 41.5602C22.4468 40.1981 22.953 38.8742 23.4662 37.5526C24.1183 35.8688 24.7624 34.1816 25.4423 32.5093C25.5964 32.1309 25.5802 31.8532 25.367 31.506C24.3905 29.9148 23.443 28.3074 22.4862 26.7046C22.3692 26.5078 22.2603 26.3065 22.119 26.0565C23.1928 25.4142 24.2446 24.7858 25.3543 24.1216Z" fill="black"/>
<path d="M127.577 34.1134C127.984 33.9155 128.392 33.7164 128.8 33.5186C128.838 33.5591 128.876 33.6007 128.914 33.6412C128.518 34.4744 129.245 34.7996 129.628 35.2394C130.638 36.399 131.734 37.4845 132.717 38.6637C132.957 38.9507 132.929 39.4853 132.966 39.9112C133.002 40.3301 133.003 40.7618 132.944 41.1772C132.913 41.396 132.722 41.5927 132.603 41.7987C132.538 41.779 132.473 41.7593 132.408 41.7397C132.378 41.492 132.349 41.2444 132.308 40.9007C132.049 41.146 131.832 41.352 131.583 41.5881C132.144 41.8832 131.859 42.9999 132.957 42.8541C132.941 42.905 132.924 42.9571 132.907 43.008C132.71 43.1145 132.513 43.2209 132.317 43.3274C132.344 43.3934 132.35 43.4455 132.374 43.4582C133.083 43.8192 133.104 44.06 132.431 44.4916C131.984 44.7786 131.508 44.9765 130.832 44.6258C131.034 44.3805 131.216 44.1745 131.381 43.9558C131.474 43.832 131.634 43.6005 131.601 43.5647C131.406 43.3482 131.165 43.1747 130.939 42.9872C130.917 43.1885 130.894 43.3899 130.865 43.648C130.289 43.3482 129.95 43.7811 129.75 44.3238C129.385 44.2324 129.087 44.1583 128.726 44.0681C128.726 43.1017 128.755 42.0811 128.709 41.065C128.694 40.7329 128.558 40.3533 128.354 40.0929C127.795 39.3823 127.164 38.732 126.576 38.0434C126.156 37.5527 125.76 37.0401 125.352 36.5355C126.051 36.9255 126.288 36.0113 126.866 35.9511C126.902 35.9476 126.961 35.8157 126.95 35.7567C126.811 35.0623 127.077 34.5311 127.596 34.096L127.579 34.1134H127.577ZM130.164 37.0829C130.154 37.003 130.145 36.9232 130.134 36.8433C129.976 36.7947 129.818 36.7461 129.704 36.7114C129.879 36.5031 130.036 36.3168 130.255 36.0564C129.552 35.9337 128.986 35.7358 128.531 36.3272C128.437 36.4487 128.219 36.4684 128.108 36.583C127.987 36.7079 127.924 36.8896 127.835 37.0459C127.983 37.0887 128.129 37.1558 128.279 37.1685C128.601 37.194 128.926 37.209 129.248 37.194C129.555 37.1801 129.86 37.1222 130.165 37.084L130.164 37.0829ZM128.704 38.4589C128.682 38.3825 128.66 38.3073 128.636 38.2309C128.402 38.2911 128.166 38.3431 127.939 38.423C127.919 38.4299 127.961 38.6128 127.974 38.7146C128.217 38.629 128.459 38.5445 128.702 38.4589H128.704Z" fill="black"/>
<path d="M54.6354 26.4685C53.601 26.4557 52.7786 25.6098 52.7936 24.574C52.8087 23.5661 53.6856 22.7363 54.7177 22.7537C55.7 22.7699 56.5444 23.6448 56.5259 24.6273C56.5062 25.6781 55.6814 26.4812 54.6354 26.4685Z" fill="black"/>
<path d="M63.6672 30.4113C62.6143 30.4044 61.8011 29.5897 61.8046 28.5447C61.8069 27.5494 62.6977 26.6861 63.7124 26.6954C64.6912 26.7046 65.538 27.5714 65.5345 28.5586C65.5299 29.6221 64.7283 30.4171 63.6684 30.4102L63.6672 30.4113Z" fill="black"/>
<path d="M81.8501 30.4116C80.8006 30.4127 79.9689 29.605 79.9573 28.5739C79.9469 27.5752 80.8191 26.7026 81.8339 26.6968C82.8277 26.691 83.6629 27.5242 83.6699 28.5287C83.6768 29.6073 82.9007 30.4104 81.8489 30.4116H81.8501Z" fill="black"/>
<path d="M35.8954 26.0104C34.8436 26.0023 34.0409 25.1887 34.0455 24.1368C34.0501 23.13 34.927 22.2817 35.9487 22.2956C36.9264 22.3095 37.7801 23.1832 37.7708 24.1622C37.7615 25.2107 36.9403 26.0185 35.8943 26.0104H35.8954Z" fill="black"/>
<path d="M44.9029 30.4116C43.8488 30.4081 43.0298 29.6003 43.0263 28.5588C43.0228 27.5601 43.9032 26.6933 44.9179 26.6968C45.9025 26.6991 46.7458 27.5508 46.7481 28.5449C46.7505 29.6107 45.957 30.415 44.9029 30.4127V30.4116Z" fill="black"/>
<path d="M74.798 25.543C74.7551 26.5544 73.8944 27.3865 72.9226 27.3553C71.8719 27.3217 71.0228 26.4167 71.0738 25.3845C71.1225 24.3765 72.0387 23.5606 73.0535 23.6208C74.0612 23.681 74.842 24.5397 74.7991 25.5418L74.798 25.543Z" fill="black"/>
<path d="M15.5337 28.1631C16.5287 28.1619 17.3801 29.0009 17.3859 29.9904C17.3917 31.0157 16.5403 31.8894 15.5348 31.8871C14.5039 31.8848 13.6687 31.0539 13.6571 30.0205C13.6467 29.0033 14.4935 28.1642 15.5337 28.1631Z" fill="black"/>
<path d="M74.762 34.1866C74.7921 35.198 73.9964 36.0359 72.9863 36.0532C71.9681 36.0718 71.112 35.249 71.075 34.2167C71.0391 33.2157 71.887 32.3489 72.9226 32.328C73.9651 32.3072 74.7284 33.0791 74.762 34.1866Z" fill="black"/>
<path d="M92.1734 34.1677C92.1792 35.2012 91.3359 36.061 90.327 36.0529C89.303 36.0448 88.4597 35.2046 88.4493 34.1805C88.4389 33.1713 89.2949 32.3347 90.3374 32.3335C91.3301 32.3335 92.1688 33.1702 92.1746 34.1677H92.1734Z" fill="black"/>
<path d="M48.598 44.0347C48.8309 44.162 49.0336 44.2731 49.2687 44.4015C48.9479 44.5346 48.6235 44.6816 48.2876 44.8008C48.2007 44.832 48.0814 44.773 47.9783 44.7556C48.0165 44.6434 48.0247 44.5022 48.0999 44.4258C48.2436 44.2788 48.4243 44.1678 48.5992 44.0347H48.598Z" fill="black"/>
<path d="M126.242 50.6009C126.549 50.4261 126.831 50.2653 127.271 50.0142C127.231 50.3555 127.231 50.7953 127.17 50.8046C126.858 50.8485 126.463 51.014 126.242 50.6009Z" fill="black"/>
<path d="M7.1448 25.6449C7.57223 25.6264 7.8236 25.8 7.82707 26.1923C7.82707 26.2779 7.54443 26.4619 7.42744 26.4376C6.94672 26.3346 7.12163 25.9701 7.1448 25.646V25.6449Z" fill="black"/>
<path d="M124.44 47.6706C124.3 47.5711 124.067 47.4924 124.038 47.3674C123.964 47.0353 123.976 46.6823 124.03 46.29C124.191 46.6985 124.35 47.1082 124.511 47.5167C124.487 47.5676 124.463 47.6186 124.439 47.6706H124.44Z" fill="black"/>
</g>
<defs>
<clipPath id="clip0_1_180">
<rect width="133" height="60" fill="white"/>
</clipPath>
</defs>
</svg>
