<svg width="967" height="932" viewBox="0 0 967 932" fill="none" xmlns="http://www.w3.org/2000/svg">
<g clip-path="url(#clip0_1_10)">
<path d="M176.574 288.627L241.903 350.138C241.903 350.138 215.059 320.923 178.254 283.662C180.125 278.126 181.139 275.111 181.139 275.111L178.084 283.491C132.355 237.198 71.3051 178.541 27.2107 147.99L176.302 288.37L0.209961 771.37C33.6783 708.655 151.834 361.675 176.574 288.627Z" fill="white"/>
<path d="M176.574 288.627L241.903 350.138C241.903 350.138 215.059 320.923 178.254 283.662C180.125 278.126 181.139 275.111 181.139 275.111L178.084 283.491C132.355 237.198 71.3051 178.541 27.2107 147.99L176.302 288.37L0.209961 771.37C33.6783 708.655 151.834 361.675 176.574 288.627Z" fill="white"/>
<path d="M896.477 642.351L920.824 640.087L928.404 644.785L896.477 642.351ZM605.146 620.113L816.279 575.247L916.612 637.471C901.528 637.994 883.171 638.722 862.245 639.735L605.146 620.113ZM553.074 667.275C549.327 656.461 544.664 645.342 539.308 634.099L539.799 633.995C599.505 637.671 679.899 641.128 787.808 643.991C718.254 648.595 635.269 655.862 553.07 667.271M383.401 516.879C383.401 516.879 397.332 514.677 411.442 514.625C411.585 514.625 411.724 514.625 411.862 514.625C422.086 514.573 431.855 519.115 438.756 527.147C471.04 564.737 556.103 670.176 542.694 723.151C526.199 788.314 546.62 909.006 546.62 909.006L383.401 516.879ZM431.439 655.733L433.172 654.573L433.472 655.281C432.793 655.434 432.118 655.581 431.444 655.733M343.912 514.078C343.912 514.078 343.912 509.589 351.286 490.062C398.163 299.955 445.907 326.169 479.764 295.67C498.881 278.445 599.348 308.653 693.826 324.889C766.654 337.407 840.885 335.414 840.885 335.414C840.885 335.414 760.875 366.84 636.886 374.235C519.695 359.445 426.807 474.981 403.371 499.307C379.93 523.633 343.912 514.083 343.912 514.083M340.901 453.328C321.431 464.58 304.404 474.567 291.246 482.334C288.258 468.242 285.046 453.186 281.669 437.492C288.396 429.178 296.132 416.985 304.132 402.95C308.42 395.427 312.788 387.375 317.116 379.105L335.34 422.359L312.797 443.679L339.356 431.889L343.916 442.709C342.884 446.237 341.884 449.78 340.906 453.328M335.023 476.574C315.272 491.921 302.448 506.146 298.709 517.702C296.601 507.658 294.305 496.748 291.853 485.177L338.436 462.583C337.238 467.239 336.099 471.904 335.023 476.574ZM326.751 522.696C325.219 526.429 324.401 528.512 324.401 528.512C317.987 534.124 311.412 540.097 304.717 546.465C303.498 540.596 302.158 534.171 300.71 527.256L327.894 514.088C327.474 516.965 327.099 519.837 326.746 522.7M378.264 132.976C372.887 316.667 284.657 413.484 284.657 413.484L378.264 132.976ZM375.647 316.724C379.988 319.406 384.379 322.008 388.779 324.476C378.537 346.89 367.406 373.279 357.311 401.576L356.78 402.08C347.19 389.102 336.975 374.34 327.095 359.578C334.697 344.364 341.884 329.26 347.985 316.115L375.647 316.724ZM648.204 26.461C648.204 26.461 501.462 253.163 483.6 275.116C465.734 297.068 409.535 300.055 409.535 300.055C491.346 132.762 648.204 26.461 648.204 26.461ZM650.84 278.816L648.119 287.176L580.388 279.182L571.347 276.219C569.793 275.71 568.122 276.252 567.05 277.56C567.037 277.574 567.028 277.589 567.015 277.603L504.857 270.265L563.388 178.969L650.84 278.816ZM604.391 435.851C601.863 436.388 599.34 436.954 596.811 437.539C603.065 428.265 614.647 401.885 617.166 394.728C624.665 392.911 739.314 372.076 747.202 370.145C736.081 379.281 612.422 425.811 604.391 435.846M547.473 476.408L484.101 542.779C477.579 533.696 471.009 524.95 464.528 516.656L547.473 476.408ZM442.883 467.148C457.48 454.218 478.392 442.095 507.988 436.265C527.088 432.503 570.128 406.104 613.972 395.498C609.22 407.906 602.145 419.149 593.171 428.546L580.669 441.643C534.435 454.317 488.947 474.753 448.421 496.724C442.771 489.971 437.313 483.694 432.145 477.982C435.111 474.577 438.461 471.124 442.249 467.719L441.905 468.356C442.235 467.952 442.552 467.557 442.883 467.153M672.601 486.148C626.095 516.104 566.148 558.202 517.279 593.209C509.118 579.522 500.341 566.016 491.346 553.052C523.568 522.349 555.973 489.424 579.141 461.047L608.862 446.623L672.596 486.148H672.601ZM695.05 471.524L676.603 483.075L631.026 455.102L695.046 471.524H695.05ZM812.263 572.76C747.796 586.318 670.381 603.096 595.958 619.414L529.272 614.325C526.132 608.49 522.84 602.654 519.432 596.843L678.93 490.071L812.263 572.76ZM703.948 476.408L866.063 519.909C866.063 519.909 872.29 579.032 912.44 619.409C859.551 587.978 798.35 513.546 686.367 486.985L703.948 476.403V476.408ZM939.941 647.278C948.83 647.43 957.821 647.582 966.987 647.729L938.597 645.561C936.958 643.44 935.327 641.204 933.706 638.884L962.301 636.225C962.301 636.225 951.479 636.382 932.375 636.958C917.108 614.534 902.891 584.307 892.287 559.096L962.301 544.22C956.847 543.949 930.454 548.667 891.197 556.504C880.549 530.937 873.818 511.158 873.818 511.158L708.776 470.092L748.404 443.565C743.173 446.261 738.144 448.687 733.392 450.779C725.387 454.298 714.373 460.357 701.272 468.228L615.491 443.189L749.949 378.163C793.36 367.278 835.74 356.549 871.084 347.565L878.289 356.625L748.408 443.569C791.065 421.598 847.335 381.621 879.37 357.985L889.951 371.291C887.481 365.965 884.926 360.776 882.304 355.811C895.994 345.667 904.557 339.043 904.557 339.043L881.572 354.427C880.039 351.56 878.481 348.773 876.904 346.086C927.524 333.207 962.301 324.271 962.301 324.271L880.835 314.655L962.301 275.121C962.301 275.121 905.428 286.758 835.579 309.31L772.443 301.857C807.118 285.926 821.161 275.121 821.161 275.121L767.24 301.244L689.914 292.118L693.822 290.22C692.294 290.805 690.677 291.404 689.02 292.013L667.473 289.469C684.576 231.529 675.33 203.508 675.33 203.508L652.934 272.357C626.809 240.632 595.797 204.983 565.737 175.297L677.836 0.451782C553.414 44.6803 424.19 254.176 424.19 254.176C424.19 254.176 416.083 268.306 404.492 291.561C393.839 292.688 383.816 294.077 374.499 295.613L360.996 287.528C361.032 287.452 361.068 287.371 361.099 287.295C364.641 279.344 367.08 270.888 368.34 262.194L399.887 44.4045L324.558 265.714L321.676 273.994L307.634 267.112C307.634 267.112 312.489 271.259 320.511 277.612L310.675 306.513L312.802 275.111C312.802 275.111 309.304 289.792 306.383 312.063C300.987 313.875 298.12 315.017 298.12 315.017L305.981 315.188C305.668 317.689 305.365 320.286 305.079 322.954L304.418 324.894C302.242 321.503 300.139 318.198 298.12 315.017C283.492 291.956 273.308 275.106 273.308 275.106L299.889 338.196L275.621 409.485C245.065 268.848 204.794 94.3019 191.953 88.4808L272.33 419.149L229.758 544.216C249.675 524.807 258.555 510.797 262.722 499.307C270.547 477.716 261.695 465.051 277.966 442.328L288.137 484.174C272.191 493.6 262.722 499.307 262.722 499.307L288.749 486.685L297.611 523.148C297.486 525.026 297.637 526.824 298.115 528.512L298.83 528.165L303.547 547.573C264.254 585.153 220.919 636.591 181.148 711.342L305.271 554.678L312.797 585.638C312.797 585.638 310.367 573.701 306.182 553.527L326.09 528.398C325.246 536.264 324.665 544.054 324.397 551.73L341.182 525.544L376.205 519.362L383.084 535.688C331.669 569.117 298.106 597.409 298.106 597.409L390.248 552.695L412.452 605.398L383.678 603.201C383.678 603.201 349.325 611.69 408.878 621.558L374.289 657.788C374.289 657.788 390.833 643.948 415.181 622.552C416.722 622.785 418.325 623.018 419.974 623.251L433.065 654.326C432.297 654.891 431.618 655.396 431.033 655.824C360.943 671.403 312.793 682.223 312.793 682.223L428.608 657.612C428.46 657.721 428.38 657.778 428.38 657.778L428.643 657.602L433.976 656.47L445.679 684.244L312.797 696.599C312.797 696.599 352.3 711.338 430.725 687.972C435.772 686.936 440.855 685.918 445.965 684.919L549.764 931.291C549.764 931.291 559.89 894.629 554.83 853.658C549.765 812.683 555.844 820.235 562.932 725.348C564.08 710.001 561.141 692.552 555.325 674.048L860.114 645.713C883.072 646.212 907.085 646.683 932.214 647.125L949.527 657.864C946.32 654.815 943.121 651.249 939.946 647.258" fill="white"/>
</g>
<defs>
<clipPath id="clip0_1_10">
<rect width="967" height="932" fill="white"/>
</clipPath>
</defs>
</svg>
