<svg width="638" height="709" viewBox="0 0 638 709" fill="none" xmlns="http://www.w3.org/2000/svg">
<path d="M579.956 488.311L599.696 486.589L605.841 490.164L579.956 488.311ZM343.758 471.394L514.935 437.264L596.281 484.6C584.052 484.997 569.168 485.551 552.202 486.322L343.758 471.394ZM301.541 507.273C298.503 499.046 294.722 490.587 290.38 482.034L290.778 481.955C339.185 484.751 404.365 487.382 491.853 489.56C435.461 493.062 368.181 498.59 301.537 507.269M163.977 392.862C163.977 392.862 175.272 391.187 186.712 391.147C186.828 391.147 186.94 391.147 187.053 391.147C195.342 391.107 203.262 394.562 208.857 400.673C235.032 429.268 303.996 509.479 293.125 549.779C279.751 599.35 296.308 691.164 296.308 691.164L163.977 392.862ZM202.925 498.492L204.33 497.609L204.573 498.148C204.022 498.264 203.475 498.376 202.928 498.492M131.961 390.731C131.961 390.731 131.961 387.316 137.94 372.461C175.946 227.841 214.654 247.783 242.104 224.581C257.603 211.478 339.058 234.458 415.656 246.809C474.702 256.332 534.885 254.816 534.885 254.816C534.885 254.816 470.016 278.722 369.492 284.348C274.479 273.097 199.17 360.989 180.168 379.494C161.164 397.999 131.961 390.734 131.961 390.734M129.52 344.516C113.735 353.076 99.9306 360.674 89.2622 366.582C86.8395 355.862 84.2358 344.408 81.498 332.469C86.9518 326.145 93.2239 316.869 99.7097 306.193C103.186 300.469 106.728 294.344 110.237 288.053L125.012 320.957L106.735 337.176L128.268 328.207L131.965 336.438C131.128 339.122 130.317 341.818 129.524 344.516M124.755 362.201C108.741 373.875 98.3445 384.696 95.3134 393.488C93.6042 385.847 91.7428 377.547 89.7547 368.745L127.522 351.557C126.551 355.099 125.628 358.648 124.755 362.201ZM118.048 397.286C116.806 400.126 116.143 401.711 116.143 401.711C110.943 405.98 105.612 410.524 100.184 415.368C99.1955 410.904 98.1091 406.016 96.9358 400.756L118.975 390.738C118.635 392.927 118.331 395.112 118.045 397.29M159.813 100.815C155.453 240.554 83.9207 314.206 83.9207 314.206L159.813 100.815ZM157.691 240.598C161.211 242.638 164.771 244.617 168.338 246.495C160.034 263.546 151.009 283.621 142.825 305.147L142.394 305.531C134.619 295.658 126.337 284.428 118.327 273.198C124.49 261.624 130.317 250.134 135.264 240.134L157.691 240.598ZM378.668 19.786C378.668 19.786 259.696 192.245 245.215 208.945C230.729 225.645 185.166 227.917 185.166 227.917C251.494 100.652 378.668 19.786 378.668 19.786ZM380.805 211.76L378.599 218.12L323.685 212.038L316.356 209.784C315.096 209.397 313.741 209.81 312.872 210.805C312.861 210.815 312.854 210.826 312.843 210.837L262.449 205.255L309.903 135.803L380.805 211.76ZM343.146 331.221C341.097 331.63 339.051 332.06 337.001 332.505C342.071 325.45 351.461 305.382 353.503 299.937C359.584 298.555 452.536 282.706 458.931 281.237C449.914 288.187 349.658 323.584 343.146 331.217M297 362.074L245.62 412.565C240.333 405.655 235.006 399.001 229.752 392.692L297 362.074ZM212.203 355.03C224.037 345.193 240.992 335.971 264.987 331.536C280.472 328.674 315.367 308.591 350.914 300.524C347.061 309.962 341.325 318.515 334.05 325.664L323.914 335.627C286.429 345.269 249.55 360.815 216.693 377.529C212.112 372.392 207.687 367.616 203.497 363.271C205.902 360.681 208.618 358.054 211.688 355.464L211.41 355.949C211.678 355.641 211.935 355.341 212.203 355.034M398.448 369.483C360.742 392.272 312.141 424.297 272.52 450.928C265.903 440.516 258.788 430.241 251.494 420.379C277.618 397.022 303.891 371.976 322.675 350.388L346.771 339.415L398.444 369.483H398.448ZM416.649 358.358L401.692 367.146L364.74 345.866L416.645 358.358H416.649ZM511.68 435.371C459.413 445.686 396.648 458.45 336.309 470.863L282.243 466.991C279.697 462.552 277.028 458.113 274.265 453.692L403.579 372.468L511.68 435.371ZM423.862 362.074L555.298 395.166C555.298 395.166 560.347 440.143 592.899 470.859C550.019 446.949 500.399 390.326 409.609 370.12L423.862 362.07V362.074ZM615.195 492.059C622.402 492.175 629.691 492.291 637.122 492.403L614.105 490.753C612.776 489.14 611.454 487.439 610.14 485.674L633.324 483.652C633.324 483.652 624.549 483.771 609.061 484.209C596.683 467.151 585.156 444.156 576.559 424.977L633.324 413.661C628.902 413.455 607.504 417.043 575.676 423.006C567.042 403.556 561.585 388.51 561.585 388.51L427.777 357.269L459.905 337.089C455.665 339.14 451.587 340.985 447.734 342.577C441.245 345.255 432.314 349.864 421.693 355.851L352.145 336.803L461.158 287.336C496.354 279.055 530.713 270.893 559.369 264.059L565.21 270.951L459.909 337.093C494.493 320.378 540.114 289.967 566.086 271.986L574.665 282.109C572.663 278.057 570.591 274.11 568.466 270.333C579.565 262.616 586.507 257.576 586.507 257.576L567.872 269.28C566.63 267.098 565.366 264.978 564.087 262.934C605.128 253.137 633.324 246.339 633.324 246.339L567.274 239.024L633.324 208.949C633.324 208.949 587.213 217.801 530.583 234.957L479.395 229.288C507.508 217.168 518.893 208.949 518.893 208.949L475.176 228.821L412.484 221.879L415.653 220.435C414.414 220.88 413.103 221.336 411.76 221.799L394.29 219.864C408.157 175.787 400.66 154.471 400.66 154.471L382.503 206.847C361.322 182.712 336.179 155.593 311.807 133.01L402.692 0C301.816 33.646 197.047 193.016 197.047 193.016C197.047 193.016 190.475 203.764 181.077 221.456C172.441 222.313 164.314 223.369 156.76 224.538L145.813 218.388C145.842 218.33 145.871 218.268 145.896 218.21C148.768 212.161 150.745 205.729 151.766 199.115L177.344 33.4361L116.27 201.793L39.4109 158.621L102.549 202.856C102.549 202.856 106.485 206.011 112.989 210.844L105.015 232.83L106.739 208.941C106.739 208.941 103.903 220.11 101.535 237.052C97.1603 238.43 94.8354 239.299 94.8354 239.299L101.209 239.429C100.955 241.332 100.709 243.307 100.477 245.337L99.9415 246.813C98.1779 244.233 96.4722 241.719 94.8354 239.299C82.9755 221.756 74.7189 208.938 74.7189 208.938L96.2695 256.932L76.5948 311.164C51.8212 204.177 19.1713 71.3946 8.76 66.9663L73.9258 318.515L39.4109 413.657C55.5585 398.893 62.7577 388.235 66.1364 379.494C72.4809 363.069 65.3035 353.435 78.496 336.148L86.7417 367.982C73.8136 375.152 66.1364 379.494 66.1364 379.494L87.2379 369.892L94.4226 397.63C94.3212 399.059 94.4443 400.427 94.8318 401.711L95.4112 401.447L99.2353 416.211C67.3785 444.8 32.2443 483.93 0 540.795L100.633 421.616L106.735 445.169C106.735 445.169 104.765 436.088 101.372 420.741L117.512 401.624C116.828 407.608 116.357 413.534 116.14 419.373L129.749 399.453L158.144 394.75L163.72 407.17C122.035 432.6 94.8245 454.123 94.8245 454.123L169.529 420.108L187.531 460.201L164.202 458.529C164.202 458.529 136.35 464.987 184.634 472.494L156.59 500.055C156.59 500.055 170.003 489.527 189.743 473.25C190.993 473.428 192.293 473.605 193.629 473.782L204.243 497.421C203.62 497.852 203.07 498.235 202.595 498.561C145.769 510.413 106.731 518.643 106.731 518.643L200.629 499.921C200.509 500.004 200.444 500.048 200.444 500.048L200.658 499.914L204.982 499.053L214.47 520.181L106.735 529.58C106.735 529.58 138.762 540.792 202.345 523.017C206.438 522.229 210.559 521.454 214.701 520.695L298.858 708.117C298.858 708.117 307.067 680.227 302.964 649.059C298.858 617.888 303.786 623.633 309.533 551.45C310.464 539.775 308.081 526.501 303.366 512.424L550.475 490.869C569.089 491.249 588.557 491.607 608.93 491.944L622.967 500.113C620.367 497.794 617.774 495.08 615.199 492.045" fill="white"/>
</svg>
