<svg width="522" height="709" viewBox="0 0 522 709" fill="none" xmlns="http://www.w3.org/2000/svg">
<g clip-path="url(#clip0_1_14)">
<path d="M464.823 488.655L484.563 486.933L490.708 490.507L464.823 488.655ZM228.625 471.738L399.802 437.607L481.148 484.943C468.918 485.341 454.035 485.895 437.069 486.665L228.625 471.738ZM186.408 507.616C183.369 499.389 179.589 490.931 175.247 482.378L175.645 482.299C224.051 485.095 289.232 487.725 376.719 489.903C320.328 493.405 253.047 498.933 186.404 507.613M48.8441 393.205C48.8441 393.205 60.1391 391.53 71.5789 391.491C71.6948 391.491 71.807 391.491 71.9193 391.491C80.2085 391.451 88.1283 394.906 93.7233 401.016C119.898 429.612 188.863 509.823 177.992 550.122C164.618 599.694 181.175 691.508 181.175 691.508L48.8441 393.205ZM87.7916 498.836L89.1966 497.953L89.4393 498.492C88.8888 498.608 88.342 498.72 87.7952 498.836M16.828 391.075C16.828 391.075 16.828 387.659 22.8068 372.804C60.8126 228.185 99.521 248.126 126.971 224.925C142.47 211.821 223.925 234.802 300.523 247.153C359.569 256.675 419.752 255.159 419.752 255.159C419.752 255.159 354.883 279.066 254.358 284.692C159.345 273.44 84.0363 361.332 65.0351 379.838C46.0304 398.343 16.828 391.078 16.828 391.078M14.3872 344.86C-1.39819 353.42 -15.2027 361.018 -25.8711 366.925C-28.2938 356.206 -30.8976 344.752 -33.6353 332.813C-28.1815 326.489 -21.9094 317.213 -15.4236 306.536C-11.9471 300.813 -8.40547 294.688 -4.8964 288.397L9.87865 321.301L-8.39822 337.52L13.1342 328.551L16.8316 336.782C15.9951 339.466 15.1839 342.161 14.3908 344.86M9.62152 362.544C-6.39201 374.219 -16.7888 385.04 -19.8199 393.831C-21.5292 386.19 -23.3905 377.891 -25.3786 369.089L12.3882 351.901C11.4177 355.442 10.4943 358.991 9.62152 362.544ZM2.91481 397.63C1.67269 400.47 1.01001 402.055 1.01001 402.055C-4.19022 406.324 -9.52082 410.868 -14.9492 415.712C-15.9378 411.248 -17.0242 406.36 -18.1975 401.1L3.84187 391.082C3.50146 393.271 3.1973 395.456 2.91121 397.634M44.6796 101.159C40.3195 240.898 -31.2126 314.55 -31.2126 314.55L44.6796 101.159ZM42.5575 240.941C46.0775 242.982 49.6372 244.961 53.2042 246.838C44.9005 263.889 35.8762 283.965 27.692 305.491L27.261 305.874C19.486 296.001 11.204 284.771 3.19366 273.542C9.35716 261.968 15.1839 250.478 20.1306 240.478L42.5575 240.941ZM263.535 20.1297C263.535 20.1297 144.563 192.589 130.081 209.289C115.596 225.989 70.0326 228.261 70.0326 228.261C136.361 100.996 263.535 20.1297 263.535 20.1297ZM265.671 212.103L263.466 218.464L208.552 212.382L201.223 210.128C199.962 209.741 198.608 210.153 197.739 211.148C197.728 211.159 197.721 211.17 197.71 211.181L147.315 205.598L194.769 136.147L265.671 212.103ZM228.013 331.565C225.963 331.973 223.917 332.404 221.868 332.849C226.938 325.794 236.328 305.726 238.37 300.281C244.45 298.899 337.403 283.049 343.798 281.58C334.781 288.53 234.524 323.927 228.013 331.561M181.866 362.418L130.487 412.908C125.2 405.998 119.873 399.345 114.618 393.035L181.866 362.418ZM97.0694 355.374C108.904 345.537 125.859 336.315 149.854 331.879C165.339 329.018 200.234 308.935 235.781 300.867C231.928 310.306 226.192 318.859 218.916 326.008L208.78 335.971C171.296 345.613 134.416 361.159 101.56 377.873C96.9789 372.736 92.5536 367.96 88.3637 363.615C90.7683 361.025 93.4843 358.398 96.5552 355.808L96.2763 356.293C96.5443 355.985 96.8014 355.685 97.0694 355.377M283.314 369.827C245.609 392.616 197.007 424.641 157.386 451.272C150.77 440.86 143.654 430.585 136.361 420.723C162.485 397.366 188.758 372.32 207.542 350.732L231.638 339.759L283.311 369.827H283.314ZM301.515 358.702L286.559 367.49L249.607 346.21L301.512 358.702H301.515ZM396.546 435.715C344.28 446.03 281.515 458.793 221.176 471.206L167.11 467.335C164.564 462.896 161.895 458.457 159.132 454.036L288.446 372.812L396.546 435.715ZM308.729 362.418L440.165 395.51C440.165 395.51 445.213 440.487 477.765 471.203C434.885 447.292 385.266 390.669 294.475 370.464L308.729 362.414V362.418ZM500.062 492.403C507.268 492.519 514.558 492.635 521.989 492.747L498.972 491.097C497.643 489.484 496.321 487.783 495.007 486.018L518.19 483.995C518.19 483.995 509.416 484.115 493.927 484.552C481.55 467.494 470.023 444.499 461.426 425.321L518.19 414.004C513.769 413.798 492.37 417.387 460.542 423.349C451.909 403.9 446.452 388.853 446.452 388.853L312.644 357.613L344.772 337.433C340.531 339.484 336.454 341.329 332.601 342.921C326.111 345.598 317.181 350.207 306.56 356.195L237.012 337.147L346.025 287.68C381.221 279.399 415.58 271.237 444.235 264.403L450.077 271.295L344.776 337.436C379.359 320.722 424.981 290.31 450.953 272.33L459.532 282.452C457.529 278.4 455.458 274.453 453.332 270.676C464.432 262.959 471.374 257.92 471.374 257.92L452.738 269.624C451.496 267.442 450.232 265.322 448.954 263.278C489.995 253.481 518.19 246.683 518.19 246.683L452.141 239.367L518.19 209.292C518.19 209.292 472.08 218.145 415.45 235.301L364.262 229.632C392.374 217.512 403.76 209.292 403.76 209.292L360.043 229.165L297.351 222.222L300.519 220.779C299.281 221.224 297.97 221.68 296.626 222.143L279.157 220.207C293.023 176.131 285.527 154.815 285.527 154.815L267.37 207.19C246.189 183.056 221.046 155.936 196.674 133.354L287.559 0.343689C186.683 33.9896 81.9141 193.359 81.9141 193.359C81.9141 193.359 75.3414 204.108 65.9441 221.799C57.3072 222.657 49.1809 223.713 41.6268 224.882L30.6796 218.731C30.7085 218.673 30.7375 218.612 30.7628 218.554C33.6346 212.505 35.6118 206.072 36.633 199.459L62.2105 33.7798L1.13675 202.136L-75.7224 158.964L-12.5845 203.2C-12.5845 203.2 -8.64809 206.355 -2.14418 211.188L-10.1184 233.174L-8.3946 209.285C-8.3946 209.285 -11.2301 220.453 -13.5984 237.396C-17.973 238.774 -20.2979 239.642 -20.2979 239.642L-13.9244 239.773C-14.1779 241.676 -14.4241 243.651 -14.6559 245.681L-15.1918 247.157C-16.9554 244.577 -18.6611 242.063 -20.2979 239.642C-32.1578 222.099 -40.4144 209.281 -40.4144 209.281L-18.8639 257.276L-38.5386 311.507C-63.3121 204.52 -95.962 71.7382 -106.373 67.31L-41.2075 318.859L-75.7224 414.001C-59.5749 399.236 -52.3757 388.578 -48.997 379.838C-42.6524 363.413 -49.8299 353.778 -36.6374 336.492L-28.3916 368.326C-41.3197 375.496 -48.997 379.838 -48.997 379.838L-27.8955 370.236L-20.7107 397.974C-20.8121 399.403 -20.689 400.77 -20.3015 402.055L-19.7221 401.791L-15.898 416.555C-47.7548 445.143 -82.889 484.274 -115.133 541.139L-14.5002 421.96L-8.39822 445.512C-8.39822 445.512 -10.3682 436.432 -13.7614 421.085L2.37886 401.968C1.69443 407.952 1.22366 413.878 1.00639 419.717L14.6153 399.797L43.0102 395.094L48.587 407.514C6.90189 432.944 -20.3088 454.466 -20.3088 454.466L54.3957 420.451L72.3973 460.544L49.0687 458.873C49.0687 458.873 21.217 465.331 69.5002 472.838L41.4566 500.399C41.4566 500.399 54.8701 489.871 74.6099 473.594C75.8593 473.771 77.1593 473.949 78.4956 474.126L89.1097 497.765C88.4869 498.195 87.9364 498.579 87.462 498.904C30.6361 510.757 -8.40185 518.987 -8.40185 518.987L85.4957 500.265C85.3761 500.348 85.311 500.391 85.311 500.391L85.5246 500.258L89.8485 499.396L99.3364 520.525L-8.39822 529.924C-8.39822 529.924 23.6288 541.136 87.2122 523.361C91.3043 522.572 95.4253 521.798 99.5681 521.038L183.724 708.461C183.724 708.461 191.934 680.571 187.831 649.403C183.724 618.232 188.653 623.977 194.4 551.794C195.331 540.119 192.948 526.845 188.233 512.768L435.342 491.213C453.955 491.593 473.423 491.951 493.797 492.287L507.833 500.457C505.233 498.137 502.64 495.424 500.065 492.389" fill="white"/>
<path d="M186.408 507.616C183.369 499.389 179.589 490.931 175.247 482.378L175.645 482.299C224.051 485.095 289.232 487.725 376.719 489.903C320.328 493.405 253.047 498.933 186.404 507.613M87.7916 498.836L89.1966 497.953L89.4393 498.492C88.8888 498.608 88.342 498.72 87.7952 498.836M16.828 391.075C16.828 391.075 16.828 387.659 22.8068 372.804C60.8126 228.185 99.521 248.126 126.971 224.925C142.47 211.821 223.925 234.802 300.523 247.153C359.569 256.675 419.752 255.159 419.752 255.159C419.752 255.159 354.883 279.066 254.358 284.692C159.345 273.44 84.0363 361.332 65.0351 379.838C46.0304 398.343 16.828 391.078 16.828 391.078M14.3872 344.86C-1.3982 353.42 -15.2027 361.018 -25.8711 366.925C-28.2938 356.206 -30.8976 344.752 -33.6353 332.813C-28.1816 326.489 -21.9094 317.213 -15.4236 306.536C-11.9471 300.813 -8.40547 294.688 -4.8964 288.397L9.87864 321.301L-8.39822 337.52L13.1342 328.551L16.8316 336.782C15.9951 339.466 15.1839 342.161 14.3908 344.86M2.91481 397.63C1.67269 400.47 1.01001 402.055 1.01001 402.055C-4.19022 406.324 -9.52082 410.868 -14.9492 415.712C-15.9378 411.248 -17.0242 406.36 -18.1975 401.1L3.84187 391.082C3.50147 393.271 3.19729 395.456 2.91121 397.634M228.013 331.565C225.963 331.973 223.917 332.404 221.868 332.849C226.938 325.794 236.328 305.726 238.37 300.281C244.45 298.899 337.403 283.049 343.798 281.58C334.781 288.53 234.524 323.927 228.013 331.561M97.0694 355.374C108.904 345.537 125.859 336.315 149.854 331.879C165.339 329.018 200.234 308.935 235.781 300.867C231.928 310.306 226.192 318.859 218.916 326.008L208.78 335.971C171.296 345.613 134.416 361.159 101.56 377.873C96.9789 372.736 92.5536 367.96 88.3637 363.615C90.7683 361.025 93.4843 358.398 96.5552 355.808L96.2763 356.293C96.5443 355.985 96.8014 355.685 97.0694 355.377M500.062 492.403C507.268 492.519 514.558 492.635 521.989 492.747L498.972 491.097C497.643 489.484 496.321 487.783 495.007 486.018L518.19 483.995C518.19 483.995 509.416 484.115 493.927 484.552C481.55 467.494 470.023 444.499 461.426 425.321L518.19 414.004C513.769 413.798 492.37 417.387 460.542 423.349C451.909 403.9 446.452 388.853 446.452 388.853L312.644 357.613L344.772 337.433C340.531 339.484 336.454 341.329 332.601 342.921C326.111 345.598 317.181 350.207 306.56 356.195L237.012 337.147L346.025 287.68C381.221 279.399 415.58 271.237 444.235 264.403L450.077 271.295L344.776 337.436C379.359 320.722 424.981 290.31 450.953 272.33L459.532 282.452C457.529 278.4 455.458 274.453 453.332 270.676C464.432 262.959 471.374 257.92 471.374 257.92L452.738 269.624C451.496 267.442 450.232 265.322 448.954 263.278C489.995 253.481 518.19 246.683 518.19 246.683L452.141 239.367L518.19 209.292C518.19 209.292 472.08 218.145 415.45 235.301L364.262 229.632C392.374 217.512 403.76 209.292 403.76 209.292L360.043 229.165L297.351 222.222L300.519 220.779C299.281 221.224 297.97 221.68 296.626 222.143L279.157 220.207C293.023 176.131 285.527 154.815 285.527 154.815L267.37 207.19C246.189 183.056 221.046 155.936 196.674 133.354L287.559 0.343689C186.683 33.9896 81.9141 193.359 81.9141 193.359C81.9141 193.359 75.3414 204.108 65.9441 221.799C57.3072 222.657 49.1809 223.713 41.6268 224.882L30.6796 218.731C30.7085 218.673 30.7375 218.612 30.7629 218.554C33.6346 212.505 35.6118 206.072 36.633 199.459L62.2105 33.7798L1.13675 202.136L-75.7224 158.964L-12.5845 203.2C-12.5845 203.2 -8.64809 206.355 -2.14418 211.188L-10.1184 233.174L-8.3946 209.285C-8.3946 209.285 -11.2301 220.453 -13.5984 237.396C-17.973 238.774 -20.2979 239.642 -20.2979 239.642M-48.997 379.838C-52.3757 388.578 -59.5749 399.236 -75.7224 414.001L-41.2075 318.859L-106.373 67.31C-95.962 71.7382 -63.3121 204.52 -38.5385 311.507L-18.8639 257.276L-40.4144 209.281C-40.4144 209.281 -32.1578 222.099 -20.2979 239.642L-13.9244 239.773C-14.1779 241.676 -14.4241 243.651 -14.6559 245.681L-15.1918 247.157C-16.9554 244.577 -18.6611 242.063 -20.2979 239.642M-48.997 379.838C-42.6524 363.413 -49.8299 353.778 -36.6374 336.492L-28.3916 368.326C-41.3197 375.496 -48.997 379.838 -48.997 379.838ZM-48.997 379.838L-27.8955 370.236L-20.7107 397.974C-20.8121 399.403 -20.689 400.77 -20.3015 402.055L-19.7221 401.791L-15.898 416.555C-47.7548 445.143 -82.889 484.274 -115.133 541.139L-14.5002 421.96L-8.39822 445.512C-8.39822 445.512 -10.3682 436.432 -13.7614 421.085L2.37886 401.968C1.69443 407.952 1.22366 413.878 1.00638 419.717L14.6153 399.797L43.0102 395.094L48.587 407.514C6.90189 432.944 -20.3088 454.466 -20.3088 454.466L54.3957 420.451L72.3973 460.544L49.0687 458.873C49.0687 458.873 21.217 465.331 69.5002 472.838L41.4566 500.399C41.4566 500.399 54.8701 489.871 74.6099 473.594C75.8593 473.771 77.1593 473.949 78.4956 474.126L89.1097 497.765C88.4869 498.195 87.9364 498.579 87.462 498.904C30.6361 510.757 -8.40185 518.987 -8.40185 518.987L85.4956 500.265C85.3761 500.348 85.311 500.391 85.311 500.391L85.5246 500.258L89.8485 499.396L99.3364 520.525L-8.39822 529.924C-8.39822 529.924 23.6288 541.136 87.2122 523.361C91.3043 522.572 95.4253 521.798 99.5681 521.038L183.724 708.461C183.724 708.461 191.934 680.571 187.831 649.403C183.724 618.232 188.653 623.977 194.4 551.794C195.331 540.119 192.948 526.845 188.233 512.768L435.342 491.213C453.955 491.593 473.423 491.951 493.797 492.287L507.833 500.457C505.233 498.137 502.64 495.424 500.065 492.389M464.823 488.655L484.563 486.933L490.708 490.507L464.823 488.655ZM228.625 471.738L399.802 437.607L481.148 484.943C468.918 485.341 454.035 485.895 437.069 486.665L228.625 471.738ZM48.8442 393.205C48.8442 393.205 60.1391 391.53 71.5789 391.491C71.6948 391.491 71.807 391.491 71.9193 391.491C80.2085 391.451 88.1283 394.906 93.7233 401.016C119.898 429.612 188.863 509.823 177.992 550.122C164.618 599.694 181.175 691.508 181.175 691.508L48.8442 393.205ZM9.62152 362.544C-6.392 374.219 -16.7888 385.04 -19.8199 393.831C-21.5292 386.19 -23.3905 377.891 -25.3786 369.089L12.3882 351.901C11.4177 355.442 10.4943 358.991 9.62152 362.544ZM44.6796 101.159C40.3195 240.898 -31.2126 314.55 -31.2126 314.55L44.6796 101.159ZM42.5575 240.941C46.0775 242.982 49.6372 244.961 53.2042 246.838C44.9005 263.889 35.8762 283.965 27.692 305.491L27.261 305.874C19.486 296.001 11.204 284.771 3.19366 273.542C9.35716 261.968 15.1839 250.478 20.1306 240.478L42.5575 240.941ZM263.535 20.1297C263.535 20.1297 144.563 192.589 130.081 209.289C115.596 225.989 70.0326 228.261 70.0326 228.261C136.361 100.996 263.535 20.1297 263.535 20.1297ZM265.671 212.103L263.466 218.464L208.552 212.382L201.223 210.128C199.962 209.741 198.608 210.153 197.739 211.148C197.728 211.159 197.721 211.17 197.71 211.181L147.315 205.598L194.769 136.147L265.671 212.103ZM181.866 362.418L130.487 412.908C125.2 405.998 119.873 399.345 114.618 393.035L181.866 362.418ZM283.314 369.827C245.609 392.616 197.007 424.641 157.386 451.272C150.77 440.86 143.654 430.585 136.361 420.723C162.485 397.366 188.758 372.32 207.542 350.732L231.638 339.759L283.311 369.827H283.314ZM301.515 358.702L286.559 367.49L249.607 346.21L301.512 358.702H301.515ZM396.546 435.715C344.28 446.03 281.515 458.793 221.176 471.206L167.11 467.335C164.564 462.896 161.895 458.457 159.132 454.036L288.446 372.812L396.546 435.715ZM308.729 362.418L440.165 395.51C440.165 395.51 445.213 440.487 477.765 471.203C434.885 447.292 385.266 390.669 294.475 370.464L308.729 362.414V362.418Z" stroke="#554D56" stroke-miterlimit="10"/>
</g>
<defs>
<clipPath id="clip0_1_14">
<rect width="784" height="709" fill="white" transform="translate(-262)"/>
</clipPath>
</defs>
</svg>
